<svg width="142" height="140" viewBox="0 0 142 140" fill="none" xmlns="http://www.w3.org/2000/svg">
<path d="M115.363 119.315C105.206 106.061 89.1144 97.5 71 97.5C52.8856 97.5 36.7935 106.061 26.6369 119.315M115.363 119.315C129.098 107.227 137.75 89.6122 137.75 70C137.75 33.5492 107.865 4 71 4C34.135 4 4.25 33.5492 4.25 70C4.25 89.6122 12.9016 107.227 26.6369 119.315M115.363 119.315C103.57 129.694 88.0299 136 71 136C53.9701 136 38.4298 129.694 26.6369 119.315M93.25 53.5C93.25 65.6503 83.2883 75.5 71 75.5C58.7117 75.5 48.75 65.6503 48.75 53.5C48.75 41.3497 58.7117 31.5 71 31.5C83.2883 31.5 93.25 41.3497 93.25 53.5Z" stroke="black" stroke-width="7.4375" stroke-linecap="round" stroke-linejoin="round"/>
</svg>
