<svg width="46" height="40" viewBox="0 0 46 40" fill="none" xmlns="http://www.w3.org/2000/svg">
<path d="M23.0001 5C28.2799 5 33.4559 5.38675 38.4925 6.12944C39.5138 6.28005 40.25 7.05592 40.25 7.9567V9.6967C40.25 10.6913 39.7956 11.6451 38.9869 12.3483L28.5756 21.4017C27.7669 22.1049 27.3125 23.0587 27.3125 24.0533V28.9324C27.3125 30.3528 26.3896 31.6513 24.9286 32.2865L18.6875 35V24.0533C18.6875 23.0587 18.2331 22.1049 17.4244 21.4017L7.0131 12.3483C6.20435 11.6451 5.75 10.6913 5.75 9.6967V7.95674C5.75 7.05596 6.48615 6.28009 7.50747 6.12948C12.5442 5.38676 17.7202 5 23.0001 5Z" stroke="#000B18" stroke-width="6" stroke-linecap="round" stroke-linejoin="round"/>
</svg>
