<svg width="31" height="32" viewBox="0 0 31 32" fill="none" xmlns="http://www.w3.org/2000/svg">
<g id="Vector">
<path fill-rule="evenodd" clip-rule="evenodd" d="M15.3083 19.0835C14.6181 19.0036 13.918 18.963 13.2135 18.963C10.0812 18.963 7.03644 19.7665 4.5514 21.2488C2.62188 22.3998 1.11355 23.9102 0.15612 25.629C-0.27818 26.4086 0.242345 27.3227 1.11635 27.5048C6.6631 28.6602 12.3341 29.0124 17.9566 28.5614V28.4444H16.3756C13.7561 28.4444 11.6326 26.3219 11.6326 23.7037C11.6326 21.4523 13.2028 19.5674 15.3083 19.0835Z" fill="black"/>
<path fill-rule="evenodd" clip-rule="evenodd" d="M22.6997 15.4074C23.7911 15.4074 24.6759 16.2918 24.6759 17.3827L24.6759 30.0247C24.6759 31.1156 23.7911 32 22.6997 32C21.6082 32 20.7234 31.1156 20.7234 30.0247L20.7234 17.3827C20.7234 16.2918 21.6082 15.4074 22.6997 15.4074Z" fill="black"/>
<path fill-rule="evenodd" clip-rule="evenodd" d="M31 23.7037C31 24.7946 30.1152 25.679 29.0237 25.679H16.3756C15.2842 25.679 14.3993 24.7946 14.3993 23.7037C14.3993 22.6128 15.2842 21.7284 16.3756 21.7284L29.0237 21.7284C30.1152 21.7284 31 22.6128 31 23.7037Z" fill="black"/>
<path d="M21.1187 7.90123C21.1187 12.265 17.5794 15.8025 13.2136 15.8025C8.84774 15.8025 5.30852 12.265 5.30852 7.90123C5.30852 3.5375 8.84774 0 13.2136 0C17.5794 0 21.1187 3.5375 21.1187 7.90123Z" fill="black"/>
</g>
</svg>
