<svg width="80" height="80" viewBox="0 0 80 80" fill="none" xmlns="http://www.w3.org/2000/svg">
<g id="heroicons-outline/at-symbol">
<path id="Vector" d="M55 40C55 48.2843 48.2843 55 40 55C31.7157 55 25 48.2843 25 40C25 31.7157 31.7157 25 40 25C48.2843 25 55 31.7157 55 40ZM55 40C55 45.5228 58.3579 50 62.5 50C66.6421 50 70 45.5229 70 40C70 32.3224 67.0711 24.6447 61.2132 18.7868C49.4975 7.07107 30.5025 7.07107 18.7868 18.7868C7.07107 30.5025 7.07107 49.4975 18.7868 61.2132C30.5025 72.9289 49.4975 72.9289 61.2132 61.2132M55 40V27.5" stroke="#39637C" stroke-width="6" stroke-linecap="round" stroke-linejoin="round"/>
</g>
</svg>
