<svg width="18" height="23" viewBox="0 0 18 23" fill="none" xmlns="http://www.w3.org/2000/svg">
<g id="Subtract">
<path fill-rule="evenodd" clip-rule="evenodd" d="M9 0L8.99999 5.68621C8.9999 6.16329 8.99981 6.62693 9.05122 7.00933C9.10918 7.44044 9.25039 7.93237 9.65901 8.34099C10.0676 8.74961 10.5596 8.89082 10.9907 8.94878C11.3731 9.00019 11.8367 9.0001 12.3137 9.00001L18 9V15.75C18 18.932 18 20.523 17.0115 21.5115C16.023 22.5 14.432 22.5 11.25 22.5H6.75C3.56802 22.5 1.97703 22.5 0.988515 21.5115C0 20.523 0 18.932 0 15.75V6.75C0 3.56802 0 1.97703 0.988515 0.988515C1.97703 0 3.56802 0 6.75 0H9ZM4.5 12.375C4.5 11.7537 5.00368 11.25 5.625 11.25L12.375 11.25C12.9963 11.25 13.5 11.7537 13.5 12.375C13.5 12.9963 12.9963 13.5 12.375 13.5L5.625 13.5C5.00368 13.5 4.5 12.9963 4.5 12.375ZM5.625 15.75C5.00368 15.75 4.5 16.2537 4.5 16.875C4.5 17.4963 5.00368 18 5.625 18H10.125C10.7463 18 11.25 17.4963 11.25 16.875C11.25 16.2537 10.7463 15.75 10.125 15.75H5.625Z" fill="white"/>
<path d="M11.25 0.00519835V5.625C11.25 6.18713 11.2524 6.49556 11.2812 6.70953L11.2823 6.71772L11.2905 6.71884C11.5044 6.74761 11.8129 6.75 12.375 6.75H17.9948C17.9833 6.2869 17.9466 5.98045 17.8287 5.69594C17.6575 5.28246 17.3323 4.9573 16.682 4.30698L13.693 1.31802C13.0427 0.667701 12.7175 0.342542 12.3041 0.171271C12.0196 0.053425 11.7131 0.016665 11.25 0.00519835Z" fill="white"/>
</g>
</svg>
