<svg width="23" height="23" viewBox="0 0 23 23" fill="none" xmlns="http://www.w3.org/2000/svg">
<path id="Vector" d="M8.05 16.1086C7.72417 16.1086 7.45123 15.9984 7.2312 15.7778C7.01117 15.5573 6.90077 15.2847 6.9 14.96V12.1748C6.9 11.8685 6.9575 11.5764 7.0725 11.2984C7.1875 11.0205 7.35042 10.7766 7.56125 10.5668L17.4512 0.689139C17.6812 0.459426 17.94 0.287141 18.2275 0.172285C18.515 0.0574282 18.8025 0 19.09 0C19.3967 0 19.6892 0.0574282 19.9675 0.172285C20.2458 0.287141 20.4995 0.459426 20.7287 0.689139L22.3387 2.32584C22.5496 2.55556 22.7125 2.80939 22.8275 3.08734C22.9425 3.36529 23 3.64746 23 3.93383C23 4.22021 22.9475 4.50276 22.8425 4.78147C22.7374 5.06019 22.5695 5.31364 22.3387 5.54182L12.4487 15.4195C12.2379 15.63 11.9937 15.7977 11.7162 15.9225C11.4387 16.0474 11.1462 16.1094 10.8388 16.1086H8.05ZM19.09 5.54182L20.7287 3.93383L19.1187 2.32584L17.48 3.93383L19.09 5.54182ZM2.3 23C1.6675 23 1.12623 22.7753 0.6762 22.3258C0.226167 21.8763 0.000766667 21.3353 0 20.7029V4.62297C0 3.99126 0.2254 3.45067 0.6762 3.0012C1.127 2.55173 1.66827 2.32661 2.3 2.32584H9.775C10.0433 2.32584 10.2637 2.39284 10.4362 2.52684C10.6088 2.66084 10.7429 2.83313 10.8388 3.0437C10.9346 3.25427 10.9679 3.46484 10.9388 3.67541C10.9097 3.88598 10.7997 4.08697 10.6088 4.2784L5.26125 9.61923C5.05042 9.8298 4.8875 10.0741 4.7725 10.352C4.6575 10.63 4.6 10.9217 4.6 11.2272V16.1086C4.6 16.7403 4.8254 17.2809 5.2762 17.7304C5.727 18.1799 6.26827 18.405 6.9 18.4057H11.7588C12.0654 18.4057 12.3579 18.3483 12.6362 18.2335C12.9145 18.1186 13.1587 17.9559 13.3687 17.7453L18.745 12.3758C18.9367 12.1844 19.1379 12.0741 19.3488 12.045C19.5596 12.0159 19.7704 12.0496 19.9812 12.1461C20.1921 12.2425 20.3646 12.3765 20.4988 12.5481C20.6329 12.7196 20.7 12.9397 20.7 13.2085V20.7029C20.7 21.3346 20.475 21.8756 20.0249 22.3258C19.5749 22.776 19.0333 23.0008 18.4 23H2.3Z" fill="white"/>
</svg>
