<svg width="36" height="28" viewBox="0 0 36 28" fill="none" xmlns="http://www.w3.org/2000/svg">
<g id="Subtract">
<path d="M2.39707e-05 7.48407C0 7.58259 0 7.68249 0 7.78379V20.2162C0 23.8855 0 25.7202 1.13991 26.8601C2.27982 28 4.11447 28 7.78378 28H28.2162C31.8855 28 33.7202 28 34.8601 26.8601C36 25.7202 36 23.8855 36 20.2162V7.78378C36 7.68249 36 7.58259 36 7.48407L19.26 16.784C18.4764 17.2194 17.5236 17.2194 16.74 16.784L2.39707e-05 7.48407Z" fill="#222222"/>
<path d="M0.0412782 4.70309C0.241359 4.70929 0.442981 4.76205 0.630023 4.86596L18 14.5159L35.37 4.86596C35.557 4.76205 35.7586 4.7093 35.9587 4.70309C35.8752 2.97657 35.6229 1.90269 34.8601 1.13991C33.7202 0 31.8855 0 28.2162 0H7.78378C4.11447 0 2.27982 0 1.13991 1.13991C0.377126 1.90269 0.124768 2.97657 0.0412782 4.70309Z" fill="#222222"/>
</g>
</svg>
