<svg width="28" height="28" viewBox="0 0 28 28" fill="none" xmlns="http://www.w3.org/2000/svg">
<g id="heroicons-outline/star" clip-path="url(#clip0_770_4165)">
<path id="Star 5" d="M13.3948 4.08184C13.619 3.54287 14.3825 3.54287 14.6067 4.08184L17.087 10.0452C17.1815 10.2724 17.3952 10.4277 17.6405 10.4473L24.0784 10.9635C24.6603 11.0101 24.8962 11.7363 24.4529 12.116L19.5479 16.3177C19.361 16.4778 19.2794 16.729 19.3365 16.9684L20.835 23.2507C20.9705 23.8185 20.3528 24.2673 19.8546 23.963L14.3428 20.5965C14.1328 20.4682 13.8687 20.4682 13.6587 20.5965L8.14691 23.963C7.64875 24.2673 7.03105 23.8185 7.1665 23.2507L8.66507 16.9684C8.72216 16.729 8.64055 16.4778 8.45365 16.3177L3.54861 12.116C3.10529 11.7363 3.34123 11.0101 3.92309 10.9635L10.361 10.4473C10.6063 10.4277 10.82 10.2724 10.9145 10.0452L13.3948 4.08184Z" stroke="black" stroke-width="6" stroke-linecap="round" stroke-linejoin="round"/>
</g>
<defs>
<clipPath id="clip0_770_4165">
<rect width="28" height="28" fill="white"/>
</clipPath>
</defs>
</svg>
