<svg width="23" height="23" viewBox="0 0 23 23" fill="none" xmlns="http://www.w3.org/2000/svg">
<g id="Vector">
<path fill-rule="evenodd" clip-rule="evenodd" d="M23 4.84211H0V8.47368C1.41139 8.47368 2.55556 9.55763 2.55556 10.8947V15.7368C2.55556 19.1607 2.55556 20.8727 3.67831 21.9363C4.80107 23 6.60812 23 10.2222 23H12.7778C16.3919 23 18.1989 23 19.3217 21.9363C20.4444 20.8727 20.4444 19.1607 20.4444 15.7368V10.8947C20.4444 9.55763 21.5886 8.47368 23 8.47368V4.84211ZM9.58333 10.8947C9.58333 10.2262 9.01125 9.68421 8.30556 9.68421C7.59986 9.68421 7.02778 10.2262 7.02778 10.8947V16.9474C7.02778 17.6159 7.59986 18.1579 8.30556 18.1579C9.01125 18.1579 9.58333 17.6159 9.58333 16.9474V10.8947ZM15.9722 10.8947C15.9722 10.2262 15.4001 9.68421 14.6944 9.68421C13.9887 9.68421 13.4167 10.2262 13.4167 10.8947V16.9474C13.4167 17.6159 13.9887 18.1579 14.6944 18.1579C15.4001 18.1579 15.9722 17.6159 15.9722 16.9474V10.8947Z" fill="white"/>
<path fill-rule="evenodd" clip-rule="evenodd" d="M13.2965 0.146752C12.7547 0.0483007 12.1251 0 11.5 0C10.8749 7.2153e-08 10.2453 0.0483008 9.70355 0.146753C9.43273 0.19597 9.16758 0.26061 8.92737 0.345756C8.70918 0.423094 8.4116 0.551492 8.15983 0.774033C7.64385 1.23012 7.61583 1.99612 8.09725 2.48495C8.55153 2.94622 9.29712 2.99586 9.81328 2.61677C9.81623 2.61568 9.81943 2.61452 9.8229 2.61329C9.89108 2.58912 10.0095 2.55634 10.185 2.52445C10.5359 2.46068 11 2.42105 11.5 2.42105C12 2.42105 12.4641 2.46068 12.815 2.52445C12.9905 2.55634 13.1089 2.58912 13.1771 2.61329C13.1806 2.61452 13.1838 2.61568 13.1867 2.61677C13.7029 2.99586 14.4485 2.94622 14.9028 2.48495C15.3842 1.99612 15.3562 1.23012 14.8402 0.774032C14.5884 0.551491 14.2908 0.423094 14.0726 0.345756C13.8324 0.26061 13.5673 0.19597 13.2965 0.146752Z" fill="white"/>
</g>
</svg>
