<svg width="32" height="33" viewBox="0 0 32 33" fill="none" xmlns="http://www.w3.org/2000/svg">
<path id="Vector" d="M16 2.82861L17.4142 1.4144L16 0.000186205L14.5858 1.4144L16 2.82861ZM14 20.8286C14 21.9332 14.8954 22.8286 16 22.8286C17.1046 22.8286 18 21.9332 18 20.8286H14ZM6 30.8286L6 28.8286H6V30.8286ZM26 30.8286V32.8286V30.8286ZM7.41421 14.2428L17.4142 4.24283L14.5858 1.4144L4.58579 11.4144L7.41421 14.2428ZM14.5858 4.24283L24.5858 14.2428L27.4142 11.4144L17.4142 1.4144L14.5858 4.24283ZM14 2.82861L14 20.8286H18V2.82861L14 2.82861ZM6 32.8286L26 32.8286V28.8286L6 28.8286L6 32.8286ZM4 26.8286V24.8286H0V26.8286H4ZM32 26.8286V24.8286H28V26.8286H32ZM26 32.8286C29.3137 32.8286 32 30.1423 32 26.8286H28C28 27.9332 27.1046 28.8286 26 28.8286V32.8286ZM6 28.8286C4.89543 28.8286 4 27.9332 4 26.8286H0C0 30.1423 2.68629 32.8286 6 32.8286V28.8286Z" fill="black"/>
</svg>
