<svg width="34" height="33" viewBox="0 0 34 33" fill="none" xmlns="http://www.w3.org/2000/svg">
<path id="Vector" d="M27.2 24.255V27.225C27.2 27.445 27.285 27.6375 27.455 27.8025C27.625 27.9675 27.8233 28.05 28.05 28.05C28.2767 28.05 28.475 27.9675 28.645 27.8025C28.815 27.6375 28.9 27.445 28.9 27.225V22.275C28.9 22.055 28.815 21.8625 28.645 21.6975C28.475 21.5325 28.2767 21.45 28.05 21.45H22.95C22.7233 21.45 22.525 21.5325 22.355 21.6975C22.185 21.8625 22.1 22.055 22.1 22.275C22.1 22.495 22.185 22.6875 22.355 22.8525C22.525 23.0175 22.7233 23.1 22.95 23.1H26.01L21.845 27.1425C21.675 27.3075 21.59 27.5 21.59 27.72C21.59 27.94 21.675 28.1325 21.845 28.2975C22.015 28.4625 22.2133 28.545 22.44 28.545C22.6667 28.545 22.865 28.4625 23.035 28.2975L27.2 24.255ZM3.4 29.7C2.465 29.7 1.66487 29.3771 0.9996 28.7314C0.334333 28.0857 0.00113333 27.3086 0 26.4V3.3C0 2.3925 0.3332 1.6159 0.9996 0.9702C1.666 0.3245 2.46613 0.0011 3.4 0H27.2C28.135 0 28.9357 0.3234 29.6021 0.9702C30.2685 1.617 30.6011 2.3936 30.6 3.3V11.55C30.6 12.0175 30.4368 12.4096 30.1104 12.7264C29.784 13.0432 29.3805 13.2011 28.9 13.2C28.4195 13.1989 28.016 13.0405 27.6896 12.7248C27.3632 12.4091 27.2 12.0175 27.2 11.55V3.3H3.4V26.4H11.9C12.3817 26.4 12.7857 26.5584 13.1121 26.8752C13.4385 27.192 13.6011 27.5836 13.6 28.05C13.5989 28.5164 13.4357 28.9085 13.1104 29.2264C12.7851 29.5443 12.3817 29.7022 11.9 29.7H3.4ZM3.4 24.75V26.4V3.3V13.3237V13.2V24.75ZM6.8 21.45C6.8 21.9175 6.9632 22.3096 7.2896 22.6264C7.616 22.9432 8.01946 23.1011 8.5 23.1H12.0275C12.5092 23.1 12.9132 22.9416 13.2396 22.6248C13.566 22.308 13.7286 21.9164 13.7275 21.45C13.7264 20.9836 13.5637 20.592 13.2396 20.2752C12.9155 19.9584 12.5114 19.8 12.0275 19.8H8.5C8.01833 19.8 7.61486 19.9584 7.2896 20.2752C6.96433 20.592 6.80113 20.9836 6.8 21.45ZM6.8 14.85C6.8 15.3175 6.9632 15.7096 7.2896 16.0264C7.616 16.3432 8.01946 16.5011 8.5 16.5H17C17.4817 16.5 17.8857 16.3416 18.2121 16.0248C18.5385 15.708 18.7011 15.3164 18.7 14.85C18.6989 14.3836 18.5357 13.992 18.2104 13.6752C17.8851 13.3584 17.4817 13.2 17 13.2H8.5C8.01833 13.2 7.61486 13.3584 7.2896 13.6752C6.96433 13.992 6.80113 14.3836 6.8 14.85ZM6.8 8.25C6.8 8.7175 6.9632 9.10965 7.2896 9.42645C7.616 9.74325 8.01946 9.9011 8.5 9.9H22.1C22.5817 9.9 22.9857 9.7416 23.3121 9.4248C23.6385 9.108 23.8011 8.7164 23.8 8.25C23.7989 7.7836 23.6357 7.392 23.3104 7.0752C22.9851 6.7584 22.5817 6.6 22.1 6.6H8.5C8.01833 6.6 7.61486 6.7584 7.2896 7.0752C6.96433 7.392 6.80113 7.7836 6.8 8.25ZM25.5 33C23.1483 33 21.144 32.1953 19.4871 30.586C17.8302 28.9767 17.0011 27.0314 17 24.75C16.9989 22.4686 17.8279 20.5232 19.4871 18.9139C21.1463 17.3046 23.1506 16.5 25.5 16.5C27.8494 16.5 29.8543 17.3046 31.5146 18.9139C33.1749 20.5232 34.0034 22.4686 34 24.75C33.9966 27.0314 33.1676 28.9773 31.5129 30.5877C29.8582 32.1981 27.8539 33.0022 25.5 33Z" fill="black"/>
</svg>
