<svg width="39" height="32" viewBox="0 0 39 32" fill="none" xmlns="http://www.w3.org/2000/svg">
<g id="Vector">
<path fill-rule="evenodd" clip-rule="evenodd" d="M31.7252 6.97004C30.8456 6.46394 29.8003 6.32679 28.8192 6.58877C27.8382 6.85075 27.0017 7.49039 26.4939 8.36698C25.9861 9.24357 25.8484 10.2853 26.1113 11.263C26.3742 12.2407 27.016 13.0743 27.8956 13.5804C28.7752 14.0865 29.8205 14.2237 30.8016 13.9617C31.7826 13.6997 32.6191 13.0601 33.1269 12.1835C33.6347 11.3069 33.7723 10.2652 33.5095 9.28744C33.2466 8.30974 32.6048 7.47614 31.7252 6.97004ZM28.2093 4.32018C29.7941 3.89699 31.4826 4.11853 32.9035 4.93608C34.3244 5.75362 35.3612 7.1002 35.7858 8.67958C36.2105 10.259 35.9882 11.9418 35.1678 13.3578C34.3475 14.7738 32.9963 15.8071 31.4115 16.2303C29.8267 16.6535 28.1382 16.4319 26.7173 15.6144C25.2964 14.7968 24.2596 13.4503 23.835 11.8709C23.4103 10.2915 23.6326 8.6087 24.453 7.19267C25.2733 5.77664 26.6245 4.74337 28.2093 4.32018Z" fill="black"/>
<path fill-rule="evenodd" clip-rule="evenodd" d="M11.1044 6.97004C10.2248 6.46394 9.1795 6.32679 8.19844 6.58877C7.21738 6.85075 6.38094 7.49039 5.8731 8.36698C5.36527 9.24357 5.22766 10.2853 5.49053 11.263C5.7534 12.2407 6.39523 13.0743 7.27482 13.5804C8.15441 14.0865 9.19971 14.2237 10.1808 13.9617C11.1618 13.6997 11.9983 13.0601 12.5061 12.1835C13.0139 11.3069 13.1516 10.2652 12.8887 9.28744C12.6258 8.30974 11.984 7.47614 11.1044 6.97004ZM7.58849 4.32018C9.17328 3.89699 10.8618 4.11853 12.2827 4.93608C13.7036 5.75362 14.7404 7.1002 15.165 8.67958C15.5897 10.259 15.3674 11.9418 14.547 13.3578C13.7267 14.7738 12.3755 15.8071 10.7907 16.2303C9.20593 16.6535 7.51737 16.4319 6.09649 15.6144C4.67562 14.7968 3.63882 13.4503 3.21417 11.8709C2.78953 10.2915 3.01184 8.6087 3.83218 7.19267C4.65252 5.77664 6.00371 4.74337 7.58849 4.32018Z" fill="black"/>
<path fill-rule="evenodd" clip-rule="evenodd" d="M27.3548 22.1578C29.1413 23.8225 30.0417 25.922 30.4981 27.5963H36.5922C36.2836 26.5326 35.7073 25.0906 34.6889 23.9059C33.6428 22.689 32.1211 21.7248 29.8104 21.7248C28.8608 21.7248 28.0505 21.8872 27.3548 22.1578ZM24.5216 21.0755C25.869 20.0555 27.6106 19.3761 29.8104 19.3761C32.9009 19.3761 35.048 20.7138 36.4786 22.3779C37.8772 24.0049 38.5791 25.9227 38.9177 27.1627C39.3334 28.6851 38.1088 29.945 36.7239 29.945H28.6016L28.4112 29.0025C28.0326 27.1292 27.0594 24.5248 24.612 23.0078L23.1587 22.1071L24.5216 21.0755Z" fill="black"/>
<path fill-rule="evenodd" clip-rule="evenodd" d="M2.40782 27.5963H8.50182C8.95829 25.922 9.85867 23.8225 11.6452 22.1578C10.9495 21.8872 10.1392 21.7248 9.18963 21.7248C6.87896 21.7248 5.35723 22.689 4.3111 23.9059C3.29271 25.0906 2.71636 26.5326 2.40782 27.5963ZM2.52142 22.3779C3.95202 20.7137 6.09916 19.3761 9.18963 19.3761C11.3894 19.3761 13.131 20.0555 14.4784 21.0755L15.8413 22.1071L14.388 23.0078C11.9406 24.5247 10.9674 27.1292 10.5888 29.0025L10.3983 29.945H2.27608C0.891197 29.945 -0.333358 28.6851 0.0823063 27.1627C0.420902 25.9226 1.1228 24.0049 2.52142 22.3779Z" fill="black"/>
<path fill-rule="evenodd" clip-rule="evenodd" d="M10.4756 29.6514H28.5244C28.3388 28.3894 27.8493 26.4451 26.5932 24.8094C25.3269 23.1605 23.2094 21.7248 19.5 21.7248C15.7906 21.7248 13.6731 23.1605 12.4068 24.8094C11.1507 26.4451 10.6612 28.3894 10.4756 29.6514ZM10.5354 23.382C12.2501 21.1492 15.0611 19.3761 19.5 19.3761C23.9389 19.3761 26.7499 21.1492 28.4646 23.382C30.1341 25.5559 30.6919 28.0663 30.8834 29.5052C31.0743 30.9387 29.9042 32 28.6321 32H10.3679C9.09576 32 7.92574 30.9387 8.11659 29.5052C8.30814 28.0663 8.86588 25.5559 10.5354 23.382Z" fill="black"/>
<path fill-rule="evenodd" clip-rule="evenodd" d="M19.5 14.0917C22.7539 14.0917 25.3917 11.463 25.3917 8.22018C25.3917 4.97741 22.7539 2.34862 19.5 2.34862C16.2461 2.34862 13.6083 4.97741 13.6083 8.22018C13.6083 11.463 16.2461 14.0917 19.5 14.0917ZM19.5 16.4404C24.0554 16.4404 27.7483 12.7601 27.7483 8.22018C27.7483 3.6803 24.0554 0 19.5 0C14.9446 0 11.2517 3.6803 11.2517 8.22018C11.2517 12.7601 14.9446 16.4404 19.5 16.4404Z" fill="black"/>
</g>
</svg>
