<svg width="34" height="33" viewBox="0 0 34 33" fill="none" xmlns="http://www.w3.org/2000/svg">
<g id="Vector">
<path d="M3.35217 30.0067C2.43032 30.0067 1.64144 29.6805 0.985537 29.0281C0.32963 28.3757 0.00111739 27.5906 0 26.6726V3.33407C0 2.4172 0.328512 1.63258 0.985537 0.980215C1.64256 0.327848 2.43144 0.00111136 3.35217 0H26.8173C27.7392 0 28.5286 0.326737 29.1856 0.980215C29.8427 1.63369 30.1706 2.41831 30.1695 3.33407V11.6693C30.1695 12.1416 30.0086 12.5378 29.6868 12.8579C29.365 13.1779 28.9672 13.3374 28.4934 13.3363C28.0196 13.3352 27.6218 13.1751 27.3 12.8562C26.9782 12.5372 26.8173 12.1416 26.8173 11.6693V3.33407H3.35217V26.6726H11.7326C12.2075 26.6726 12.6058 26.8326 12.9276 27.1527C13.2494 27.4728 13.4098 27.8684 13.4087 28.3396C13.4075 28.8108 13.2466 29.207 12.9259 29.5282C12.6053 29.8494 12.2075 30.0089 11.7326 30.0067H3.35217ZM3.35217 26.6726V3.33407V13.4613V13.3363V26.6726ZM6.70433 21.6715C6.70433 22.1438 6.86523 22.54 7.18704 22.8601C7.50885 23.1801 7.90664 23.3396 8.38041 23.3385H11.8583C12.3332 23.3385 12.7315 23.1785 13.0533 22.8584C13.3751 22.5383 13.5355 22.1427 13.5344 21.6715C13.5332 21.2003 13.3729 20.8046 13.0533 20.4845C12.7338 20.1645 12.3354 20.0044 11.8583 20.0044H8.38041C7.90552 20.0044 7.50773 20.1645 7.18704 20.4845C6.86635 20.8046 6.70545 21.2003 6.70433 21.6715ZM6.70433 15.0033C6.70433 15.4757 6.86523 15.8719 7.18704 16.1919C7.50885 16.512 7.90664 16.6715 8.38041 16.6704H16.7608C17.2357 16.6704 17.6341 16.5103 17.9559 16.1903C18.2777 15.8702 18.438 15.4745 18.4369 15.0033C18.4358 14.5321 18.2749 14.1365 17.9542 13.8164C17.6335 13.4963 17.2357 13.3363 16.7608 13.3363H8.38041C7.90552 13.3363 7.50773 13.4963 7.18704 13.8164C6.86635 14.1365 6.70545 14.5321 6.70433 15.0033ZM6.70433 8.33518C6.70433 8.80751 6.86523 9.20371 7.18704 9.52378C7.50885 9.84385 7.90664 10.0033 8.38041 10.0022H21.7891C22.264 10.0022 22.6623 9.84219 22.9841 9.52211C23.3059 9.20204 23.4663 8.8064 23.4652 8.33518C23.464 7.86397 23.3031 7.46833 22.9824 7.14825C22.6618 6.82818 22.264 6.66815 21.7891 6.66815H8.38041C7.90552 6.66815 7.50773 6.82818 7.18704 7.14825C6.86635 7.46833 6.70545 7.86397 6.70433 8.33518Z" fill="black"/>
<path d="M23.9435 25.1649V22.1643C23.9435 21.942 23.8597 21.7475 23.6921 21.5808C23.5245 21.4141 23.3289 21.3307 23.1055 21.3307C22.882 21.3307 22.6864 21.4141 22.5188 21.5808C22.3512 21.7475 22.2674 21.942 22.2674 22.1643V27.1654C22.2674 27.3876 22.3512 27.5821 22.5188 27.7488C22.6864 27.9155 22.882 27.9989 23.1055 27.9989H28.1337C28.3572 27.9989 28.5527 27.9155 28.7203 27.7488C28.8879 27.5821 28.9718 27.3876 28.9718 27.1654C28.9718 26.9431 28.8879 26.7486 28.7203 26.5819C28.5527 26.4152 28.3572 26.3319 28.1337 26.3319H25.1168L29.2232 22.2476C29.3908 22.0809 29.4746 21.8864 29.4746 21.6641C29.4746 21.4419 29.3908 21.2474 29.2232 21.0807C29.0556 20.914 28.86 20.8306 28.6365 20.8306C28.4131 20.8306 28.2175 20.914 28.0499 21.0807L23.9435 25.1649ZM25.6196 16.3296C27.9382 16.3296 29.9143 17.1426 31.5479 18.7685C33.1815 20.3944 33.9989 22.3599 34 24.6648C34.0011 26.9698 33.1837 28.9352 31.5479 30.5611C29.912 32.187 27.9359 33 25.6196 33C23.3032 33 21.3266 32.187 19.6896 30.5611C18.0526 28.9352 17.2358 26.9698 17.2392 24.6648C17.2425 22.3599 18.0599 20.3939 19.6913 18.7668C21.3227 17.1398 23.2988 16.3274 25.6196 16.3296Z" fill="black"/>
</g>
</svg>
