<svg width="32" height="32" viewBox="0 0 32 32" fill="none" xmlns="http://www.w3.org/2000/svg">
<path id="Vector" d="M16 20L14.5858 21.4142L16 22.8284L17.4142 21.4142L16 20ZM18 2C18 0.895431 17.1046 0 16 0C14.8954 0 14 0.89543 14 2L18 2ZM6 30L6 28H6V30ZM26 30V32V30ZM4.58579 11.4142L14.5858 21.4142L17.4142 18.5858L7.41421 8.58578L4.58579 11.4142ZM17.4142 21.4142L27.4142 11.4142L24.5858 8.58579L14.5858 18.5858L17.4142 21.4142ZM18 20V2L14 2L14 20H18ZM6 32L26 32V28L6 28L6 32ZM4 26V24H0V26H4ZM32 26V24H28V26H32ZM26 32C29.3137 32 32 29.3137 32 26H28C28 27.1046 27.1046 28 26 28V32ZM6 28C4.89543 28 4 27.1046 4 26H0C0 29.3137 2.68629 32 6 32V28Z" fill="black"/>
</svg>
