<svg width="81" height="80" viewBox="0 0 81 80" fill="none" xmlns="http://www.w3.org/2000/svg">
<g id="heroicons-outline/question-mark-circle">
<path id="Vector" d="M33.3413 25.0624C37.2954 21.6454 43.7062 21.6454 47.6602 25.0624C51.6143 28.4795 51.6143 34.0197 47.6602 37.4368C46.972 38.0316 46.2094 38.5228 45.3982 38.9105C42.8815 40.1135 40.5008 42.2382 40.5008 44.9996V47.4996M70.875 39.9996C70.875 56.5682 57.2756 69.9996 40.5 69.9996C23.7244 69.9996 10.125 56.5682 10.125 39.9996C10.125 23.4311 23.7244 9.99963 40.5 9.99963C57.2756 9.99963 70.875 23.4311 70.875 39.9996ZM40.5 57.4996H40.5253V57.5246H40.5V57.4996Z" stroke="#39637C" stroke-width="6" stroke-linecap="round" stroke-linejoin="round"/>
</g>
</svg>
