<svg width="84" height="80" viewBox="0 0 84 80" fill="none" xmlns="http://www.w3.org/2000/svg">
<g id="heroicons-outline/newspaper">
<path id="Vector" d="M42 25H47.25M42 35H47.25M21 45H47.25M21 55H47.25M57.75 25H69.5625C71.7371 25 73.5 26.6789 73.5 28.75V60C73.5 64.1421 69.9742 67.5 65.625 67.5M57.75 25V60C57.75 64.1421 61.2758 67.5 65.625 67.5M57.75 25V16.25C57.75 14.1789 55.9871 12.5 53.8125 12.5H14.4375C12.2629 12.5 10.5 14.1789 10.5 16.25V60C10.5 64.1421 14.0258 67.5 18.375 67.5H65.625M21 25H31.5V35H21V25Z" stroke="#39637C" stroke-width="6" stroke-linecap="round" stroke-linejoin="round"/>
</g>
</svg>
