<svg width="80" height="80" viewBox="0 0 80 80" fill="none" xmlns="http://www.w3.org/2000/svg">
<g id="heroicons-outline/light-bulb">
<path id="Vector" d="M40 60V42.5M40 42.5C41.7265 42.5 43.4019 42.2814 45 41.8701M40 42.5C38.2735 42.5 36.5981 42.2814 35 41.8701M47.5 66.7981C45.0706 67.2589 42.5635 67.5001 40 67.5001C37.4365 67.5001 34.9294 67.2589 32.5 66.7981M45 74.74C43.3568 74.9119 41.6887 75 40 75C38.3113 75 36.6432 74.9119 35 74.74M47.5 60V59.3611C47.5 56.0847 49.6942 53.2834 52.5282 51.6391C59.9851 47.3125 65 39.2419 65 30C65 16.1929 53.8071 5 40 5C26.1929 5 15 16.1929 15 30C15 39.2419 20.0149 47.3125 27.4718 51.6391C30.3058 53.2834 32.5 56.0847 32.5 59.3611V60" stroke="#39637C" stroke-width="6" stroke-linecap="round" stroke-linejoin="round"/>
</g>
</svg>
