<svg width="42" height="33" viewBox="0 0 42 33" fill="none" xmlns="http://www.w3.org/2000/svg">
<g id="heroicons-outline/cloud">
<path id="Union" d="M3.9375 20.625C3.9375 24.0423 7.46326 26.8125 11.8125 26.8125H31.5C35.1244 26.8125 38.0625 24.504 38.0625 21.6562C38.0625 19.4534 36.3043 17.5731 33.8304 16.8346C34.0212 16.4071 34.125 15.9474 34.125 15.4688C34.125 13.1906 31.7745 11.3438 28.875 11.3438C28.3093 11.3438 27.7645 11.4141 27.2539 11.5442C26.2088 8.45983 22.6297 6.1875 18.375 6.1875C13.3009 6.1875 9.1875 9.41944 9.1875 13.4062C9.1875 13.8644 9.24183 14.3127 9.3457 14.7471C6.20472 15.5605 3.9375 17.8847 3.9375 20.625Z" stroke="black" stroke-width="6" stroke-linecap="round" stroke-linejoin="round"/>
</g>
</svg>
