<?xml version="1.0" encoding="UTF-8"?>
<svg width="24" height="24" viewBox="0 0 24 24" fill="none" xmlns="http://www.w3.org/2000/svg">
  <path d="M3 3L21 21" stroke="#444" stroke-width="2" stroke-linecap="round"/>
  <path d="M5 7C3.7 8.3 2.8 10 2.5 12C3.8 16.5 8 20 13 20C14.9 20 16.7 19.5 18.3 18.6" stroke="#444" stroke-width="2" stroke-linecap="round" stroke-linejoin="round"/>
  <path d="M21.5 12C20.9 9.9 19.6 8.1 17.9 6.8C16.2 5.5 14.1 4.8 12 4.8C10.5 4.8 9 5.1 7.7 5.7" stroke="#444" stroke-width="2" stroke-linecap="round" stroke-linejoin="round"/>
  <path d="M9.5 9.5C9.1 9.9 8.8 10.4 8.6 11C8.4 11.6 8.4 12.2 8.6 12.8C8.8 13.4 9.1 13.9 9.5 14.3C9.9 14.7 10.4 15 11 15.2C11.6 15.4 12.2 15.4 12.8 15.2C13.4 15 13.9 14.7 14.3 14.3C14.7 13.9 15 13.4 15.2 12.8C15.4 12.2 15.4 11.6 15.2 11" stroke="#444" stroke-width="2" stroke-linecap="round" stroke-linejoin="round"/>
</svg>
