<svg width="83" height="80" viewBox="0 0 83 80" fill="none" xmlns="http://www.w3.org/2000/svg">
<g id="heroicons-outline/user-group">
<path id="Vector" d="M62.2492 62.3971C63.1052 62.4653 63.9709 62.5 64.8451 62.5C68.4706 62.5 71.9513 61.9025 75.1871 60.8042C75.209 60.5389 75.2201 60.2707 75.2201 60C75.2201 54.4772 70.5751 50 64.8451 50C62.6746 50 60.6598 50.6424 58.9941 51.7408M62.2492 62.3971C62.2494 62.4314 62.2494 62.4657 62.2494 62.5C62.2494 63.25 62.2066 63.9903 62.1232 64.7188C56.0477 68.0789 49.0063 70 41.4994 70C33.9925 70 26.9512 68.0788 20.8757 64.7188C20.7922 63.9903 20.7494 63.25 20.7494 62.5C20.7494 62.4658 20.7495 62.4316 20.7497 62.3975M62.2492 62.3971C62.2287 58.4753 61.0371 54.8204 58.9941 51.7408M58.9941 51.7408C55.3079 46.1839 48.85 42.5 41.4994 42.5C34.1497 42.5 27.6926 46.183 24.0061 51.7387M24.0061 51.7387C22.341 50.6416 20.3274 50 18.1582 50C12.4282 50 7.7832 54.4772 7.7832 60C7.7832 60.2707 7.79436 60.5389 7.81626 60.8042C11.052 61.9025 14.5327 62.5 18.1582 62.5C19.0309 62.5 19.8952 62.4654 20.7497 62.3975M24.0061 51.7387C21.9623 54.8189 20.7701 58.4746 20.7497 62.3975M51.8744 22.5C51.8744 28.0228 47.2294 32.5 41.4994 32.5C35.7695 32.5 31.1244 28.0228 31.1244 22.5C31.1244 16.9772 35.7695 12.5 41.4994 12.5C47.2294 12.5 51.8744 16.9772 51.8744 22.5ZM72.6244 32.5C72.6244 36.6421 69.1406 40 64.8432 40C60.5457 40 57.0619 36.6421 57.0619 32.5C57.0619 28.3579 60.5457 25 64.8432 25C69.1406 25 72.6244 28.3579 72.6244 32.5ZM25.9369 32.5C25.9369 36.6421 22.4531 40 18.1557 40C13.8582 40 10.3744 36.6421 10.3744 32.5C10.3744 28.3579 13.8582 25 18.1557 25C22.4531 25 25.9369 28.3579 25.9369 32.5Z" stroke="#39637C" stroke-width="6" stroke-linecap="round" stroke-linejoin="round"/>
</g>
</svg>
