<svg width="689" height="439" viewBox="0 0 689 439" fill="none" xmlns="http://www.w3.org/2000/svg">
<g id="Frame 77">
<path id="Vector" d="M688.614 33.1672C684.483 40.7518 679.003 47.628 671.851 53.2905C669.809 54.9105 667.683 56.3379 665.521 57.6818C667.053 56.6035 668.553 55.4523 670.017 54.2281C677.341 48.1021 682.832 40.6424 686.864 32.4275L686.39 32.2295C682.394 40.3716 676.945 47.7635 669.689 53.8322C667.282 55.8482 664.75 57.6193 662.156 59.2498C664.11 57.859 666.032 56.3952 667.865 54.7699C674.955 48.4876 680.566 40.5591 684.603 31.4742L684.124 31.271C680.284 39.9757 674.862 47.8833 667.527 54.3792C664.589 56.9786 661.484 59.255 658.249 61.271C660.823 59.4478 663.344 57.5204 665.709 55.3012C672.528 48.9095 677.945 40.9498 681.79 31.844C681.972 31.4117 682.108 30.9376 682.285 30.4949L681.967 30.3594C678.279 39.4964 672.866 47.8885 665.365 54.9262C662.526 57.5881 659.505 59.9166 656.358 62.0159C658.843 60.1198 661.265 58.1142 663.557 55.8326C669.871 49.5554 674.862 42.0594 678.451 33.5475C679.003 32.2399 679.435 30.8491 679.92 29.4947L679.545 29.3384C676.07 39.0432 670.731 47.977 663.193 55.4679C660.343 58.307 657.301 60.7657 654.16 63.0109C656.671 60.9793 659.104 58.7966 661.406 56.3639C667.115 50.3316 671.679 43.2523 675.033 35.2978C675.961 33.0995 676.758 30.8022 677.497 28.4737L676.971 28.2497C673.726 38.5327 668.569 48.05 661.031 56.0149C658.218 58.9946 655.197 61.5679 652.066 63.9486C654.572 61.7919 656.978 59.4634 659.255 56.9005C664.365 51.1495 668.501 44.5181 671.621 37.1314C672.929 34.0267 674.002 30.7553 674.945 27.3954L674.539 27.2235C671.491 37.9909 666.449 48.0448 658.864 56.5619C656.03 59.7551 652.946 62.516 649.763 65.0738C649.758 65.0738 649.758 65.0738 649.753 65.079C652.321 62.74 654.785 60.2135 657.103 57.4318C661.625 52.0038 665.339 45.8465 668.199 39.0693C669.902 35.0373 671.194 30.7189 672.288 26.2754L671.84 26.0878C669.074 37.4388 664.219 48.0812 656.707 57.0984C654.108 60.224 651.29 62.9744 648.367 65.5374C648.294 65.5582 648.227 65.5843 648.154 65.6051C650.534 63.2557 652.806 60.7188 654.952 57.9684C658.895 52.9102 662.177 47.2582 664.776 41.1113C666.881 36.126 668.449 30.7553 669.631 25.1554L669.137 24.947C666.662 36.8814 661.984 48.1125 654.54 57.6454C652.154 60.7136 649.571 63.4537 646.888 66.027C646.747 66.0687 646.612 66.1208 646.476 66.1573C648.69 63.7819 650.805 61.2398 652.8 58.4997C656.176 53.8635 659.031 48.7689 661.349 43.2783C663.87 37.3033 665.751 30.8595 666.975 24.0302L666.402 23.7906C664.078 36.673 659.437 48.5032 652.378 58.1976C650.222 61.172 647.893 63.8808 645.471 66.4229C645.268 66.4802 645.059 66.5271 644.856 66.5844C646.883 64.2142 648.826 61.719 650.644 59.0258C653.462 54.8741 655.895 50.3733 657.916 45.586C660.864 38.5952 662.859 30.9168 664.063 22.8008L663.526 22.5768C661.536 36.0739 657.14 48.5292 650.222 58.7393C648.274 61.62 646.19 64.2976 644.002 66.8084C643.736 66.8814 643.471 66.9491 643.2 67.0168C645.044 64.657 646.825 62.2035 648.482 59.5624C650.758 55.9472 652.759 52.0923 654.478 48.0239C657.874 39.9861 660.015 31.0418 661.14 21.5662L660.786 21.4204C659.661 30.7762 657.426 39.7048 653.993 47.8312C652.295 51.8527 650.316 55.6919 648.055 59.2863C646.289 62.0941 644.408 64.7299 642.429 67.22C642.127 67.2981 641.825 67.3867 641.522 67.4596C643.2 65.1102 644.83 62.6879 646.341 60.0885C648.055 57.1297 649.597 54.0302 650.962 50.8005C654.874 41.5332 657.306 31.2189 658.296 20.3681L657.822 20.1702C656.504 34.7768 652.54 48.4094 645.888 59.8281C644.289 62.5837 642.575 65.1623 640.788 67.6367C640.481 67.7096 640.168 67.7565 639.861 67.8242C641.361 65.5113 642.83 63.1515 644.184 60.6251C645.414 58.3174 646.544 55.9472 647.586 53.4884C651.93 43.1898 654.519 31.5523 655.301 19.1023L654.691 18.847C653.926 31.2658 651.404 43.0804 647.003 53.5093C646.008 55.869 644.914 58.1715 643.726 60.375C642.304 63.0422 640.762 65.5374 639.173 67.9649C638.845 68.0326 638.511 68.0951 638.178 68.1628C639.512 65.8968 640.83 63.61 642.028 61.1512C642.767 59.6509 643.465 58.1246 644.127 56.5619C649.045 44.9036 651.738 31.6878 652.269 17.826L651.769 17.6124C651.258 31.4846 648.571 44.7056 643.648 56.3639C642.997 57.9111 642.299 59.4322 641.564 60.9272C640.303 63.511 638.923 65.9229 637.516 68.2983C637.157 68.366 636.803 68.4493 636.443 68.5118C637.626 66.2875 638.814 64.0632 639.876 61.6825C640.142 61.0939 640.397 60.5 640.652 59.8958C646.107 46.9717 648.841 32.0628 649.029 16.456L648.518 16.2424C648.357 31.8545 645.633 46.7737 640.178 59.6978C639.923 60.2917 639.668 60.8855 639.407 61.469C638.293 63.9694 637.053 66.3136 635.803 68.6421C635.438 68.7098 635.068 68.7671 634.698 68.8244C635.48 67.1887 636.303 65.6103 637.027 63.9017C637.261 63.3443 637.49 62.7817 637.725 62.2139C643.346 48.3469 646.101 32.2139 645.883 15.1276L645.445 14.9453C645.664 31.7451 642.976 47.8937 637.246 62.0211C637.016 62.5889 636.787 63.1463 636.548 63.6985C635.787 65.5113 634.917 67.1887 634.089 68.9182C633.75 68.9703 633.406 69.0171 633.063 69.0692C633.104 68.9703 633.156 68.8817 633.198 68.7827C634.026 66.8136 634.823 64.8029 635.568 62.7452C640.955 47.9823 643.267 31.1564 642.648 13.7628L642.116 13.5388C642.767 30.9533 640.47 47.7947 635.084 62.5681C634.308 64.6987 633.495 66.7668 632.646 68.7879C632.589 68.913 632.526 69.0276 632.474 69.1578C632.031 69.2203 631.588 69.2932 631.146 69.3505C631.906 67.3346 632.724 65.3811 633.412 63.2766C638.376 47.9927 640.371 30.4949 639.308 12.3563L638.699 12.0958C639.788 30.1198 637.933 47.6749 632.917 63.1151C632.214 65.2978 631.39 67.345 630.599 69.4339C630.208 69.486 629.812 69.5485 629.421 69.5954C630.046 67.6732 630.698 65.7614 631.255 63.8027C635.922 47.4822 637.402 29.3697 635.928 10.929L635.396 10.6998C636.902 29.1769 635.433 47.3155 630.76 63.6621C630.182 65.6832 629.526 67.6627 628.874 69.6475C628.426 69.6996 627.973 69.736 627.525 69.7829C628.036 67.9649 628.64 66.1781 629.093 64.3393C633.323 47.3051 634.318 28.4685 632.396 9.43392L631.865 9.20993C633.823 28.2809 632.833 47.154 628.604 64.209C628.135 66.1 627.583 67.9649 627.051 69.8298C626.619 69.8767 626.181 69.9236 625.744 69.9652C626.15 68.267 626.582 66.5792 626.947 64.8602C630.745 46.8571 631.385 27.4683 629.036 8.01701L628.489 7.78781C630.875 27.2808 630.25 46.7216 626.442 64.7612C626.072 66.5271 625.624 68.267 625.202 70.0173C624.738 70.059 624.28 70.1163 623.816 70.1528C624.134 68.5639 624.509 66.9908 624.79 65.3967C628.077 46.6174 628.171 26.4942 625.358 6.46466L624.801 6.23024C627.645 26.3066 627.577 46.4872 624.28 65.3082C623.999 66.9387 623.639 68.5587 623.311 70.184C622.837 70.2153 622.358 70.2361 621.884 70.2674C622.118 68.814 622.436 67.3814 622.639 65.9229C625.421 46.0809 625.02 25.395 621.769 4.94877L621.201 4.70915C624.488 25.2075 624.91 45.9559 622.123 65.8551C621.915 67.3398 621.639 68.814 621.399 70.2934C620.904 70.3247 620.409 70.3559 619.909 70.382C620.071 69.0692 620.336 67.7669 620.477 66.4542C622.67 45.784 621.722 24.3636 618.024 3.36517L617.451 3.12554C621.191 24.1813 622.165 45.6694 619.967 66.4021C619.826 67.7409 619.555 69.0744 619.388 70.4132C618.92 70.4341 618.456 70.4705 617.992 70.4914C618.091 69.3193 618.232 68.1576 618.315 66.9855C619.904 45.1536 618.472 23.1967 614.341 1.81281L613.773 1.57319C617.945 23.0196 619.399 45.0442 617.8 66.9491C617.716 68.1316 617.576 69.3141 617.471 70.5018C616.956 70.5174 616.44 70.5226 615.924 70.5382C617.138 46.7268 615.263 23.0509 610.522 0.20316L610.038 0C614.929 23.1759 616.794 46.93 615.596 70.5434C604.766 70.8039 593.847 70.0538 583.408 68.9703C580.6 68.6785 577.777 68.3712 574.943 68.0639C546.881 65.006 517.871 61.844 492.049 72.7678C451.792 89.7968 432.71 135.346 421.854 168.123C420.078 173.483 418.328 178.994 416.624 184.334C405.992 217.798 394.975 252.413 370.314 277.183C342.58 305.037 299.385 318.789 238.27 319.232C226.998 319.31 215.475 319.055 204.332 318.816C168.446 318.024 131.335 317.211 96.5323 327.359C73.57 334.053 44.0441 352.504 21.3214 374.367C12.8564 382.498 5.82392 390.672 0 398.751L0.484458 398.954C6.27713 390.937 13.2679 382.821 21.6756 374.737C44.3514 352.931 73.7836 334.527 96.673 327.854C131.403 317.727 168.472 318.539 204.322 319.326C205.108 319.342 205.916 319.357 206.708 319.373C170.321 319.029 132.768 318.816 97.7669 329.87C78.1073 336.084 53.8166 350.759 32.7869 369.132C21.0766 379.357 11.278 389.87 3.60479 400.272L4.09446 400.475C11.7364 390.14 21.4777 379.696 33.1255 369.517C54.1031 351.191 78.326 336.553 97.9284 330.359C132.966 319.295 170.608 319.545 207.067 319.894C170.795 319.993 133.544 320.618 99.0119 332.38C79.6336 338.975 55.6867 353.915 34.9644 372.34C24.0354 382.05 14.8463 392.005 7.40753 401.877L7.88678 402.08C15.2943 392.271 24.4365 382.379 35.3082 372.726C55.9784 354.343 79.8576 339.439 99.1786 332.865C133.487 321.186 170.514 320.514 206.598 320.41C172.519 320.915 134.831 322.238 100.247 334.886C81.1442 341.872 57.5516 357.072 37.1366 375.549C26.9734 384.738 18.3626 394.136 11.1894 403.471L11.6739 403.679C18.8158 394.407 27.3745 385.067 37.4752 375.935C57.8538 357.499 81.3839 342.335 100.424 335.37C135.31 322.608 173.405 321.399 207.739 320.904C169.43 321.967 134.711 324.384 101.481 337.392C82.3788 344.883 59.7135 359.963 39.3089 378.763C29.8958 387.426 21.8371 396.266 14.9609 405.065L15.4506 405.273C22.2903 396.532 30.3021 387.749 39.6527 379.138C60.0208 360.385 82.6237 345.341 101.674 337.876C134.555 324.999 168.941 322.525 206.827 321.446C172.191 322.863 136.05 325.973 102.726 339.908C83.9312 347.768 61.6096 363.099 41.4863 381.972C34.8967 388.145 26.5358 396.652 18.5865 406.596L19.0762 406.805C26.9786 396.933 35.2874 388.484 41.8354 382.347C61.917 363.516 84.1864 348.222 102.924 340.382C136.659 326.27 173.342 323.285 208.395 321.894C168.446 324.03 135.049 328.567 103.961 342.419C85.4627 350.654 63.4849 366.246 43.6586 385.176C37.543 391.016 29.8489 398.949 22.3685 408.19L22.8581 408.399C30.2969 399.225 37.9389 391.354 44.018 385.556C63.7975 366.652 85.7232 351.102 104.169 342.887C134.643 329.312 167.373 324.707 206.343 322.53C172.764 324.817 137.69 329.547 105.195 344.924C87.0046 353.54 65.3655 369.382 45.8256 388.39C38.5015 395.516 31.943 402.674 26.1399 409.784L26.6244 409.988C32.391 402.934 38.913 395.834 46.1903 388.76C65.6884 369.788 87.2755 353.978 105.424 345.393C138.165 329.89 173.561 325.228 207.4 322.973C175.624 325.509 139.618 330.781 106.44 347.44C88.5518 356.416 67.2512 372.512 48.0031 391.599C41.3509 398.189 35.3342 404.804 29.9218 411.378L30.4167 411.587C35.7979 405.065 41.7676 398.506 48.3677 391.969C67.5742 372.913 88.8227 356.853 106.669 347.899C139.795 331.266 175.754 326.009 207.499 323.478C177.885 326.239 141.274 332.094 107.675 349.946C89.828 359.427 69.413 375.362 50.1806 394.813C44.1795 400.871 38.7463 406.945 33.7298 412.988L34.2299 413.196C39.2047 407.206 44.5963 401.179 50.5452 395.173C69.7412 375.758 90.1198 359.859 107.92 350.399C142.337 332.11 179.958 326.437 209.922 323.775C167.836 328.114 136.456 336.991 108.915 352.457C91.4221 362.281 71.33 378.461 52.358 398.022C46.9925 403.544 42.1114 409.076 37.5169 414.587L38.0118 414.796C42.5699 409.336 47.4092 403.851 52.7227 398.381C71.6686 378.852 91.7138 362.703 109.165 352.905C136.268 337.689 167.123 328.875 208.26 324.478C168.503 329.281 137.128 338.986 110.154 354.968C92.9848 365.141 73.2314 381.571 54.5251 401.231C50.2691 405.7 45.7423 410.743 41.2103 416.145L41.7051 416.353C46.1955 411.009 50.6806 406.013 54.8949 401.585C73.57 381.962 93.287 365.563 110.42 355.41C137.269 339.501 168.514 329.823 208.072 325.02C169.404 330.239 138.472 340.575 111.394 357.479C94.5632 367.98 75.138 384.655 56.7025 404.445C52.9571 408.451 48.9824 412.967 44.9869 417.739L45.4714 417.942C49.4356 413.228 53.3686 408.758 57.0724 404.789C75.487 385.046 94.8758 368.397 111.66 357.911C138.774 340.991 169.769 330.667 208.557 325.468C171.019 331.047 139.535 342.314 112.634 359.984C95.8968 370.981 77.305 387.463 58.8696 407.654C55.6294 411.201 52.1965 415.171 48.722 419.317L49.2116 419.526C52.6497 415.426 56.0514 411.509 59.255 407.998C77.6593 387.843 96.2146 371.387 112.915 360.417C139.66 342.846 170.951 331.62 208.255 326.041C171.759 332.011 140.78 343.919 113.863 362.495C97.5169 373.783 79.2533 390.51 61.047 410.863C58.2913 413.941 55.3794 417.343 52.4309 420.88L52.9258 421.088C55.8378 417.603 58.7133 414.249 61.4325 411.207C79.6127 390.885 97.8398 374.19 114.16 362.922C141.004 344.388 171.915 332.511 208.328 326.546C172.676 332.896 142.082 345.45 115.108 365.011C99.1317 376.586 81.1911 393.552 63.2193 414.072C60.7605 416.874 58.432 419.661 56.1191 422.438L56.6192 422.651C58.8904 419.911 61.1877 417.171 63.6047 414.41C81.5558 393.922 99.4651 376.982 115.411 365.423C142.431 345.836 173.098 333.282 208.859 326.973C173.822 333.651 143.462 346.893 116.343 367.522C100.752 379.383 83.129 396.589 65.3967 417.28C63.4589 419.541 61.6461 421.766 59.8072 423.995L60.2917 424.198C62.0993 422.01 63.886 419.833 65.7822 417.619C83.4936 396.949 101.09 379.769 116.661 367.933C143.671 347.378 173.91 334.183 208.807 327.51C174.624 334.537 144.686 348.425 117.583 370.028C102.143 382.347 85.3168 399.324 67.569 420.495C66.1469 422.193 64.8237 423.855 63.4537 425.532L63.9433 425.74C65.2873 424.105 66.574 422.479 67.9649 420.823C85.6919 399.684 102.486 382.722 117.906 370.429C145.009 348.831 174.942 334.969 209.13 327.968C175.958 335.287 145.582 350.201 118.828 372.544C103.789 385.103 87.2703 402.314 69.7464 423.709C68.8192 424.834 67.9701 425.938 67.0637 427.058L67.5534 427.267C68.4285 426.183 69.2463 425.12 70.1423 424.032C87.6506 402.663 104.143 385.473 119.151 372.939C145.707 350.764 175.843 335.933 208.729 328.583C176.463 336.277 146.645 351.821 120.068 375.054C105.289 387.963 89.5363 404.924 71.9187 426.918C71.4707 427.47 71.0644 428.012 70.6268 428.564L71.1113 428.767C71.5228 428.251 71.9031 427.751 72.3146 427.235C89.9218 405.273 105.654 388.333 120.406 375.44C146.76 352.41 176.296 336.959 208.244 329.234C176.583 337.334 148.046 353.118 121.302 377.565C106.972 390.667 91.5471 407.836 74.1482 430.048L74.6431 430.257C91.9847 408.128 107.362 391.005 121.646 377.94C148.484 353.42 177.114 337.631 208.911 329.593C177.697 337.97 149.354 354.452 122.542 380.071C108.857 393.151 94.5424 409.571 77.6593 431.533L78.1541 431.741C94.98 409.857 109.253 393.485 122.901 380.451C149.745 354.801 178.114 338.329 209.37 330.005C178.672 338.652 150.594 355.822 123.782 382.587C110.894 395.449 97.2564 411.587 81.1234 432.992L81.6131 433.2C97.694 411.863 111.301 395.777 124.146 382.952C150.776 356.369 178.656 339.272 209.109 330.609C179.192 339.595 151.604 357.39 125.022 385.098C109.805 400.955 95.7197 419.213 84.5198 434.429L85.0095 434.632C96.1833 419.448 110.238 401.257 125.391 385.452C151.865 357.864 179.323 340.127 209.093 331.151C179.823 340.455 152.651 358.89 126.261 387.609C112.191 402.924 99.2307 420.12 87.9058 435.857L88.3903 436.06C99.6891 420.364 112.618 403.221 126.642 387.963C152.735 359.557 179.588 341.236 208.479 331.886C179.953 341.549 154.021 360.13 127.496 390.12C114.311 405.164 102.341 421.417 91.2137 437.253L91.6982 437.456C102.799 421.661 114.739 405.456 127.887 390.458C153.641 361.333 178.823 342.971 206.374 333.125C159.595 350.701 126.22 392.323 94.459 438.623L94.9383 438.826C128.616 389.739 164.086 345.914 215.428 330.573C244.85 321.785 276.272 323.785 306.657 325.723C321.363 326.661 336.569 327.63 351.415 327.38C394.422 326.64 437.815 314.857 476.921 293.301C516.016 271.745 549.157 241.339 572.734 205.369C581.267 192.356 588.628 178.494 594.749 163.987C601.005 149.166 605.923 133.669 609.506 117.75C610.069 115.728 610.559 113.692 611.069 111.66C611.684 109.977 612.309 108.3 612.882 106.617C613.085 106.117 613.268 105.617 613.465 105.122C614.091 103.773 614.705 102.429 615.289 101.085C615.825 100.033 616.331 98.9755 616.841 97.9232C617.039 97.5637 617.258 97.2095 617.456 96.8501C618.154 95.7561 618.826 94.5945 619.508 93.4641C620.04 92.6983 620.55 91.8857 621.076 91.0991C621.852 90.0833 622.629 89.0727 623.389 88.0204C623.853 87.4578 624.332 86.9161 624.79 86.3431C625.452 85.6138 626.103 84.8845 626.754 84.1343C627.28 83.603 627.78 83.0248 628.296 82.4778C629.088 81.7485 629.817 80.9202 630.588 80.1649C631.354 79.5033 632.088 78.7792 632.844 78.0916C633.719 77.3884 634.573 76.6643 635.428 75.9298C636.287 75.2839 637.162 74.6587 638.006 73.9763C638.944 73.3043 639.934 72.7209 640.85 72.0072C641.439 71.6061 642.054 71.2467 642.642 70.8247C643.241 70.4497 643.846 70.0798 644.434 69.6891C645.039 69.3349 645.633 68.9598 646.226 68.59C647.357 67.9805 648.419 67.2356 649.524 66.5688C649.732 66.4646 649.925 66.324 650.133 66.2146C651.67 65.5061 653.191 64.756 654.686 63.9433C655.384 63.6152 656.072 63.2766 656.759 62.9275C662.187 60.5209 667.365 57.5047 672.168 53.702C679.081 48.2219 684.702 41.2936 688.999 33.3287L688.614 33.1672ZM641.106 68.0951C641.356 68.0378 641.601 67.9649 641.851 67.9076C641.731 68.0482 641.601 68.1732 641.486 68.3139C641.262 68.3764 641.043 68.4545 640.814 68.5171C640.918 68.3816 641.007 68.2305 641.106 68.0951ZM639.501 68.4181C639.788 68.3556 640.085 68.3087 640.371 68.2462C640.236 68.4337 640.079 68.59 639.939 68.7723C639.689 68.84 639.434 68.8921 639.178 68.9546C639.293 68.7879 639.387 68.59 639.501 68.4181ZM637.855 68.7515C638.178 68.689 638.496 68.6265 638.819 68.5587C638.689 68.7515 638.569 68.9442 638.439 69.1318C638.136 69.2047 637.829 69.2724 637.527 69.3453C637.642 69.1578 637.741 68.9442 637.855 68.7515ZM312.559 311.856C328.156 307.845 343.273 301.995 356.713 293.394C361.536 290.305 366.115 286.883 370.33 283.21C396.652 260.279 410.144 227.268 423.203 195.325C424.87 191.236 426.6 187.017 428.319 182.896C428.605 182.198 428.902 181.495 429.199 180.797C443.186 147.661 463.882 108.165 499.993 90.6303C506.957 87.2443 514.375 84.7021 522.674 82.8529C540.187 78.9303 558.378 78.8991 575.964 78.8678C579.09 78.8678 582.2 78.8574 585.278 78.8313C595.004 78.748 605.162 78.2687 615.19 76.8727C615.153 77.3571 615.138 77.8416 615.096 78.326C605.527 80.0555 595.676 80.9359 585.903 81.4255C582.663 81.5922 579.392 81.7329 576.105 81.8735C559.185 82.5976 541.693 83.3425 524.716 87.687C516.548 89.7655 509.229 92.4743 502.342 95.9645C466.294 114.265 444.66 154.522 429.835 187.553C428.199 191.205 426.579 194.867 424.959 198.534C411.082 229.962 396.73 262.462 369.887 284.7C365.641 288.217 361.042 291.488 356.213 294.431C342.924 302.537 328.057 308.048 312.559 311.856ZM632.833 71.5801C632.484 71.6634 632.135 71.7312 631.786 71.8093C631.906 71.5436 632.036 71.2884 632.156 71.0175C632.5 70.955 632.844 70.8977 633.182 70.83C633.063 71.0748 632.953 71.3353 632.833 71.5801ZM633.808 70.7154C634.162 70.6424 634.516 70.5851 634.865 70.5122C634.735 70.7414 634.584 70.9446 634.453 71.1738C634.125 71.2623 633.797 71.3561 633.469 71.4394C633.589 71.205 633.693 70.9498 633.808 70.7154ZM631.177 71.9447C630.812 72.0281 630.453 72.1114 630.088 72.1896C630.203 71.9135 630.296 71.6166 630.406 71.3405C630.791 71.278 631.172 71.1998 631.557 71.1321C631.432 71.4082 631.302 71.6739 631.177 71.9447ZM616.924 88.656C617.206 88.5049 617.482 88.333 617.763 88.1767C617.685 88.5049 617.596 88.8331 617.513 89.1613C617.237 89.3332 616.966 89.5155 616.695 89.6926C616.763 89.3488 616.851 89.005 616.924 88.656ZM616.081 90.0885C615.883 90.2083 615.685 90.349 615.487 90.4688C615.544 90.1041 615.617 89.7395 615.674 89.3696C615.893 89.255 616.101 89.1196 616.32 89.005C616.247 89.3644 616.159 89.7239 616.081 90.0885ZM627.317 74.1534C626.952 74.2368 626.572 74.2837 626.202 74.367C626.301 74.0545 626.374 73.7367 626.473 73.4242C626.874 73.3512 627.275 73.2887 627.671 73.2158C627.562 73.5283 627.431 73.8357 627.317 74.1534ZM628.286 73.1064C628.64 73.0387 628.984 72.9553 629.338 72.8824C629.223 73.1533 629.109 73.4189 628.994 73.6898C628.64 73.7784 628.301 73.9086 627.947 73.992C628.051 73.695 628.182 73.4085 628.286 73.1064ZM617.841 84.5042C617.914 84.1291 617.966 83.7541 618.034 83.3842C618.357 83.2696 618.669 83.129 618.992 83.0144C618.909 83.3738 618.847 83.7332 618.768 84.0927C618.456 84.2281 618.154 84.374 617.841 84.5042ZM618.638 84.7178C618.555 85.072 618.456 85.4262 618.373 85.7805C618.065 85.9315 617.768 86.093 617.456 86.2389C617.529 85.869 617.633 85.5044 617.706 85.1293C618.018 84.9991 618.326 84.8532 618.638 84.7178ZM618.117 82.7956C618.185 82.4153 618.216 82.0298 618.284 81.6495C618.643 81.5401 618.992 81.4099 619.347 81.2953C619.269 81.6652 619.196 82.0402 619.117 82.4101C618.784 82.5351 618.451 82.6758 618.117 82.7956ZM620.18 77.2842C619.743 77.378 619.31 77.503 618.867 77.5968C618.935 77.154 618.992 76.7112 619.06 76.2684C619.524 76.1903 619.982 76.0809 620.446 76.0027C620.368 76.4299 620.264 76.857 620.18 77.2842ZM620.904 75.9142C621.326 75.836 621.743 75.7475 622.165 75.6693C622.071 76.0757 621.957 76.4768 621.863 76.8831C621.467 76.9769 621.081 77.0758 620.685 77.1644C620.764 76.7476 620.826 76.3309 620.904 75.9142ZM618.612 79.3471C618.68 78.9459 618.727 78.5448 618.789 78.1437C619.216 78.0552 619.638 77.9354 620.066 77.8416C619.987 78.2271 619.904 78.6178 619.826 79.0032C619.42 79.1126 619.024 79.2429 618.612 79.3471ZM619.706 79.5763C619.628 79.9513 619.55 80.3316 619.472 80.7119C619.097 80.8317 618.737 80.9671 618.367 81.0817C618.43 80.691 618.472 80.2951 618.534 79.9044C618.93 79.8055 619.31 79.6752 619.706 79.5763ZM618.331 77.7218C617.971 77.7947 617.628 77.9041 617.268 77.977C617.32 77.5134 617.378 77.0498 617.43 76.5862C617.8 76.5289 618.159 76.4299 618.529 76.3726C618.461 76.8206 618.404 77.2738 618.331 77.7218ZM618.253 78.274C618.19 78.6803 618.143 79.0918 618.076 79.5033C617.721 79.5919 617.383 79.7117 617.029 79.8003C617.081 79.3679 617.148 78.9407 617.195 78.5084C617.555 78.4354 617.899 78.3417 618.253 78.274ZM617.997 80.0607C617.93 80.4618 617.888 80.8629 617.82 81.2588C617.471 81.3682 617.138 81.5037 616.784 81.6079C616.841 81.1859 616.898 80.7692 616.95 80.3524C617.305 80.2639 617.643 80.1493 617.997 80.0607ZM619.946 81.0974C620.264 80.9932 620.576 80.8838 620.894 80.7796C620.805 81.1286 620.727 81.4776 620.633 81.8214C620.316 81.9465 619.998 82.0715 619.68 82.1913C619.758 81.8266 619.868 81.462 619.946 81.0974ZM620.086 80.5087C620.165 80.1389 620.222 79.769 620.295 79.4044C620.633 79.3158 620.967 79.2116 621.305 79.1179C621.217 79.4773 621.133 79.8315 621.04 80.191C620.722 80.2951 620.409 80.4045 620.086 80.5087ZM620.394 78.847C620.467 78.4719 620.519 78.0916 620.592 77.7166C620.967 77.6332 621.342 77.5342 621.722 77.4457C621.634 77.8103 621.54 78.1802 621.451 78.5448C621.097 78.6438 620.748 78.748 620.394 78.847ZM622.316 77.305C622.665 77.2217 623.014 77.1383 623.363 77.055C623.264 77.3988 623.16 77.7426 623.061 78.0864C622.717 78.1906 622.373 78.2844 622.029 78.3781C622.118 78.0187 622.227 77.6645 622.316 77.305ZM622.462 76.7424C622.556 76.3517 622.623 75.9558 622.712 75.5652C623.092 75.487 623.472 75.4193 623.858 75.3412C623.748 75.7266 623.629 76.1069 623.525 76.4872C623.17 76.5757 622.816 76.6539 622.462 76.7424ZM624.42 75.2318C624.775 75.1588 625.134 75.1015 625.488 75.0286C625.374 75.388 625.249 75.7475 625.129 76.1069C624.79 76.1955 624.441 76.2684 624.098 76.3517C624.202 75.9767 624.316 75.6068 624.42 75.2318ZM626.041 74.9192C626.395 74.8411 626.754 74.7942 627.103 74.716C626.983 75.0547 626.848 75.388 626.723 75.7266C626.4 75.8152 626.067 75.8725 625.738 75.9611C625.853 75.6172 625.931 75.263 626.041 74.9192ZM625.676 74.466C625.311 74.5494 624.941 74.6014 624.577 74.6796C624.665 74.3514 624.77 74.0336 624.858 73.7055C625.238 73.6429 625.619 73.5752 625.999 73.5075C625.9 73.8305 625.78 74.1482 625.676 74.466ZM624.014 74.789C623.618 74.8671 623.222 74.94 622.821 75.0182C622.894 74.69 622.951 74.3566 623.024 74.0232C623.452 73.9607 623.874 73.8721 624.301 73.8044C624.212 74.1326 624.103 74.4556 624.014 74.789ZM622.3 75.1172C621.868 75.2005 621.436 75.2891 620.998 75.3724C621.066 75.0026 621.123 74.6327 621.191 74.2681C621.639 74.2055 622.087 74.1587 622.535 74.0909C622.462 74.4347 622.378 74.7786 622.3 75.1172ZM620.56 75.4558C620.086 75.5391 619.618 75.6485 619.138 75.7266C619.196 75.3255 619.258 74.9192 619.315 74.5181C619.789 74.4556 620.269 74.3931 620.748 74.3254C620.68 74.7004 620.633 75.0807 620.56 75.4558ZM618.607 75.8308C618.227 75.8933 617.857 75.9871 617.477 76.0496C617.523 75.612 617.555 75.1797 617.596 74.7421C617.992 74.6952 618.388 74.6327 618.784 74.5858C618.727 75.0026 618.664 75.4141 618.607 75.8308ZM616.95 76.1434C616.487 76.2111 616.018 76.2424 615.554 76.3101C615.586 75.8517 615.612 75.3932 615.643 74.9296C616.117 74.8827 616.596 74.8463 617.075 74.7942C617.029 75.2422 616.997 75.6954 616.95 76.1434ZM616.898 76.6643C616.846 77.1331 616.789 77.5968 616.737 78.0604C616.305 78.1437 615.862 78.1958 615.429 78.274C615.466 77.7947 615.481 77.3102 615.518 76.831C615.976 76.7685 616.44 76.7372 616.898 76.6643ZM616.664 78.5917C616.612 79.0397 616.544 79.4773 616.487 79.9253C616.096 80.019 615.695 80.0763 615.304 80.1701C615.346 79.7117 615.356 79.2533 615.393 78.8001C615.815 78.7219 616.247 78.6751 616.664 78.5917ZM614.976 80.2378C605.662 82.358 596.061 83.6447 586.529 84.5511C583.127 84.8741 579.631 85.1762 576.24 85.4627C560.024 86.8536 543.25 88.2965 526.883 93.0161C518.887 95.3082 511.703 98.1628 504.91 101.762C470.066 120.255 448.416 157.965 431.835 192.413C430.33 195.539 428.835 198.68 427.34 201.816C412.571 232.842 397.298 264.926 369.778 286.581C365.501 289.946 360.87 293.082 355.994 295.911C345.68 301.886 334.386 306.251 322.587 309.653C334.547 306.043 346.003 301.26 356.478 294.874C361.333 291.915 365.954 288.628 370.21 285.096C397.152 262.785 411.53 230.227 425.433 198.748C427.048 195.075 428.673 191.408 430.309 187.762C445.098 154.808 466.669 114.65 502.571 96.4177C509.432 92.9536 516.709 90.2552 524.846 88.1871C541.766 83.8583 559.237 83.1133 576.131 82.3892C579.418 82.2486 582.689 82.1079 585.929 81.9465C595.681 81.4516 605.506 80.5712 615.065 78.8522C615.028 79.3106 615.013 79.7742 614.976 80.2378ZM616.414 80.4618C616.362 80.8994 616.299 81.337 616.242 81.7694C615.893 81.8735 615.534 81.9413 615.185 82.0402C615.226 81.5922 615.231 81.1442 615.273 80.6963C615.653 80.6129 616.039 80.5504 616.414 80.4618ZM617.737 81.8319C617.669 82.2226 617.638 82.6185 617.57 83.0092C617.227 83.129 616.893 83.28 616.549 83.3998C616.601 82.9935 616.659 82.582 616.711 82.1757C617.06 82.0767 617.393 81.936 617.737 81.8319ZM617.487 83.5926C617.414 83.9833 617.336 84.374 617.263 84.7595C616.94 84.8949 616.633 85.0512 616.31 85.1814C616.367 84.7855 616.414 84.3844 616.471 83.9885C616.815 83.8687 617.143 83.7176 617.487 83.5926ZM617.122 85.3898C617.049 85.7753 616.94 86.1555 616.867 86.541C616.601 86.666 616.346 86.8119 616.075 86.9421C616.138 86.5566 616.174 86.1712 616.232 85.7857C616.534 85.6606 616.82 85.5148 617.122 85.3898ZM616.721 87.1922C616.648 87.5672 616.549 87.9423 616.471 88.3174C616.242 88.4424 616.023 88.583 615.789 88.7081C615.851 88.3278 615.929 87.9475 615.987 87.562C616.237 87.4474 616.476 87.312 616.721 87.1922ZM617.075 87.9735C617.143 87.6141 617.242 87.2547 617.315 86.8952C617.612 86.7494 617.904 86.5879 618.206 86.442C618.123 86.7858 618.029 87.1297 617.94 87.4787C617.654 87.6402 617.367 87.8121 617.075 87.9735ZM618.706 86.1868C618.987 86.0513 619.269 85.9055 619.55 85.7648C619.456 86.0826 619.357 86.4004 619.263 86.7233C618.998 86.8744 618.732 87.0255 618.466 87.1765C618.55 86.8484 618.628 86.5202 618.706 86.1868ZM618.867 85.5304C618.951 85.1866 619.039 84.848 619.117 84.5042C619.43 84.3688 619.737 84.2281 620.05 84.0927C619.956 84.4208 619.847 84.749 619.753 85.0824C619.456 85.2335 619.164 85.3793 618.867 85.5304ZM619.269 83.8687C619.352 83.5144 619.451 83.1602 619.529 82.806C619.852 82.6862 620.165 82.5559 620.482 82.4361C620.394 82.7695 620.326 83.1081 620.232 83.4467C619.915 83.5874 619.592 83.7332 619.269 83.8687ZM621.008 82.233C621.326 82.1079 621.649 81.9881 621.972 81.8631C621.873 82.1757 621.779 82.4882 621.68 82.806C621.368 82.9466 621.055 83.0769 620.748 83.2175C620.837 82.8893 620.92 82.5612 621.008 82.233ZM621.17 81.6183C621.258 81.2797 621.352 80.9359 621.441 80.5973C621.769 80.4879 622.102 80.3785 622.431 80.2691C622.332 80.5921 622.248 80.915 622.149 81.238C621.826 81.3682 621.498 81.4881 621.17 81.6183ZM623.035 80.0659C623.321 79.967 623.618 79.8784 623.905 79.7794C623.795 80.0763 623.712 80.3785 623.603 80.6754C623.327 80.7952 623.045 80.889 622.769 80.9984C622.863 80.691 622.941 80.3785 623.035 80.0659ZM622.602 79.67C622.269 79.7846 621.936 79.8888 621.597 80.0034C621.686 79.6544 621.79 79.3054 621.878 78.9564C622.217 78.8626 622.556 78.7688 622.894 78.6699C622.795 79.0032 622.701 79.3366 622.602 79.67ZM623.483 78.5032C623.795 78.4094 624.108 78.3313 624.42 78.2375C624.311 78.5448 624.217 78.8574 624.108 79.1699C623.811 79.2741 623.504 79.3627 623.207 79.4669C623.301 79.1439 623.389 78.8209 623.483 78.5032ZM625.04 78.0604C625.337 77.9666 625.645 77.8989 625.936 77.8051C625.827 78.0916 625.723 78.3781 625.613 78.6646C625.311 78.7792 624.999 78.8626 624.697 78.972C624.806 78.6646 624.936 78.3625 625.04 78.0604ZM624.613 77.6488C624.295 77.7426 623.967 77.826 623.65 77.9197C623.743 77.5863 623.842 77.2529 623.936 76.9196C624.269 76.8362 624.608 76.7685 624.936 76.6799C624.832 77.0029 624.723 77.3259 624.613 77.6488ZM625.577 76.5289C625.884 76.4455 626.197 76.3934 626.504 76.3049C626.39 76.607 626.28 76.9091 626.166 77.2061C625.869 77.305 625.561 77.3676 625.27 77.4613C625.374 77.1488 625.473 76.8362 625.577 76.5289ZM627.108 76.1642C627.4 76.0809 627.697 75.9975 627.989 75.909C627.874 76.1746 627.754 76.4247 627.64 76.6851C627.348 76.7841 627.072 76.9196 626.78 77.0133C626.89 76.732 626.999 76.4507 627.108 76.1642ZM628.708 75.6693C629.005 75.5808 629.286 75.461 629.583 75.3724C629.473 75.5964 629.374 75.836 629.26 76.06C628.963 76.1694 628.671 76.2997 628.369 76.4038C628.478 76.1538 628.598 75.9194 628.708 75.6693ZM628.281 75.2682C627.963 75.362 627.655 75.4922 627.332 75.5808C627.457 75.2526 627.593 74.9296 627.713 74.5962C628.051 74.5181 628.38 74.3931 628.718 74.3097C628.577 74.6379 628.421 74.94 628.281 75.2682ZM629.166 74.6692C629.239 74.4921 629.296 74.2941 629.369 74.117C629.682 74.0388 629.979 73.9347 630.286 73.8513C630.151 74.143 630.02 74.44 629.885 74.7265C629.588 74.8202 629.302 74.9348 629.005 75.0234C629.057 74.9036 629.114 74.789 629.166 74.6692ZM630.916 73.669C631.25 73.5804 631.578 73.4763 631.911 73.3825C631.765 73.6638 631.594 73.919 631.443 74.2003C631.135 74.2993 630.838 74.4087 630.526 74.5077C630.661 74.2316 630.786 73.9503 630.916 73.669ZM630.578 73.2314C630.25 73.32 629.927 73.4294 629.593 73.5179C629.697 73.2731 629.776 73.0074 629.875 72.7626C630.218 72.6897 630.557 72.6115 630.901 72.5334C630.797 72.7678 630.687 73.0022 630.578 73.2314ZM631.51 72.3979C631.859 72.3198 632.208 72.2469 632.552 72.1687C632.458 72.3511 632.38 72.5542 632.281 72.7365C631.922 72.8407 631.568 72.9501 631.208 73.0491C631.307 72.8355 631.411 72.6167 631.51 72.3979ZM629.546 72.3094C629.192 72.3823 628.838 72.4709 628.484 72.5438C628.588 72.2417 628.671 71.9291 628.775 71.6218C629.14 71.5697 629.499 71.5019 629.864 71.4394C629.75 71.7259 629.661 72.0281 629.546 72.3094ZM627.885 72.6584C627.468 72.7365 627.046 72.799 626.629 72.872C626.733 72.5438 626.822 72.2104 626.921 71.877C627.353 71.8145 627.791 71.7624 628.228 71.6999C628.114 72.0177 627.994 72.3354 627.885 72.6584ZM626.181 72.9501C625.785 73.023 625.389 73.0908 624.994 73.1585C625.087 72.8095 625.155 72.4552 625.244 72.1062C625.655 72.0541 626.061 71.9916 626.473 71.9395C626.369 72.2729 626.285 72.6167 626.181 72.9501ZM624.436 73.2575C624.004 73.3252 623.571 73.4137 623.134 73.4815C623.217 73.1064 623.285 72.7313 623.368 72.3563C623.811 72.3042 624.249 72.2365 624.691 72.1844C624.598 72.5386 624.53 72.898 624.436 73.2575ZM622.644 73.5596C622.191 73.6273 621.733 73.6742 621.279 73.7367C621.352 73.3356 621.42 72.9345 621.488 72.5334C621.951 72.4865 622.41 72.4552 622.873 72.4031C622.79 72.7886 622.727 73.1741 622.644 73.5596ZM620.831 73.794C620.352 73.8617 619.873 73.9242 619.388 73.9868C619.446 73.5648 619.519 73.1376 619.571 72.7157C620.06 72.674 620.545 72.6219 621.029 72.575C620.962 72.9814 620.904 73.3929 620.831 73.794ZM618.862 74.0545C618.456 74.1066 618.055 74.1691 617.648 74.216C617.69 73.7732 617.727 73.3252 617.768 72.8824C618.195 72.8511 618.623 72.799 619.05 72.7626C618.992 73.195 618.92 73.6273 618.862 74.0545ZM617.122 74.2733C616.638 74.3306 616.159 74.3618 615.674 74.4139C615.705 73.9399 615.737 73.471 615.763 72.997C616.258 72.9657 616.753 72.9449 617.247 72.9137C617.206 73.3669 617.169 73.8201 617.122 74.2733ZM615.346 74.4452C605.042 75.4662 594.624 75.5078 584.653 75.2005C581.705 75.1067 578.736 75.0026 575.751 74.8879C557.451 74.2055 538.536 73.5023 520.397 77.0185C511.922 78.649 504.337 81.0505 497.195 84.3635C480.474 92.1253 466.096 104.95 453.229 123.579C443.353 137.868 434.674 155.126 425.844 177.833C424.079 182.391 422.313 187.074 420.609 191.601C408.414 223.961 395.777 257.466 370.1 280.944C365.97 284.721 361.448 288.269 356.65 291.488C346.55 298.265 335.417 303.375 323.9 307.293C336.376 302.875 347.404 297.296 357.171 290.436C361.932 287.091 366.438 283.388 370.564 279.439C395.798 255.232 407.633 221.132 419.072 188.158C420.781 183.224 422.552 178.125 424.334 173.16C435.836 141.04 455.673 96.4021 494.825 79.0449C502.024 75.8517 509.708 73.6117 518.314 72.2C536.905 69.1317 556.44 70.5747 575.339 71.9708C578.241 72.1896 581.127 72.4031 583.997 72.6011C594.202 73.2939 604.87 73.6534 615.44 73.0178C615.409 73.4919 615.377 73.9659 615.346 74.4452ZM356.937 291.915C361.75 288.68 366.298 285.117 370.449 281.325C396.214 257.769 408.868 224.221 421.094 191.778C422.797 187.256 424.558 182.584 426.324 178.026C427.86 174.067 429.481 170.014 431.21 165.919C444.441 134.575 463.981 100.345 497.404 84.8376C504.509 81.5401 512.068 79.1491 520.496 77.5238C538.572 74.018 557.466 74.7213 575.735 75.4037C578.72 75.5131 581.689 75.6172 584.643 75.7162C594.603 76.0236 605.016 75.9767 615.315 74.9661C615.284 75.4245 615.257 75.8881 615.226 76.3465C605.188 77.7582 595.014 78.2323 585.278 78.3156C582.194 78.3417 579.09 78.3469 575.964 78.3521C558.347 78.3886 540.13 78.4146 522.554 82.3528C514.224 84.2125 506.77 86.765 499.764 90.1666C463.497 107.774 442.748 147.374 428.72 180.599C428.428 181.297 428.137 182 427.845 182.693C426.121 186.824 424.396 191.043 422.724 195.133C409.701 226.982 396.225 259.977 369.991 282.825C365.798 286.477 361.234 289.889 356.431 292.962C342.924 301.609 327.708 307.459 312.012 311.46C327.812 307.261 343.294 301.068 356.937 291.915ZM356.254 296.353C361.141 293.514 365.798 290.368 370.095 286.987C397.709 265.259 413.009 233.118 427.803 202.04C429.298 198.904 430.793 195.763 432.299 192.632C448.843 158.262 470.436 120.641 505.155 102.221C511.911 98.6421 519.064 95.7926 527.029 93.5162C543.344 88.807 560.092 87.3641 576.287 85.9732C579.673 85.6867 583.174 85.3846 586.57 85.0564C596.077 84.1552 605.646 82.8737 614.94 80.764C614.903 81.2172 614.898 81.6756 614.856 82.1236C605.798 84.6448 596.442 86.3431 587.148 87.6662C583.564 88.1819 579.861 88.6612 576.287 89.1352C560.795 91.1772 544.771 93.2766 529.039 98.3556C521.189 100.877 514.136 103.883 507.489 107.56C473.785 126.241 452.167 161.715 433.83 197.268C432.507 199.837 431.184 202.415 429.866 204.994C414.155 235.666 397.918 267.38 369.668 288.461C365.313 291.707 360.64 294.707 355.775 297.38C343.783 303.964 330.51 308.538 316.706 311.872C330.771 308.303 344.143 303.37 356.254 296.353ZM616.169 82.3215C616.112 82.7487 616.06 83.1811 615.997 83.6134C615.669 83.728 615.325 83.8114 614.992 83.9208C615.039 83.4728 615.101 83.03 615.143 82.582C615.481 82.4882 615.83 82.4153 616.169 82.3215ZM615.924 84.176C615.862 84.5928 615.815 85.0095 615.758 85.4314C615.435 85.5565 615.106 85.6711 614.783 85.7961C614.83 85.3585 614.888 84.9209 614.929 84.4782C615.257 84.3688 615.596 84.2854 615.924 84.176ZM614.398 85.9367C605.917 89.2342 597.124 91.745 588.383 93.9017C584.299 94.9122 580.236 95.8499 575.938 96.8449C562.035 100.049 547.657 103.367 533.368 109.024C525.825 111.988 519.038 115.301 512.636 119.156C479.651 139.071 456.725 174.931 437.821 206.979L435.461 210.984C417.728 241.104 399.392 272.245 369.455 292.217C365.021 295.181 360.271 297.906 355.338 300.323C343.002 306.376 329.5 310.465 315.523 313.388C329.828 310.231 343.361 305.766 355.791 299.307C360.708 296.754 365.438 293.879 369.861 290.759C399.001 270.182 416.28 238.744 432.992 208.343C434.091 206.353 435.185 204.358 436.284 202.368C455.532 167.482 477.817 132.611 510.323 113.811C516.813 110.061 523.7 106.904 531.378 104.169C546.36 98.8035 561.535 96.0739 576.219 93.4328C580.059 92.74 584.033 92.0315 587.862 91.2918C596.822 89.5624 605.844 87.4682 614.565 84.5928C614.518 85.0408 614.445 85.4887 614.398 85.9367ZM615.679 86.0201C615.617 86.4212 615.58 86.8223 615.518 87.2234C615.2 87.3693 614.888 87.5099 614.57 87.6558C614.622 87.2234 614.669 86.7963 614.716 86.3691C615.033 86.2441 615.362 86.1451 615.679 86.0201ZM615.414 87.8537C615.351 88.2496 615.273 88.6455 615.211 89.0414C614.924 89.1925 614.648 89.354 614.361 89.4999C614.414 89.0831 614.455 88.6612 614.507 88.2392C614.804 88.1038 615.117 87.9944 615.414 87.8537ZM613.934 89.7082C606.032 93.8079 597.806 97.147 589.628 100.142C584.862 101.893 580.074 103.523 575 105.258C562.863 109.404 550.314 113.702 537.687 119.687C530.467 123.099 523.955 126.715 517.787 130.752C485.105 152.219 461.106 187.965 441.821 216.694C421.906 246.35 401.314 277.011 369.241 295.973C364.704 298.661 359.875 301.115 354.895 303.271C339.934 309.751 323.577 313.585 306.652 316.091C323.77 313.361 340.272 309.215 355.327 302.261C360.323 299.963 365.131 297.359 369.621 294.535C400.668 275.011 419.343 245.35 439.107 213.943L440.258 212.11C461.007 179.135 483.912 145.28 515.485 125.391C521.741 121.459 528.362 118.005 535.739 114.827C549.204 108.977 562.686 105.138 575.73 101.424C580.371 100.106 584.757 98.8556 589.154 97.5169C597.541 94.9643 605.969 92.0576 614.091 88.4163C614.044 88.8487 613.986 89.2811 613.934 89.7082ZM615.091 89.7082C615.028 90.0885 614.961 90.4688 614.893 90.849C614.643 91.0053 614.408 91.172 614.158 91.3231C614.205 90.922 614.247 90.5104 614.294 90.1093C614.559 89.9687 614.83 89.8437 615.091 89.7082ZM615.924 90.8022C615.846 91.1512 615.763 91.5002 615.69 91.8544C615.518 91.9742 615.351 92.0993 615.179 92.2191C615.242 91.8648 615.304 91.5158 615.367 91.1616C615.554 91.047 615.737 90.9168 615.924 90.8022ZM614.773 91.5419C614.71 91.9117 614.648 92.2868 614.58 92.6566C614.367 92.8025 614.164 92.9692 613.95 93.1151C614.002 92.7296 614.033 92.3389 614.085 91.9534C614.315 91.8128 614.544 91.6825 614.773 91.5419ZM613.471 93.438C606.147 98.366 598.484 102.549 590.868 106.383C585.158 109.264 579.345 111.972 573.188 114.832C563.071 119.536 552.622 124.397 542.016 130.366C535.051 134.252 528.815 138.17 522.929 142.353C494.023 162.987 470.639 193.752 450.01 220.898C448.598 222.742 447.202 224.581 445.817 226.404C422.693 256.727 400.955 283.174 369.033 299.734C364.396 302.136 359.494 304.318 354.462 306.22C339.47 311.872 323.197 315.112 306.459 317.175C323.389 314.888 339.793 311.325 354.869 305.219C359.906 303.183 364.792 300.859 369.387 298.307C402.762 279.793 424.792 249.001 444.238 221.84L445.384 220.241C466.237 191.09 489.871 158.048 520.647 136.977C526.674 132.872 533.035 129.111 540.093 125.485C551.715 119.469 563.228 114.838 574.365 110.363C579.949 108.118 585.226 105.992 590.451 103.731C598.255 100.361 606.094 96.6417 613.622 92.2087C613.57 92.6202 613.528 93.0317 613.471 93.438ZM614.455 93.3807C614.393 93.735 614.335 94.0892 614.273 94.4382C614.07 94.5945 613.877 94.7716 613.674 94.9227C613.726 94.5528 613.794 94.183 613.846 93.8079C614.049 93.6724 614.252 93.5214 614.455 93.3807ZM354.645 306.699C359.692 304.792 364.615 302.604 369.272 300.193C401.283 283.586 423.063 257.086 446.228 226.711C447.614 224.888 449.015 223.054 450.416 221.205C471.024 194.091 494.382 163.362 523.231 142.775C529.097 138.602 535.322 134.69 542.266 130.814C552.856 124.86 563.301 120 573.396 115.301C579.564 112.431 585.382 109.727 591.092 106.847C598.604 103.065 606.157 98.9338 613.387 94.0996C613.335 94.4903 613.299 94.8862 613.241 95.2769C606.209 100.632 598.822 105.242 591.483 109.509C585.205 113.155 578.741 116.598 571.891 120.24C562.91 125.006 553.627 129.944 544.177 135.695C537.312 139.852 531.206 143.931 525.508 148.151C498.607 168.154 475.739 196.576 455.563 221.658C452.953 224.903 450.375 228.107 447.812 231.259C425.131 259.206 402.028 285.617 368.923 301.615C364.24 303.881 359.297 305.923 354.244 307.694C339.642 312.794 323.879 315.69 307.72 317.545C324.072 315.466 339.96 312.231 354.645 306.699ZM614.137 95.2144C614.075 95.5478 614.028 95.8812 613.966 96.2093C613.773 96.376 613.596 96.5584 613.403 96.7198C613.455 96.376 613.512 96.027 613.559 95.6832C613.757 95.5321 613.945 95.3655 614.137 95.2144ZM614.747 94.7143C614.872 94.6205 614.997 94.5111 615.122 94.4122C615.049 94.7247 614.987 95.0373 614.914 95.3446C614.804 95.4436 614.7 95.5478 614.591 95.6415C614.648 95.3342 614.695 95.0216 614.747 94.7143ZM615.763 93.8912C615.992 93.7089 616.221 93.5162 616.456 93.3286C616.383 93.5943 616.325 93.86 616.247 94.1257C616.023 94.334 615.799 94.5424 615.57 94.7456C615.638 94.459 615.695 94.1777 615.763 93.8912ZM615.299 93.6047C615.158 93.7141 615.023 93.8339 614.882 93.9433C614.94 93.6099 614.997 93.2766 615.054 92.9484C615.211 92.839 615.362 92.7192 615.523 92.6098C615.445 92.9432 615.377 93.2713 615.299 93.6047ZM616.148 92.1566C616.393 91.9795 616.638 91.7919 616.888 91.6148C616.81 91.9065 616.742 92.1982 616.664 92.49C616.424 92.6879 616.185 92.8859 615.94 93.0838C616.008 92.7713 616.081 92.4639 616.148 92.1566ZM617.497 91.172C617.685 91.0418 617.867 90.9063 618.055 90.7709C617.971 91.0314 617.904 91.2918 617.82 91.5523C617.648 91.6929 617.477 91.8284 617.305 91.9742C617.372 91.7086 617.43 91.4377 617.497 91.172ZM617.086 90.8386C616.831 91.021 616.575 91.2137 616.315 91.4012C616.383 91.0678 616.466 90.7344 616.534 90.4063C616.799 90.2396 617.06 90.0624 617.325 89.8905C617.247 90.2083 617.169 90.5209 617.086 90.8386ZM617.899 89.5259C618.117 89.3853 618.336 89.2446 618.55 89.104C618.466 89.3853 618.383 89.6718 618.294 89.9583C618.091 90.1093 617.888 90.2552 617.685 90.4011C617.763 90.1093 617.826 89.8176 617.899 89.5259ZM619.253 88.6508C619.43 88.5309 619.607 88.4215 619.784 88.3069C619.696 88.5622 619.612 88.8174 619.519 89.0727C619.347 89.2029 619.164 89.3227 618.987 89.4582C619.071 89.1873 619.17 88.9164 619.253 88.6508ZM618.779 88.3434C618.544 88.4997 618.31 88.6455 618.076 88.7966C618.154 88.4893 618.222 88.1767 618.3 87.8694C618.55 87.7287 618.8 87.5829 619.05 87.4422C618.961 87.7391 618.867 88.0413 618.779 88.3434ZM619.727 87.0515C619.93 86.9317 620.133 86.8223 620.336 86.7025C620.243 86.9734 620.149 87.2495 620.055 87.5203C619.873 87.6402 619.691 87.7548 619.508 87.8746C619.586 87.5985 619.649 87.3224 619.727 87.0515ZM621.019 86.3118C621.186 86.2128 621.363 86.1191 621.529 86.0201C621.436 86.2649 621.342 86.5098 621.243 86.7546C621.087 86.8588 620.92 86.9525 620.764 87.0619C620.847 86.8119 620.935 86.5618 621.019 86.3118ZM620.592 85.9628C620.368 86.093 620.138 86.218 619.915 86.3483C620.003 86.0513 620.066 85.7544 620.154 85.4575C620.399 85.3325 620.649 85.2127 620.894 85.0824C620.795 85.3793 620.691 85.6711 620.592 85.9628ZM621.55 84.7542C621.748 84.6501 621.951 84.5563 622.149 84.4469C622.045 84.7178 621.941 84.9834 621.837 85.2491C621.649 85.3637 621.456 85.4627 621.269 85.5721C621.363 85.3012 621.456 85.0251 621.55 84.7542ZM621.133 84.3844C620.868 84.525 620.597 84.6501 620.331 84.7907C620.415 84.4782 620.493 84.1656 620.576 83.8583C620.868 83.728 621.16 83.603 621.451 83.4676C621.352 83.7749 621.232 84.077 621.133 84.3844ZM622.076 83.1915C622.306 83.0821 622.54 82.9935 622.769 82.8841C622.66 83.1654 622.545 83.4467 622.436 83.728C622.222 83.8426 621.998 83.9416 621.785 84.0562C621.878 83.7645 621.988 83.478 622.076 83.1915ZM623.316 82.6393C623.571 82.5195 623.842 82.4205 624.098 82.2955C623.993 82.5351 623.879 82.7747 623.775 83.0144C623.525 83.155 623.269 83.2904 623.019 83.4311C623.118 83.1654 623.217 82.905 623.316 82.6393ZM623.035 82.2017C622.795 82.3163 622.545 82.4153 622.306 82.5247C622.399 82.2278 622.498 81.9256 622.592 81.6235C622.853 81.5141 623.123 81.4255 623.384 81.3161C623.28 81.6131 623.149 81.9048 623.035 82.2017ZM623.889 81.1182C624.181 80.9984 624.483 80.9046 624.77 80.7796C624.66 81.0453 624.53 81.3109 624.415 81.5766C624.139 81.7121 623.853 81.8319 623.571 81.9673C623.676 81.6808 623.785 81.4047 623.889 81.1182ZM625.431 80.5139C625.634 80.4202 625.827 80.3056 626.035 80.2118C625.936 80.4202 625.848 80.6389 625.749 80.8421C625.556 80.9411 625.374 81.0557 625.181 81.1547C625.27 80.9411 625.343 80.7223 625.431 80.5139ZM625.061 80.1128C624.759 80.243 624.441 80.342 624.134 80.4723C624.238 80.1753 624.363 79.8836 624.467 79.5919C624.764 79.4825 625.077 79.3992 625.379 79.2845C625.264 79.5606 625.176 79.8419 625.061 80.1128ZM625.978 79.0866C626.218 78.9928 626.447 78.8782 626.681 78.7897C626.577 79.0137 626.478 79.2481 626.374 79.4721C626.145 79.5711 625.931 79.7013 625.707 79.8003C625.801 79.5606 625.884 79.321 625.978 79.0866ZM627.421 78.4667C627.697 78.3573 627.963 78.2219 628.234 78.1073C628.129 78.3208 628.004 78.5136 627.895 78.7219C627.64 78.847 627.39 78.9824 627.135 79.097C627.228 78.8886 627.327 78.6751 627.421 78.4667ZM627.004 78.0864C626.744 78.1854 626.499 78.3156 626.239 78.4198C626.343 78.1541 626.442 77.8937 626.541 77.6332C626.806 77.5447 627.067 77.4457 627.332 77.3571C627.223 77.5968 627.114 77.8416 627.004 78.0864ZM628.062 77.0758C628.364 76.9716 628.65 76.8362 628.947 76.732C628.843 76.9404 628.749 77.1644 628.645 77.3676C628.343 77.4926 628.051 77.6384 627.749 77.7582C627.848 77.529 627.958 77.305 628.062 77.0758ZM629.609 76.4768C629.833 76.3986 630.057 76.3049 630.281 76.2163C630.171 76.4143 630.057 76.607 629.947 76.7997C629.744 76.8883 629.541 76.9821 629.333 77.0706C629.432 76.8779 629.515 76.6695 629.609 76.4768ZM631.047 75.9246C631.25 75.8465 631.453 75.7683 631.656 75.6902C631.552 75.8569 631.453 76.0288 631.349 76.1903C631.146 76.284 630.942 76.3674 630.739 76.4559C630.843 76.2788 630.948 76.1017 631.047 75.9246ZM630.692 75.5079C630.432 75.6068 630.182 75.711 629.921 75.8048C630.026 75.5912 630.125 75.3672 630.229 75.1536C630.505 75.0651 630.776 74.9609 631.057 74.8723C630.937 75.0911 630.812 75.2943 630.692 75.5079ZM631.792 74.6223C632.016 74.5494 632.234 74.4712 632.458 74.3983C632.344 74.5858 632.224 74.7786 632.109 74.9661C631.891 75.0494 631.672 75.1328 631.453 75.2161C631.562 75.013 631.682 74.8254 631.792 74.6223ZM633.224 74.1378C633.448 74.0649 633.667 73.992 633.891 73.9138C633.781 74.0753 633.672 74.242 633.557 74.4035C633.344 74.4973 633.12 74.5702 632.901 74.6587C633.011 74.4868 633.115 74.3149 633.224 74.1378ZM632.885 73.7107C632.651 73.794 632.417 73.8721 632.182 73.9503C632.323 73.6846 632.484 73.445 632.625 73.1741C632.865 73.1064 633.104 73.0387 633.344 72.9657C633.193 73.221 633.037 73.4606 632.885 73.7107ZM634.084 72.7522C634.328 72.6792 634.578 72.6167 634.823 72.5386C634.672 72.7678 634.516 72.9866 634.365 73.2106C634.131 73.2939 633.886 73.3721 633.646 73.4554C633.792 73.2158 633.943 72.9918 634.084 72.7522ZM633.75 72.3146C633.479 72.3927 633.214 72.4709 632.943 72.549C633.031 72.3823 633.104 72.1948 633.188 72.0281C633.479 71.9552 633.766 71.8926 634.058 71.8197C633.959 71.9916 633.849 72.1479 633.75 72.3146ZM634.787 71.6218C635.058 71.5488 635.323 71.4655 635.6 71.3926C635.49 71.5592 635.381 71.7103 635.271 71.8718C635.011 71.9552 634.745 72.0229 634.485 72.101C634.584 71.9343 634.688 71.7885 634.787 71.6218ZM636.365 71.1842C636.594 71.1217 636.824 71.0592 637.058 70.9914C636.944 71.1529 636.824 71.2988 636.709 71.4603C636.49 71.5332 636.266 71.5801 636.047 71.6478C636.152 71.4915 636.261 71.3457 636.365 71.1842ZM636.042 70.7362C635.756 70.8143 635.469 70.8977 635.183 70.9758C635.297 70.7727 635.407 70.5591 635.516 70.3559C635.829 70.2882 636.141 70.2049 636.449 70.1319C636.324 70.3455 636.173 70.5278 636.042 70.7362ZM637.194 69.9548C637.449 69.8975 637.704 69.835 637.959 69.7725C637.829 69.9652 637.688 70.1319 637.553 70.3195C637.308 70.3924 637.058 70.4549 636.808 70.5278C636.933 70.3299 637.069 70.158 637.194 69.9548ZM638.741 69.5902C638.959 69.5329 639.189 69.486 639.407 69.4287C639.282 69.5954 639.142 69.7464 639.017 69.9079C638.798 69.9756 638.579 70.0329 638.36 70.0955C638.485 69.9183 638.621 69.7673 638.741 69.5902ZM636.152 69.0953C636.501 69.0328 636.844 68.9494 637.194 68.8869C637.074 69.0849 636.975 69.3089 636.85 69.5068C636.506 69.5902 636.167 69.6787 635.818 69.7516C635.938 69.5433 636.037 69.3089 636.152 69.0953ZM634.438 69.3818C634.792 69.3245 635.157 69.288 635.511 69.2255C635.391 69.4443 635.287 69.6891 635.167 69.9079C634.803 69.9861 634.443 70.0694 634.078 70.1423C634.203 69.8923 634.318 69.6318 634.438 69.3818ZM633.823 69.4756C633.698 69.7308 633.584 70.0017 633.453 70.2569C633.115 70.3247 632.766 70.382 632.422 70.4445C632.547 70.1684 632.682 69.9079 632.807 69.6266C633.146 69.5745 633.485 69.5276 633.823 69.4756ZM632.214 69.71C632.088 70.0017 631.948 70.2726 631.823 70.5591C631.416 70.632 631.015 70.7101 630.614 70.7779C630.729 70.4914 630.828 70.1892 630.942 69.9027C631.364 69.8454 631.792 69.7725 632.214 69.71ZM630.401 69.9809C630.286 70.2778 630.187 70.5851 630.073 70.8768C629.692 70.9446 629.322 71.0227 628.947 71.08C629.052 70.7674 629.145 70.4445 629.249 70.1267C629.635 70.0798 630.015 70.0329 630.401 69.9809ZM628.702 70.1788C628.598 70.5018 628.505 70.8352 628.395 71.1581C627.958 71.2259 627.515 71.2727 627.077 71.3353C627.176 70.9967 627.27 70.6581 627.369 70.3142C627.817 70.2674 628.26 70.2309 628.702 70.1788ZM626.905 70.3611C626.806 70.7049 626.723 71.054 626.619 71.3978C626.202 71.4551 625.785 71.5176 625.369 71.5697C625.457 71.2102 625.535 70.8508 625.624 70.4914C626.051 70.4497 626.478 70.4028 626.905 70.3611ZM625.077 70.5487C624.988 70.9133 624.91 71.278 624.816 71.6426C624.368 71.6999 623.926 71.7728 623.472 71.8249C623.556 71.4394 623.634 71.054 623.712 70.6685C624.165 70.6372 624.618 70.5851 625.077 70.5487ZM623.212 70.6997C623.129 71.0904 623.056 71.4863 622.978 71.877C622.514 71.9291 622.045 71.9604 621.581 72.0072C621.649 71.6009 621.727 71.1946 621.795 70.7831C622.264 70.7518 622.738 70.7362 623.212 70.6997ZM621.316 70.8091C621.248 71.2259 621.186 71.6374 621.118 72.0541C620.628 72.101 620.138 72.1479 619.649 72.1896C619.706 71.7572 619.779 71.33 619.836 70.8977C620.331 70.8768 620.826 70.8404 621.316 70.8091ZM619.315 70.9289C619.258 71.3665 619.18 71.8041 619.123 72.2417C618.69 72.2781 618.253 72.3302 617.82 72.3615C617.862 71.9083 617.904 71.4551 617.945 71.0019C618.399 70.9862 618.857 70.9498 619.315 70.9289ZM617.425 71.0123C617.383 71.4759 617.341 71.9343 617.294 72.3927C616.799 72.4292 616.294 72.45 615.799 72.4813C615.825 72.002 615.862 71.528 615.888 71.0487C616.398 71.0331 616.914 71.0331 617.425 71.0123ZM370.679 277.548C395.423 252.69 406.451 218.027 417.119 184.495C418.812 179.156 420.568 173.645 422.339 168.29C433.158 135.596 452.193 90.1927 492.241 73.247C517.944 62.3754 546.891 65.527 574.891 68.5744C577.725 68.8817 580.548 69.189 583.356 69.4808C593.801 70.5643 604.724 71.3144 615.565 71.054C615.539 71.5384 615.497 72.0177 615.471 72.5021C604.907 73.1376 594.238 72.7834 584.038 72.0854C581.163 71.8874 578.277 71.6791 575.376 71.4603C556.45 70.059 536.879 68.6108 518.23 71.6843C509.583 73.1064 501.858 75.362 494.617 78.5709C455.282 96.001 435.398 140.811 423.849 172.983C422.068 177.953 420.302 183.058 418.588 187.991C407.18 220.892 395.365 254.935 370.199 279.064C366.1 283.002 361.62 286.685 356.869 290.019C345.914 297.713 333.271 303.73 318.842 308.345C339.96 301.354 357.15 291.128 370.679 277.548ZM356.02 297.828C360.911 295.15 365.605 292.134 369.975 288.868C398.329 267.718 414.587 235.952 430.319 205.228C431.637 202.655 432.955 200.076 434.289 197.503C452.594 162.023 474.155 126.626 507.739 108.008C514.355 104.351 521.382 101.351 529.201 98.8452C544.886 93.7818 560.883 91.6773 576.355 89.6405C579.934 89.1769 583.637 88.6872 587.221 88.1767C596.468 86.8588 605.782 85.1658 614.804 82.6705C614.757 83.1237 614.679 83.577 614.632 84.0302C605.865 86.9369 596.786 89.0414 587.763 90.7813C583.929 91.5262 579.965 92.2347 576.126 92.9275C561.425 95.5738 546.225 98.3035 531.201 103.685C523.497 106.43 516.579 109.597 510.062 113.358C477.452 132.226 455.11 167.17 435.831 202.123C434.731 204.113 433.637 206.103 432.544 208.098C415.858 238.453 398.611 269.833 369.559 290.337C365.162 293.447 360.448 296.306 355.551 298.849C340.845 306.496 324.525 311.247 307.256 314.435C324.546 311.038 341.236 305.954 356.02 297.828ZM355.561 300.786C360.521 298.359 365.292 295.619 369.741 292.644C399.772 272.61 418.145 241.417 435.904 211.25L438.274 207.234C457.136 175.244 480.015 139.451 512.901 119.599C519.283 115.76 526.034 112.452 533.561 109.498C547.808 103.862 562.17 100.549 576.053 97.345C580.163 96.3917 584.419 95.4123 588.508 94.4069C597.181 92.266 605.907 89.7655 614.33 86.5098C614.278 86.9473 614.216 87.3849 614.164 87.8277C605.975 91.521 597.468 94.4486 589.008 97.0272C584.612 98.366 580.231 99.611 575.589 100.929C562.535 104.648 549.032 108.498 535.525 114.358C528.133 117.546 521.486 121.011 515.209 124.959C483.547 144.9 460.606 178.812 439.831 211.834L438.675 213.667C418.937 245.022 400.298 274.636 369.345 294.098C364.876 296.916 360.088 299.5 355.119 301.797C339.569 308.975 322.478 313.174 304.735 315.883C322.624 312.945 340.002 308.423 355.561 300.786ZM355.103 303.745C360.104 301.583 364.943 299.114 369.501 296.421C401.668 277.392 422.297 246.683 442.248 216.98C461.507 188.293 485.475 152.589 518.069 131.184C524.216 127.163 530.706 123.553 537.916 120.151C550.507 114.176 563.04 109.889 575.167 105.742C580.241 104.013 585.033 102.372 589.805 100.627C597.895 97.6679 606.032 94.3549 613.856 90.3229C613.804 90.7397 613.752 91.1616 613.7 91.5783C606.089 96.0843 598.14 99.8454 590.237 103.263C585.023 105.523 579.757 107.638 574.172 109.884C563.03 114.364 551.502 118.995 539.859 125.032C532.774 128.663 526.404 132.434 520.361 136.56C489.507 157.678 465.841 190.757 444.962 219.939L443.816 221.544C424.407 248.658 402.413 279.397 369.142 297.854C364.558 300.396 359.692 302.714 354.676 304.745C339.262 310.986 322.452 314.586 305.1 316.857C322.65 314.362 339.606 310.46 355.103 303.745ZM354.41 308.178C359.484 306.402 364.443 304.35 369.152 302.078C402.346 286.029 425.49 259.576 448.213 231.582C450.771 228.425 453.349 225.221 455.959 221.976C476.124 196.925 498.966 168.529 525.81 148.567C531.498 144.348 537.588 140.285 544.443 136.133C553.882 130.392 563.16 125.459 572.13 120.688C578.986 117.051 585.455 113.613 591.743 109.957C598.963 105.758 606.219 101.215 613.158 95.9697C613.106 96.3344 613.075 96.7042 613.023 97.0689C606.272 102.877 599.171 107.941 592.108 112.634C585.158 117.255 577.907 121.61 570.229 126.22C562.488 130.866 554.492 135.675 546.339 141.035C539.63 145.421 533.66 149.646 528.081 153.948C503.337 173.124 482.24 197.987 461.835 222.038C457.689 226.919 453.776 231.53 449.817 236.114C427.652 261.764 403.143 288.086 368.819 303.495C364.099 305.615 359.125 307.522 354.025 309.168C338.803 314.065 322.373 316.659 305.615 318.279C322.561 316.435 339.116 313.518 354.41 308.178ZM613.82 97.0376C613.768 97.3189 613.715 97.595 613.663 97.8711C613.492 98.043 613.325 98.2253 613.148 98.392C613.195 98.1055 613.236 97.819 613.278 97.5325C613.465 97.3762 613.637 97.1991 613.82 97.0376ZM354.186 309.658C359.302 308.006 364.292 306.089 369.033 303.964C403.45 288.519 428.001 262.144 450.203 236.458C454.167 231.863 458.084 227.253 462.226 222.372C482.615 198.342 503.696 173.494 528.399 154.355C533.962 150.062 539.921 145.843 546.621 141.467C554.763 136.107 562.764 131.304 570.489 126.663C578.178 122.047 585.435 117.687 592.389 113.066C599.317 108.456 606.287 103.502 612.929 97.8346C612.882 98.1368 612.856 98.4389 612.809 98.741C606.193 105.185 599.317 110.78 592.722 115.765C584.945 121.646 576.683 127.194 567.937 133.065C561.639 137.3 555.127 141.67 548.501 146.369C541.906 151.021 536.072 155.397 530.654 159.757C508.234 177.848 488.246 200.274 468.92 221.965C463.023 228.586 457.454 234.832 451.813 240.964C425.11 270.01 400.752 292.077 368.715 305.376C363.943 307.355 358.921 309.126 353.806 310.637C337.814 315.357 320.566 317.664 303.073 319.045C320.759 317.44 338.131 314.825 354.186 309.658ZM613.46 98.8088C613.403 99.1005 613.33 99.3922 613.273 99.6839C613.143 99.8298 613.018 99.9756 612.887 100.116C612.934 99.8298 612.976 99.5433 613.018 99.2567C613.169 99.1109 613.314 98.9546 613.46 98.8088ZM353.952 311.132C359.093 309.616 364.12 307.84 368.908 305.85C401.038 292.519 425.438 270.411 452.193 241.318C457.834 235.176 463.403 228.925 469.3 222.304C488.616 200.628 508.588 178.224 530.977 160.153C536.384 155.798 542.219 151.438 548.798 146.796C555.419 142.092 561.931 137.722 568.223 133.492C576.975 127.616 585.242 122.058 593.03 116.166C599.463 111.306 606.173 105.883 612.642 99.6422C612.59 99.96 612.517 100.273 612.465 100.596C606.178 107.482 599.625 113.509 593.342 118.885C584.575 126.392 575.042 133.481 564.952 140.983C560.316 144.431 555.518 148 550.658 151.709C543.969 156.793 538.426 161.189 533.233 165.549C513.37 182.235 494.95 202.035 477.129 221.179C469.097 229.811 461.512 237.958 453.813 245.829C430.356 269.791 403.799 293.822 368.611 307.256C363.776 309.1 358.723 310.731 353.587 312.111C337.814 316.346 320.889 318.326 303.792 319.498C321.082 318.107 338.121 315.799 353.952 311.132ZM353.717 312.611C358.869 311.226 363.943 309.585 368.788 307.73C404.08 294.264 430.684 270.193 454.183 246.188C461.882 238.312 469.467 230.16 477.504 221.528C495.315 202.394 513.729 182.61 533.556 165.945C538.755 161.59 544.287 157.199 550.976 152.115C555.83 148.406 560.618 144.848 565.259 141.399C575.355 133.888 584.898 126.793 593.681 119.271C599.791 114.046 606.152 108.217 612.288 101.575C612.236 101.867 612.174 102.164 612.121 102.455C606.162 109.79 599.937 116.249 593.962 122.011C584.023 131.606 572.901 140.675 561.118 150.271C558.393 152.495 555.627 154.746 552.83 157.048C548.22 160.814 542.115 165.841 535.801 171.353C518.855 186.183 502.545 203.066 486.777 219.397C476.124 230.42 466.07 240.828 455.808 250.684C433.184 272.417 405.122 296.353 368.506 309.132C363.651 310.825 358.562 312.325 353.374 313.585C337.689 317.383 320.941 319.045 304.089 319.998C321.123 318.821 337.986 316.831 353.717 312.611ZM572.302 205.093C524.049 278.694 439.404 325.353 351.405 326.859C336.584 327.114 321.384 326.145 306.694 325.207C304.162 325.046 301.615 324.895 299.073 324.738C300.745 324.817 302.438 324.884 304.099 324.968C319.748 325.739 335.938 326.541 351.639 325.895C356.958 325.681 362.365 325.275 367.72 324.697C403.648 320.795 438.758 309.121 472.071 289.998C503.65 271.86 532.952 246.991 556.799 218.079C561.67 212.172 566.296 206.109 570.557 200.045C581.58 184.329 590.873 167.586 598.192 150.234C598.619 149.234 599.036 148.224 599.447 147.218C602.391 139.993 604.974 132.674 607.261 125.287C600.02 153.459 588.399 180.542 572.302 205.093ZM598.968 147.031C598.562 148.031 598.14 149.031 597.718 150.036C590.409 167.347 581.142 184.058 570.135 199.743C565.884 205.796 561.264 211.86 556.409 217.751C532.592 246.616 503.332 271.443 471.811 289.545C438.56 308.631 403.518 320.29 367.663 324.181C362.323 324.765 356.921 325.171 351.623 325.384C335.938 326.03 319.769 325.228 304.126 324.457C302.136 324.358 300.114 324.275 298.114 324.181C299.208 324.218 300.312 324.249 301.401 324.285C318.055 324.89 335.277 325.509 351.873 324.421C357.202 324.072 362.573 323.53 367.84 322.811C402.726 318.039 437.133 305.36 470.076 285.122C499.909 266.796 529.003 241.609 554.221 212.287C559.284 206.395 564.045 200.488 568.385 194.721C580.621 178.427 590.857 161.398 598.807 144.113C599.994 141.53 601.14 138.946 602.24 136.341C604.24 131.601 606.001 126.814 607.694 122.016C605.198 130.45 602.323 138.805 598.968 147.031ZM601.766 136.143C600.672 138.738 599.531 141.321 598.338 143.9C590.404 161.148 580.189 178.151 567.968 194.414C563.644 200.17 558.888 206.072 553.83 211.948C528.649 241.234 499.597 266.39 469.81 284.685C436.925 304.886 402.59 317.545 367.767 322.306C362.516 323.019 357.156 323.561 351.842 323.91C335.266 324.994 318.06 324.374 301.422 323.775C300.609 323.743 299.786 323.723 298.979 323.697C316.56 324.103 334.714 324.509 352.108 322.946C357.421 322.472 362.75 321.79 367.959 320.93C401.809 315.331 435.492 301.646 468.091 280.262C496.232 261.795 524.341 236.973 551.642 206.494C556.982 200.524 561.743 194.935 566.207 189.392C579.267 173.139 589.727 157.308 598.176 141.009C601.39 134.799 604.302 128.611 606.917 122.412C607.501 121.037 607.959 119.661 608.511 118.286C606.49 124.277 604.256 130.236 601.766 136.143ZM597.718 140.774C589.289 157.043 578.85 172.837 565.811 189.074C561.352 194.607 556.591 200.191 551.252 206.15C523.986 236.603 495.914 261.389 467.81 279.83C435.273 301.177 401.648 314.831 367.871 320.42C362.683 321.28 357.364 321.962 352.061 322.436C334.917 323.973 317.013 323.598 299.661 323.191C317.201 323.379 335.178 323.436 352.337 321.467C357.609 320.868 362.901 320.05 368.079 319.045C401.351 312.564 433.419 298.281 466.107 275.391C491.892 257.331 519.027 232.9 549.048 200.696C554.638 194.732 559.54 189.283 564.03 184.074C577.855 167.987 588.815 152.891 597.536 137.904C602.198 129.892 606.178 121.922 609.73 113.947C606.339 122.896 602.354 131.814 597.718 140.774ZM597.088 137.644C588.383 152.605 577.449 167.68 563.644 183.73C559.149 188.944 554.257 194.377 548.678 200.347C518.673 232.525 491.564 256.93 465.805 274.969C433.184 297.817 401.184 312.075 367.975 318.539C362.823 319.545 357.536 320.357 352.28 320.962C335.37 322.894 317.659 322.863 300.349 322.686C317.841 322.644 335.641 322.353 352.571 319.993C357.864 319.253 363.12 318.3 368.199 317.159C400.387 309.934 431.762 294.681 464.117 270.526C494.023 248.189 522.304 219.783 546.469 194.909C552.57 188.642 557.456 183.506 561.858 178.75C576.746 162.575 587.878 148.614 596.89 134.799C601.974 127.017 606.355 119.396 610.21 111.801C606.475 120.406 602.125 129.001 597.088 137.644ZM610.824 109.503C606.746 117.76 602 126.048 596.463 134.523C587.466 148.302 576.344 162.247 561.477 178.395C557.081 183.157 552.194 188.288 546.1 194.549C521.95 219.413 493.684 247.803 463.809 270.114C431.517 294.223 400.205 309.449 368.084 316.654C363.021 317.795 357.781 318.748 352.498 319.488C335.902 321.8 318.451 322.118 301.276 322.165C318.628 321.899 336.178 321.253 352.795 318.519C358.078 317.649 363.302 316.555 368.314 315.273C399.887 307.235 429.694 291.467 462.127 265.655C486.136 246.543 509.468 223.335 532.024 200.889C535.999 196.94 539.948 193.002 543.886 189.116C549.324 183.766 554.617 178.536 559.685 173.421C570.583 162.367 584.591 147.63 596.249 131.695C601.812 124.1 606.641 116.661 610.871 109.253C610.856 109.337 610.84 109.42 610.824 109.503ZM611.158 107.701C606.766 115.52 601.708 123.37 595.832 131.398C584.195 147.296 570.203 162.018 559.315 173.061C554.257 178.171 548.96 183.396 543.526 188.746C539.593 192.637 535.634 196.576 531.665 200.524C509.114 222.96 485.792 246.162 461.809 265.254C429.434 291.019 399.684 306.756 368.183 314.773C363.183 316.055 357.979 317.143 352.712 318.008C336.621 320.66 319.639 321.347 302.808 321.629C319.816 321.128 336.907 320.107 353.03 317.039C358.249 316.049 363.433 314.82 368.434 313.393C398.928 304.683 428.074 287.972 460.147 260.795C478.036 245.626 495.903 227.914 513.188 210.792C522.398 201.67 531.925 192.231 541.307 183.323C544.49 180.312 547.626 177.364 550.731 174.462C553.012 172.316 555.273 170.196 557.508 168.092C569.812 156.449 583.919 142.837 595.608 128.595C601.604 121.297 606.714 114.249 611.241 107.253C611.21 107.404 611.184 107.55 611.158 107.701ZM611.783 106.623C611.783 106.628 611.783 106.628 611.778 106.633C611.793 106.55 611.809 106.472 611.825 106.388C611.83 106.378 611.835 106.373 611.84 106.367C611.819 106.451 611.804 106.539 611.783 106.623ZM611.47 105.998C606.813 113.296 601.469 120.646 595.218 128.267C583.538 142.488 569.442 156.084 557.154 167.717C554.924 169.821 552.658 171.941 550.376 174.087C547.272 176.989 544.136 179.943 540.948 182.954C531.561 191.861 522.038 201.3 512.823 210.427C495.544 227.545 477.682 245.246 459.809 260.399C427.798 287.529 398.715 304.209 368.288 312.893C363.302 314.315 358.135 315.544 352.931 316.534C336.449 319.67 318.946 320.654 301.542 321.144C319.128 320.436 336.741 319.128 353.259 315.565C358.442 314.445 363.589 313.08 368.553 311.507C406.805 299.38 436.529 275.433 458.157 255.924C471.681 243.714 485.423 229.884 498.716 216.511C511.724 203.415 525.174 189.882 538.723 177.525C544.485 172.295 550.079 167.367 555.33 162.773L556.372 161.851C570.364 149.505 583.58 137.842 594.973 125.49C600.229 119.781 605.98 113.119 611.575 105.435C611.543 105.622 611.507 105.81 611.47 105.998ZM612.137 104.982C612.116 105.013 612.095 105.044 612.075 105.075C612.101 104.93 612.132 104.789 612.158 104.648C612.184 104.617 612.205 104.586 612.231 104.555C612.194 104.695 612.168 104.841 612.137 104.982ZM611.804 104.195C606.016 112.249 600.041 119.219 594.587 125.136C583.215 137.472 570.015 149.125 556.028 161.465L554.987 162.382C549.741 166.987 544.141 171.91 538.38 177.15C524.82 189.507 511.359 203.051 498.352 216.147C485.068 229.519 471.332 243.344 457.814 255.544C436.226 275.022 406.555 298.922 368.392 311.017C363.448 312.585 358.322 313.945 353.144 315.06C338.715 318.18 323.426 319.503 308.053 320.279C323.598 319.29 338.996 317.597 353.488 314.086C358.697 312.825 363.808 311.319 368.668 309.616C405.383 296.807 433.502 272.823 456.167 251.054C466.435 241.193 476.494 230.785 487.142 219.752C502.91 203.431 519.21 186.553 536.14 171.738C542.448 166.232 548.543 161.21 553.153 157.444C555.95 155.147 558.716 152.891 561.446 150.672C573.229 141.066 584.361 131.997 594.327 122.381C599.901 116.999 605.995 110.691 611.944 103.419C611.903 103.679 611.851 103.935 611.804 104.195ZM612.528 103.169C612.481 103.231 612.439 103.289 612.398 103.351C612.434 103.153 612.455 102.95 612.491 102.752C612.549 102.679 612.606 102.606 612.663 102.539C612.616 102.747 612.569 102.961 612.528 103.169ZM613.45 101.861C613.393 101.94 613.34 102.012 613.283 102.091C613.314 101.945 613.351 101.799 613.377 101.653C613.439 101.575 613.502 101.502 613.564 101.429C613.528 101.57 613.486 101.716 613.45 101.861ZM612.877 101.523C612.793 101.627 612.71 101.731 612.627 101.835C612.668 101.575 612.705 101.314 612.747 101.054C612.851 100.945 612.95 100.825 613.054 100.71C612.997 100.981 612.934 101.252 612.877 101.523ZM614.278 100.679C614.268 100.7 614.257 100.715 614.242 100.731C614.257 100.668 614.268 100.601 614.289 100.538C614.304 100.512 614.325 100.491 614.346 100.465C614.32 100.538 614.299 100.611 614.278 100.679ZM613.794 100.398C613.726 100.481 613.663 100.559 613.596 100.637C613.648 100.403 613.7 100.163 613.752 99.9235C613.815 99.8506 613.882 99.7777 613.945 99.7047C613.887 99.934 613.851 100.168 613.794 100.398ZM614.705 99.2776C614.643 99.3557 614.575 99.4287 614.513 99.5068C614.565 99.3088 614.596 99.1109 614.648 98.9129C614.731 98.8192 614.815 98.7254 614.898 98.6316C614.83 98.8452 614.768 99.0588 614.705 99.2776ZM614.174 98.6681C614.106 98.7462 614.038 98.8192 613.971 98.8973C614.023 98.6369 614.085 98.3816 614.137 98.1211C614.205 98.0534 614.273 97.9805 614.346 97.9076C614.283 98.1628 614.236 98.4129 614.174 98.6681ZM615.612 98.0326C615.591 98.0586 615.57 98.0847 615.549 98.1107C615.586 98.0013 615.622 97.8919 615.659 97.7773C615.679 97.7513 615.7 97.7252 615.726 97.6992C615.685 97.8086 615.648 97.918 615.612 98.0326ZM615.252 97.4544C615.127 97.6002 615.002 97.7357 614.877 97.8763C614.929 97.6575 614.971 97.4387 615.023 97.2199C615.169 97.0741 615.31 96.9282 615.455 96.7772C615.393 97.0064 615.32 97.2304 615.252 97.4544ZM614.554 96.9647C614.476 97.0428 614.398 97.1262 614.315 97.2043C614.361 96.9595 614.398 96.7146 614.445 96.4698C614.539 96.3917 614.627 96.3031 614.721 96.2198C614.658 96.4698 614.612 96.7146 614.554 96.9647ZM616.174 96.4125C616.127 96.4698 616.081 96.5219 616.034 96.574C616.086 96.3865 616.153 96.1989 616.211 96.0166C616.263 95.9593 616.32 95.902 616.372 95.8447C616.31 96.0374 616.242 96.225 616.174 96.4125ZM615.773 95.7249C615.596 95.9124 615.414 96.0895 615.231 96.2771C615.284 96.0583 615.325 95.8395 615.377 95.6207C615.575 95.4436 615.773 95.2613 615.971 95.0789C615.909 95.2977 615.836 95.5113 615.773 95.7249ZM617.159 95.2456C617.122 95.2977 617.081 95.3498 617.044 95.3967C617.081 95.2821 617.117 95.1675 617.154 95.0529C617.2 95.0008 617.253 94.9591 617.294 94.907C617.253 95.0216 617.206 95.1362 617.159 95.2456ZM616.773 94.7091C616.695 94.7872 616.622 94.8602 616.544 94.9383C616.596 94.7612 616.664 94.5841 616.716 94.4017C616.794 94.3288 616.878 94.2559 616.956 94.183C616.898 94.3549 616.831 94.532 616.773 94.7091ZM617.794 93.6724C617.701 93.7714 617.607 93.86 617.513 93.9537C617.56 93.8183 617.602 93.6881 617.648 93.5526C617.747 93.4589 617.852 93.3651 617.951 93.2713C617.904 93.4068 617.846 93.5422 617.794 93.6724ZM617.315 93.1567C617.19 93.2766 617.06 93.3859 616.93 93.5058C616.997 93.2713 617.039 93.0317 617.102 92.7973C617.253 92.6775 617.409 92.5525 617.56 92.4274C617.482 92.6723 617.393 92.9119 617.315 93.1567ZM618.393 92.1722C618.258 92.3076 618.112 92.4274 617.971 92.5577C618.044 92.3441 618.112 92.1305 618.18 91.9221C618.336 91.7919 618.492 91.6721 618.649 91.5419C618.565 91.7502 618.472 91.9638 618.393 92.1722ZM619.347 91.3022C619.31 91.3335 619.274 91.37 619.237 91.4064C619.3 91.2345 619.373 91.0678 619.435 90.8959C619.482 90.8595 619.534 90.8178 619.581 90.7813C619.508 90.9532 619.42 91.1251 619.347 91.3022ZM618.992 90.5938C618.826 90.7397 618.649 90.8751 618.477 91.0157C618.555 90.7709 618.643 90.5313 618.716 90.2864C618.888 90.1614 619.06 90.0416 619.227 89.9166C619.144 90.1406 619.076 90.3698 618.992 90.5938ZM620.488 90.1041C620.461 90.1302 620.435 90.1562 620.415 90.1823C620.43 90.1406 620.451 90.0989 620.472 90.0572C620.493 90.0364 620.519 90.0104 620.545 89.9895C620.524 90.0312 620.503 90.0677 620.488 90.1041ZM620.066 89.7239C619.972 89.8072 619.873 89.8749 619.779 89.9583C619.852 89.7603 619.909 89.5676 619.977 89.3748C620.086 89.2915 620.196 89.2186 620.3 89.1404C620.217 89.3332 620.149 89.5311 620.066 89.7239ZM621.253 88.6143C621.154 88.7028 621.061 88.8018 620.967 88.8904C621.008 88.781 621.04 88.6768 621.087 88.5674C621.186 88.4893 621.295 88.4163 621.399 88.333C621.352 88.4268 621.295 88.5205 621.253 88.6143ZM620.654 88.2496C620.524 88.3486 620.394 88.432 620.264 88.5309C620.347 88.3017 620.42 88.0725 620.498 87.8433C620.633 87.7495 620.779 87.6662 620.92 87.5724C620.826 87.7964 620.743 88.0256 620.654 88.2496ZM622.165 87.7548C622.134 87.786 622.097 87.8173 622.066 87.8485C622.087 87.8069 622.108 87.76 622.128 87.7131C622.165 87.6818 622.201 87.6506 622.238 87.6193C622.212 87.6662 622.191 87.7131 622.165 87.7548ZM621.899 87.2338C621.743 87.3589 621.597 87.4995 621.441 87.6193C621.509 87.4526 621.566 87.2807 621.634 87.1088C621.779 87.0098 621.936 86.9213 622.082 86.8223C622.019 86.9577 621.962 87.0984 621.899 87.2338ZM622.915 86.3743C622.826 86.442 622.748 86.515 622.665 86.5827C622.712 86.4785 622.764 86.3795 622.811 86.2753C622.899 86.2076 622.988 86.1347 623.076 86.0722C623.019 86.1712 622.967 86.2701 622.915 86.3743ZM622.514 85.8534C622.321 85.9888 622.139 86.1503 621.946 86.2858C622.029 86.0722 622.102 85.8534 622.186 85.6398C622.373 85.5304 622.566 85.4366 622.748 85.3221C622.67 85.4992 622.592 85.6763 622.514 85.8534ZM624.337 85.1658C624.233 85.2491 624.129 85.3429 624.025 85.4262C624.051 85.3793 624.077 85.3377 624.098 85.2908C624.196 85.2179 624.295 85.1397 624.389 85.0668C624.374 85.0981 624.358 85.1345 624.337 85.1658ZM623.67 84.9678C623.54 85.0616 623.415 85.1658 623.29 85.2595C623.353 85.1189 623.426 84.9782 623.488 84.8376C623.623 84.749 623.754 84.6501 623.889 84.5615C623.816 84.6969 623.743 84.8324 623.67 84.9678ZM623.139 84.4521C622.915 84.5928 622.696 84.7438 622.472 84.8845C622.566 84.6396 622.655 84.3896 622.748 84.1448C622.972 84.025 623.202 83.926 623.426 83.8062C623.332 84.0197 623.233 84.2333 623.139 84.4521ZM625.009 83.9468C624.9 84.0302 624.79 84.1135 624.681 84.1969C624.733 84.1031 624.785 84.0093 624.832 83.9156C624.936 83.8478 625.04 83.7697 625.145 83.6968C625.098 83.7801 625.056 83.8687 625.009 83.9468ZM624.431 83.5665C624.259 83.6759 624.098 83.801 623.926 83.9103C624.004 83.728 624.098 83.5561 624.176 83.379C624.358 83.2748 624.525 83.155 624.707 83.0508C624.618 83.2279 624.519 83.3894 624.431 83.5665ZM626.098 83.1185C626.046 83.1602 625.988 83.1967 625.936 83.2384C625.962 83.1967 625.988 83.1498 626.009 83.1081C626.072 83.0664 626.129 83.0248 626.186 82.9831C626.16 83.03 626.129 83.0717 626.098 83.1185ZM625.707 82.6914C625.587 82.7695 625.473 82.8477 625.358 82.9258C625.426 82.7956 625.494 82.6601 625.556 82.5299C625.681 82.457 625.796 82.3788 625.916 82.3111C625.843 82.4361 625.775 82.5664 625.707 82.6914ZM625.145 82.1757C624.957 82.2851 624.775 82.4101 624.582 82.5195C624.671 82.3163 624.78 82.1236 624.868 81.9204C625.046 81.8319 625.212 81.7173 625.395 81.6287C625.306 81.8058 625.233 81.9986 625.145 82.1757ZM626.983 81.811C626.848 81.9048 626.713 81.9986 626.572 82.0923C626.629 81.9986 626.681 81.8996 626.733 81.8058C626.884 81.7173 627.025 81.6235 627.176 81.5349C627.114 81.6287 627.046 81.7173 626.983 81.811ZM626.426 81.3891C626.265 81.4828 626.108 81.587 625.947 81.6808C626.025 81.5245 626.093 81.3578 626.166 81.2015C626.343 81.113 626.509 81.0088 626.681 80.9202C626.598 81.0765 626.509 81.2328 626.426 81.3891ZM627.796 80.5452C627.614 80.6598 627.431 80.7692 627.249 80.8838C627.322 80.7483 627.395 80.6181 627.468 80.4879C627.645 80.3941 627.817 80.2899 627.994 80.1962C627.926 80.3108 627.864 80.4358 627.796 80.5452ZM627.15 80.0711C626.942 80.1805 626.739 80.3056 626.53 80.415C626.619 80.2274 626.702 80.0295 626.791 79.8419C627.015 79.743 627.233 79.6179 627.457 79.5137C627.358 79.7013 627.254 79.8836 627.15 80.0711ZM628.984 79.8159C628.895 79.8732 628.801 79.9253 628.713 79.9774C628.765 79.894 628.812 79.8003 628.864 79.7169C628.973 79.6596 629.078 79.6023 629.187 79.5398C629.119 79.6388 629.046 79.7221 628.984 79.8159ZM628.489 79.3314C628.307 79.4356 628.124 79.5346 627.942 79.6388C628.03 79.4721 628.124 79.3106 628.213 79.1439C628.395 79.0605 628.572 78.9668 628.749 78.8834C628.661 79.0293 628.583 79.1856 628.489 79.3314ZM630.213 79.0605C630.192 79.071 630.171 79.0814 630.151 79.097C630.182 79.0553 630.203 79.0085 630.234 78.9668C630.265 78.9459 630.302 78.9303 630.333 78.9095C630.296 78.9616 630.25 79.0085 630.213 79.0605ZM629.869 78.5761C629.703 78.6699 629.531 78.7584 629.359 78.8574C629.437 78.7324 629.505 78.5969 629.583 78.4719C629.75 78.3938 629.916 78.3104 630.088 78.2271C630.01 78.3365 629.947 78.4615 629.869 78.5761ZM629.213 78.076C629.025 78.1698 628.843 78.2635 628.65 78.3521C628.755 78.1594 628.864 77.9874 628.963 77.7947C629.15 77.7166 629.333 77.628 629.515 77.5499C629.416 77.727 629.317 77.9041 629.213 78.076ZM631.203 77.8416C631.067 77.9249 630.922 77.9927 630.786 78.0708C630.843 77.9822 630.896 77.8885 630.958 77.7999C631.109 77.7218 631.26 77.6541 631.411 77.5759C631.344 77.6645 631.271 77.7478 631.203 77.8416ZM630.599 77.3988C630.416 77.4926 630.229 77.5811 630.041 77.6697C630.13 77.5186 630.218 77.3623 630.307 77.2061C630.494 77.1227 630.682 77.0446 630.87 76.9612C630.776 77.1019 630.692 77.2582 630.599 77.3988ZM632.318 77.2321C632.292 77.2425 632.266 77.2529 632.245 77.2686C632.281 77.2217 632.312 77.1644 632.349 77.1175C632.391 77.0915 632.432 77.0758 632.474 77.055C632.422 77.1123 632.365 77.1696 632.318 77.2321ZM631.995 76.7112C631.823 76.805 631.64 76.8831 631.469 76.9716C631.547 76.8518 631.62 76.7216 631.698 76.6018C631.875 76.5184 632.052 76.4507 632.229 76.3674C632.151 76.4768 632.078 76.6018 631.995 76.7112ZM633.266 76.0913C633.156 76.1486 633.042 76.1955 632.932 76.2528C632.995 76.1642 633.052 76.0705 633.115 75.9819C633.229 75.9298 633.344 75.8881 633.459 75.8308C633.396 75.9142 633.334 76.0079 633.266 76.0913ZM632.771 75.5704C632.573 75.6641 632.37 75.7423 632.177 75.8308C632.271 75.685 632.359 75.5287 632.453 75.3828C632.651 75.3047 632.854 75.2318 633.052 75.1484C632.958 75.2891 632.865 75.4349 632.771 75.5704ZM634.375 75.461C634.386 75.4453 634.396 75.4297 634.407 75.4193C634.448 75.3985 634.49 75.388 634.526 75.3672C634.474 75.3932 634.427 75.4297 634.375 75.461ZM634.073 75.0026C633.938 75.0703 633.792 75.1224 633.651 75.1849C633.735 75.0703 633.813 74.9453 633.896 74.8254C634.042 74.7681 634.188 74.716 634.334 74.6587C634.245 74.7734 634.162 74.8932 634.073 75.0026ZM635.396 74.3618C635.277 74.4191 635.167 74.5025 635.047 74.5598C635.11 74.4764 635.167 74.3931 635.23 74.3149C635.329 74.2681 635.433 74.242 635.527 74.1951C635.485 74.2472 635.443 74.3097 635.396 74.3618ZM634.901 73.8878C634.74 73.9607 634.568 74.0128 634.401 74.0805C634.5 73.9347 634.599 73.7888 634.698 73.6429C634.87 73.5804 635.047 73.5283 635.219 73.4658C635.11 73.6065 635.011 73.7523 634.901 73.8878ZM636.209 73.3564C636.074 73.4189 635.938 73.4815 635.803 73.544C635.891 73.4189 635.985 73.2991 636.074 73.1741C636.204 73.1272 636.339 73.0908 636.469 73.0439C636.381 73.1481 636.298 73.2575 636.209 73.3564ZM635.178 72.9397C635.313 72.7261 635.459 72.5282 635.6 72.3146C635.797 72.2521 636.006 72.2052 636.204 72.1375C636.053 72.3406 635.907 72.5438 635.756 72.7418C635.563 72.8147 635.365 72.8668 635.178 72.9397ZM637.678 72.6011C637.574 72.6532 637.47 72.7157 637.36 72.7626C637.371 72.7522 637.381 72.7365 637.391 72.7261C637.496 72.6844 637.589 72.6271 637.694 72.5855C637.688 72.5907 637.683 72.5959 637.678 72.6011ZM637.074 72.2938C636.923 72.3563 636.761 72.3927 636.61 72.4552C636.746 72.2677 636.886 72.0854 637.022 71.9031C637.183 71.8458 637.35 71.8145 637.511 71.7572C637.365 71.9395 637.22 72.1166 637.074 72.2938ZM638.558 71.6061C638.418 71.6686 638.282 71.7468 638.142 71.8041C638.241 71.6843 638.34 71.5645 638.439 71.4394C638.584 71.3873 638.72 71.3144 638.866 71.2623C638.767 71.3769 638.663 71.4915 638.558 71.6061ZM638.116 71.0123C637.923 71.0852 637.725 71.1529 637.527 71.2207C637.636 71.0644 637.756 70.9237 637.866 70.7674C638.058 70.7101 638.256 70.6633 638.449 70.606C638.34 70.7466 638.225 70.8768 638.116 71.0123ZM640.022 70.9237C639.923 70.9706 639.829 71.0175 639.73 71.0592C639.803 70.9758 639.882 70.8977 639.954 70.8091C640.053 70.7727 640.147 70.7258 640.251 70.6893C640.173 70.7674 640.1 70.8456 640.022 70.9237ZM639.652 70.3768C639.475 70.4445 639.303 70.533 639.121 70.5955C639.189 70.5122 639.256 70.4341 639.324 70.3507C639.491 70.2986 639.657 70.2361 639.829 70.1788C639.772 70.2465 639.71 70.309 639.652 70.3768ZM641.423 70.2726C641.392 70.283 641.361 70.2986 641.324 70.3142C641.366 70.2726 641.408 70.2309 641.444 70.1892C641.481 70.1788 641.517 70.1632 641.554 70.1476C641.507 70.1892 641.465 70.2309 641.423 70.2726ZM641.153 69.7569C641.012 69.8089 640.876 69.8715 640.736 69.9288C640.757 69.9027 640.783 69.8767 640.809 69.8506C640.934 69.8089 641.059 69.7621 641.184 69.7204C641.173 69.7308 641.163 69.7464 641.153 69.7569ZM640.517 69.4026C640.324 69.4651 640.132 69.5381 639.934 69.6006C640.033 69.4703 640.142 69.3557 640.236 69.2255C640.439 69.1734 640.632 69.1057 640.835 69.0484C640.731 69.1682 640.621 69.2828 640.517 69.4026ZM641.965 68.913C641.809 68.9651 641.653 69.0171 641.496 69.0744C641.585 68.9651 641.679 68.8765 641.767 68.7671C641.924 68.7202 642.085 68.6733 642.246 68.6265C642.153 68.7254 642.059 68.814 641.965 68.913ZM643.335 68.4493C643.236 68.4858 643.132 68.5171 643.028 68.5535C643.101 68.4754 643.179 68.4025 643.252 68.3243C643.356 68.2931 643.465 68.2618 643.57 68.2305C643.492 68.3035 643.413 68.3764 643.335 68.4493ZM642.976 67.8659C642.788 67.9232 642.601 67.9805 642.413 68.0378C642.517 67.9076 642.632 67.8034 642.736 67.6732C642.929 67.6263 643.122 67.569 643.314 67.5221C643.205 67.6419 643.085 67.7461 642.976 67.8659ZM644.7 67.944C644.648 67.9649 644.601 67.9857 644.554 68.0066C644.591 67.9701 644.627 67.9388 644.664 67.9024C644.705 67.8867 644.752 67.8763 644.794 67.8607C644.763 67.892 644.731 67.918 644.7 67.944ZM644.393 67.444C644.257 67.4908 644.117 67.5273 643.981 67.569C644.075 67.4648 644.179 67.3762 644.273 67.2668C644.414 67.2304 644.554 67.1939 644.7 67.1574C644.601 67.2564 644.492 67.345 644.393 67.444ZM645.784 66.996C645.69 67.0272 645.601 67.0689 645.507 67.1001C645.58 67.022 645.659 66.9595 645.731 66.8866C645.815 66.8605 645.903 66.8449 645.987 66.8189C645.919 66.8814 645.846 66.9334 645.784 66.996ZM647.211 66.4698C647.19 66.4802 647.164 66.4855 647.143 66.4959C647.148 66.4907 647.154 66.4855 647.159 66.4802C647.18 66.475 647.206 66.4646 647.227 66.4594C647.221 66.4594 647.216 66.4646 647.211 66.4698Z" fill="#4F6C8C"/>
</g>
</svg>
