<svg width="689" height="439" viewBox="0 0 689 439" fill="none" xmlns="http://www.w3.org/2000/svg">
<g id="Frame 78">
<path id="Vector" d="M0.386114 405.659C4.51702 398.074 9.99715 391.198 17.1494 385.535C19.1914 383.915 21.3168 382.488 23.4787 381.144C21.9472 382.222 20.4469 383.374 18.9831 384.598C11.6589 390.724 6.16836 398.183 2.13642 406.398L2.61044 406.596C6.60594 398.454 12.0548 391.062 19.3113 384.994C21.7179 382.978 24.2496 381.207 26.8438 379.576C24.8904 380.967 22.9681 382.431 21.1345 384.056C14.0447 390.338 8.43438 398.267 4.39724 407.352L4.87645 407.555C8.71568 398.85 14.1385 390.943 21.4731 384.447C24.4111 381.847 27.5158 379.571 30.7507 377.555C28.1774 379.378 25.6561 381.306 23.2911 383.525C16.4722 389.916 11.0546 397.876 7.21023 406.982C7.02789 407.414 6.89243 407.888 6.71533 408.331L7.03308 408.466C10.7212 399.329 16.1336 390.937 23.6349 383.9C26.4739 381.238 29.4953 378.909 32.6417 376.81C30.1569 378.706 27.7346 380.712 25.4425 382.993C19.1289 389.27 14.1385 396.767 10.5493 405.278C9.99715 406.586 9.56476 407.977 9.08031 409.331L9.45537 409.487C12.93 399.783 18.2694 390.849 25.8072 383.358C28.6566 380.519 31.6988 378.06 34.84 375.815C32.3291 377.847 29.8964 380.029 27.5939 382.462C21.8846 388.494 17.3214 395.574 13.9666 403.528C13.0394 405.726 12.2424 408.024 11.5026 410.352L12.0288 410.576C15.2741 400.293 20.4313 390.776 27.969 382.811C30.782 379.831 33.8033 377.258 36.9341 374.877C34.4284 377.034 32.0218 379.362 29.7454 381.925C24.6351 387.676 20.499 394.308 17.3786 401.694C16.0711 404.799 14.998 408.071 14.0552 411.431L14.4615 411.602C17.5089 400.835 22.5514 390.781 30.1361 382.264C32.9699 379.071 36.0537 376.31 39.2366 373.752C39.2418 373.752 39.2418 373.752 39.247 373.747C36.6788 376.086 34.2149 378.612 31.8968 381.394C27.3752 386.822 23.661 392.979 20.8011 399.757C19.0977 403.789 17.8058 408.107 16.7119 412.551L17.1598 412.738C19.9259 401.387 24.781 390.745 32.2927 381.727C34.8921 378.602 37.7103 375.851 40.6326 373.289C40.7056 373.268 40.7733 373.242 40.8462 373.221C38.4656 375.57 36.1944 378.107 34.0482 380.858C30.1048 385.916 26.823 391.568 24.2235 397.715C22.1191 402.7 20.551 408.071 19.3686 413.67L19.8634 413.879C22.3378 401.945 27.0157 390.713 34.4597 381.18C36.8455 378.112 39.4293 375.372 42.1121 372.799C42.2527 372.757 42.3882 372.705 42.5236 372.669C40.3097 375.044 38.1947 377.586 36.1996 380.326C32.824 384.962 29.9694 390.057 27.6513 395.548C25.13 401.523 23.2494 407.966 22.0253 414.796L22.5983 415.035C24.9216 402.153 29.563 390.323 36.6216 380.628C38.7782 377.654 41.1067 374.945 43.529 372.403C43.7322 372.346 43.9405 372.299 44.1437 372.241C42.1173 374.612 40.1742 377.107 38.3562 379.8C35.538 383.952 33.1053 388.453 31.0841 393.24C28.1357 400.231 26.1406 407.909 24.9372 416.025L25.4738 416.249C27.4637 402.752 31.8603 390.297 38.7782 380.087C40.7264 377.206 42.8101 374.528 44.998 372.017C45.2637 371.945 45.5294 371.877 45.8002 371.809C43.9561 374.169 42.1746 376.622 40.5181 379.263C38.2416 382.879 36.2413 386.734 34.5222 390.802C31.1258 398.84 28.9848 407.784 27.8596 417.26L28.2139 417.406C29.3391 408.05 31.5738 399.121 35.0067 390.995C36.7049 386.973 38.6844 383.134 40.9452 379.54C42.7111 376.732 44.5917 374.096 46.5712 371.606C46.8733 371.528 47.1755 371.439 47.4776 371.366C45.8002 373.716 44.1697 376.138 42.659 378.737C40.9452 381.696 39.4033 384.796 38.0384 388.025C34.1263 397.293 31.6936 407.607 30.7039 418.458L31.1779 418.656C32.4959 404.049 36.46 390.416 43.1123 378.998C44.7115 376.242 46.4253 373.664 48.2121 371.189C48.5194 371.116 48.832 371.069 49.1394 371.002C47.6391 373.315 46.1701 375.674 44.8157 378.201C43.5863 380.509 42.4559 382.879 41.414 385.337C37.0695 395.636 34.4806 407.274 33.6992 419.724L34.3087 419.979C35.0744 407.56 37.5957 395.746 41.9975 385.317C42.9924 382.957 44.0864 380.654 45.2741 378.451C46.6962 375.784 48.2381 373.289 49.827 370.861C50.1552 370.793 50.4885 370.731 50.8219 370.663C49.4884 372.929 48.1704 375.216 46.9723 377.675C46.2326 379.175 45.5345 380.701 44.873 382.264C39.9555 393.922 37.2623 407.138 36.731 421L37.231 421.213C37.7415 407.341 40.4295 394.12 45.3522 382.462C46.0034 380.915 46.7014 379.394 47.4359 377.899C48.6965 375.315 50.077 372.903 51.4835 370.528C51.8429 370.46 52.1971 370.377 52.5566 370.314C51.3741 372.538 50.1864 374.763 49.1237 377.143C48.8581 377.732 48.6028 378.326 48.3475 378.93C42.8935 391.854 40.1586 406.763 39.9711 422.37L40.4816 422.583C40.6431 406.971 43.3675 392.052 48.8216 379.128C49.0768 378.534 49.3321 377.94 49.5926 377.357C50.7073 374.856 51.9471 372.512 53.1973 370.184C53.562 370.116 53.9318 370.059 54.3017 370.001C53.5203 371.637 52.6972 373.216 51.9732 374.924C51.7387 375.482 51.5095 376.044 51.2751 376.612C45.6544 390.479 42.8987 406.612 43.1174 423.698L43.555 423.881C43.3362 407.081 46.0242 390.932 51.7544 376.805C51.9836 376.237 52.2128 375.68 52.4524 375.127C53.2129 373.315 54.0829 371.637 54.9112 369.908C55.2498 369.856 55.5936 369.809 55.9374 369.757C55.8957 369.856 55.8436 369.944 55.8019 370.043C54.9737 372.012 54.1767 374.023 53.4317 376.081C48.0454 390.844 45.7325 407.669 46.3524 425.063L46.8837 425.287C46.2326 407.873 48.5299 391.031 53.9162 376.258C54.6924 374.127 55.505 372.059 56.3541 370.038C56.4114 369.913 56.4739 369.798 56.526 369.668C56.9688 369.606 57.4116 369.533 57.8544 369.475C57.0939 371.491 56.276 373.445 55.5883 375.549C50.624 390.833 48.6288 408.331 49.6915 426.47L50.301 426.73C49.2122 408.706 51.0668 391.151 56.0832 375.711C56.7865 373.528 57.6096 371.481 58.4013 369.392C58.792 369.34 59.188 369.277 59.5787 369.231C58.9536 371.153 58.3024 373.065 57.745 375.023C53.0775 391.344 51.5981 409.456 53.0723 427.897L53.6036 428.126C52.0982 409.649 53.5672 391.51 58.2399 375.164C58.8181 373.143 59.4745 371.163 60.1256 369.178C60.5736 369.126 61.0268 369.09 61.4748 369.043C60.9643 370.861 60.36 372.648 59.9068 374.487C55.6769 391.521 54.6819 410.357 56.6041 429.392L57.1355 429.616C55.1768 410.545 56.1666 391.672 60.3965 374.617C60.8653 372.726 61.4175 370.861 61.9488 368.996C62.3812 368.949 62.8188 368.902 63.2564 368.861C62.85 370.559 62.4177 372.247 62.053 373.966C58.2555 391.969 57.6148 411.358 59.9641 430.809L60.5111 431.038C58.1253 411.545 58.7504 392.104 62.5583 374.065C62.9282 372.299 63.3762 370.559 63.7981 368.809C64.2617 368.767 64.7202 368.71 65.1838 368.673C64.866 370.262 64.4909 371.835 64.2097 373.429C60.9226 392.208 60.8289 412.332 63.6419 432.361L64.1992 432.596C61.355 412.519 61.4227 392.339 64.7202 373.518C65.0015 371.887 65.3609 370.267 65.6891 368.642C66.1631 368.611 66.6424 368.59 67.1164 368.559C66.882 370.012 66.5642 371.444 66.3611 372.903C63.5794 392.745 63.9804 413.431 67.231 433.877L67.7988 434.117C64.5118 413.618 64.0898 392.87 66.8768 372.971C67.0851 371.486 67.3613 370.012 67.6009 368.532C68.0958 368.501 68.5906 368.47 69.0907 368.444C68.9292 369.757 68.6635 371.059 68.5229 372.372C66.3298 393.042 67.2779 414.462 70.9764 435.461L71.5495 435.7C67.8092 414.645 66.8351 393.157 69.0334 372.424C69.1741 371.085 69.4449 369.751 69.6116 368.413C70.0805 368.392 70.5441 368.355 71.0077 368.335C70.9087 369.507 70.7681 370.668 70.6847 371.84C69.0959 393.672 70.5284 415.629 74.6594 437.013L75.2272 437.253C71.0546 415.806 69.6012 393.782 71.2004 371.877C71.2838 370.694 71.4245 369.512 71.5286 368.324C72.0443 368.308 72.56 368.303 73.0757 368.288C71.862 392.099 73.7374 415.775 78.4777 438.623L78.9622 438.826C74.0707 415.65 72.2058 391.896 73.4039 368.282C84.2339 368.022 95.1525 368.772 105.592 369.856C108.4 370.147 111.223 370.455 114.057 370.762C142.119 373.82 171.129 376.982 196.951 366.058C237.208 349.029 256.29 303.48 267.146 270.703C268.922 265.343 270.672 259.831 272.376 254.492C283.008 221.028 294.025 186.412 318.686 161.643C346.42 133.789 389.615 120.036 450.73 119.594C462.002 119.515 473.525 119.771 484.668 120.01C520.554 120.802 557.665 121.615 592.468 111.467C615.43 104.773 644.956 86.3222 667.679 64.4591C676.144 56.3274 683.176 48.1541 689 40.0746L688.516 39.8715C682.723 47.8885 675.732 56.0045 667.324 64.0892C644.649 85.895 615.216 104.299 592.327 110.972C557.597 121.099 520.528 120.286 484.678 119.5C483.892 119.484 483.084 119.469 482.292 119.453C518.679 119.797 556.232 120.01 591.233 108.956C610.893 102.742 635.183 88.0673 656.213 69.6943C667.923 59.4686 677.722 48.9564 685.395 38.5535L684.906 38.3504C677.264 48.6855 667.522 59.13 655.874 69.3089C634.897 87.6349 610.674 102.273 591.072 108.467C556.034 119.531 518.392 119.281 481.933 118.932C518.205 118.833 555.456 118.208 589.988 106.445C609.366 99.8506 633.313 84.9105 654.036 66.4854C664.965 56.7754 674.154 46.8206 681.592 36.9491L681.113 36.7459C673.706 46.5549 664.563 56.4473 653.692 66.1C633.022 84.4834 609.142 99.387 589.821 105.961C555.513 117.64 518.486 118.312 482.402 118.416C516.481 117.911 554.169 116.588 588.753 103.94C607.856 96.9543 631.448 81.7537 651.863 63.2766C662.027 54.0875 670.637 44.69 677.811 35.3551L677.326 35.1467C670.184 44.4191 661.625 53.7593 651.525 62.8911C631.146 81.3266 607.616 96.4906 588.576 103.455C553.69 116.218 515.595 117.427 481.261 117.921C519.57 116.859 554.289 114.442 587.519 101.434C606.621 93.9433 629.287 78.8626 649.691 60.0624C659.104 51.3995 667.163 42.5594 674.039 33.761L673.549 33.5527C666.71 42.2938 658.698 51.0765 649.347 59.6874C628.979 78.4406 606.376 93.4849 587.326 100.95C554.445 113.827 520.059 116.301 482.173 117.38C516.809 115.963 552.95 112.853 586.274 98.9181C605.069 91.0574 627.39 75.7266 647.514 56.8536C654.103 50.6806 662.464 42.1739 670.413 32.2295L669.924 32.0212C662.021 41.8927 653.713 50.342 647.165 56.4785C627.083 75.3099 604.814 90.6042 586.076 98.4441C552.341 112.556 515.658 115.541 480.605 116.932C520.554 114.796 553.951 110.259 585.039 96.4073C603.537 88.1715 625.515 72.5802 645.341 53.6499C651.457 47.8103 659.151 39.8767 666.632 30.6355L666.142 30.4271C658.703 39.6006 651.061 47.4717 644.982 53.2696C625.203 72.1739 603.277 87.7235 584.831 95.9385C554.357 109.514 521.627 114.119 482.657 116.296C516.236 114.009 551.31 109.279 583.805 93.9016C601.995 85.2856 623.635 69.4443 643.174 50.4358C650.499 43.3096 657.057 36.1521 662.86 29.0415L662.376 28.8383C656.609 35.8916 650.087 42.9918 642.81 50.0659C623.312 69.038 601.724 84.848 583.576 93.4328C550.835 108.935 515.439 113.598 481.6 115.853C513.376 113.316 549.382 108.045 582.56 91.3856C600.448 82.4101 621.749 66.3135 640.997 47.2269C647.649 40.6372 653.666 34.0215 659.078 27.4474L658.583 27.2391C653.202 33.761 647.232 40.3195 640.632 46.857C621.426 65.9124 600.177 81.9725 582.331 90.9272C549.205 107.56 513.246 112.816 481.501 115.348C511.115 112.587 547.726 106.732 581.325 88.8799C599.172 79.3991 619.587 63.4641 638.819 44.0128C644.82 37.9545 650.254 31.8805 655.27 25.8378L654.77 25.6294C649.795 31.62 644.404 37.6471 638.455 43.6534C619.259 63.0682 598.88 78.9668 581.08 88.4267C546.663 106.716 509.042 112.389 479.078 115.051C521.164 110.712 552.544 101.835 580.085 86.3691C597.578 76.5445 617.67 60.3646 636.642 40.8039C642.007 35.2821 646.889 29.7499 651.483 24.2386L650.988 24.0302C646.43 29.4895 641.591 34.9748 636.277 40.4445C617.331 59.9739 597.286 76.1225 579.835 85.9211C552.732 101.137 521.877 109.951 480.74 114.348C520.497 109.545 551.872 99.8402 578.846 83.8583C596.015 73.6846 615.769 57.2547 634.475 37.595C638.731 33.1255 643.258 28.083 647.79 22.681L647.295 22.4726C642.805 27.8173 638.319 32.813 634.105 37.2408C615.43 56.864 595.713 73.2627 578.58 83.4155C551.731 99.3245 520.486 109.003 480.928 113.806C519.596 108.586 550.528 98.2514 577.606 81.3474C594.437 70.8456 613.862 54.1708 632.297 34.3809C636.043 30.375 640.018 25.8586 644.013 21.087L643.529 20.8838C639.564 25.5982 635.631 30.0677 631.928 34.0371C613.513 53.7801 594.124 70.4288 577.34 80.915C550.226 97.8346 519.231 108.159 480.443 113.358C517.981 107.779 549.465 96.5115 576.366 78.8418C593.103 67.845 611.695 51.363 630.13 31.172C633.371 27.6246 636.803 23.6551 640.278 19.5086L639.788 19.3002C636.35 23.3999 632.949 27.3172 629.745 30.8282C611.341 50.9828 592.785 67.4387 576.085 78.4094C549.34 95.9801 518.049 107.206 480.745 112.785C517.241 106.815 548.22 94.907 575.137 76.3309C591.483 65.0425 609.747 48.3156 627.953 27.9631C630.709 24.8845 633.621 21.4829 636.569 17.9458L636.074 17.7374C633.162 21.2224 630.287 24.5772 627.568 27.6193C609.387 47.9406 591.16 64.6362 574.84 75.9038C547.996 94.4382 517.085 106.315 480.672 112.28C516.324 105.93 546.918 93.3755 573.892 73.8148C589.868 62.2399 607.809 45.2735 625.781 24.7543C628.239 21.9517 630.568 19.1648 632.881 16.3882L632.381 16.1747C630.11 18.9147 627.812 21.6548 625.395 24.4157C607.444 44.9036 589.535 61.844 573.589 73.4033C546.569 92.99 515.902 105.544 480.141 111.853C515.178 105.174 545.538 91.9326 572.657 71.304C588.248 59.4426 605.871 42.2365 623.603 21.5454C625.541 19.2846 627.354 17.0602 629.193 14.8307L628.708 14.6275C626.901 16.8154 625.114 18.9928 623.218 21.2068C605.506 41.877 587.91 59.0571 572.339 70.8924C545.329 91.4481 515.09 104.643 480.193 111.316C514.376 104.289 544.314 90.401 571.417 68.7983C586.857 56.4785 603.683 39.5016 621.431 18.3313C622.853 16.6331 624.176 14.9713 625.546 13.294L625.057 13.0856C623.713 14.7213 622.426 16.3466 621.035 18.0031C603.308 39.1422 586.514 56.1035 571.094 68.3972C543.991 89.9947 514.058 103.856 479.87 110.858C513.042 103.539 543.418 88.6247 570.172 66.2823C585.211 53.7228 601.73 36.5115 619.254 15.1172C620.181 13.992 621.03 12.8876 621.936 11.7677L621.447 11.5593C620.571 12.6428 619.754 13.7055 618.858 14.7942C601.349 36.1625 584.857 53.353 569.849 65.8864C543.293 88.0621 513.157 102.893 480.271 110.243C512.537 102.549 542.355 87.0046 568.932 63.7714C583.711 50.863 599.464 33.9017 617.081 11.9083C617.529 11.3561 617.936 10.8144 618.373 10.2622L617.889 10.059C617.477 10.5747 617.097 11.0748 616.685 11.5905C599.078 33.5527 583.346 50.4931 568.594 63.386C542.24 86.416 512.704 101.867 480.756 109.592C512.417 101.491 540.954 85.7075 567.698 61.2606C582.028 48.1594 597.453 30.9897 614.852 8.77755L614.357 8.56917C597.015 30.698 581.638 47.8208 567.354 60.8855C540.516 85.4054 511.886 101.195 480.089 109.232C511.303 100.856 539.646 84.374 566.458 58.7549C580.143 45.6746 594.458 29.2551 611.341 7.29292L610.846 7.08454C594.02 28.9685 579.747 45.3412 566.099 58.3747C539.255 84.0249 510.886 100.497 479.63 108.821C510.328 100.174 538.406 83.0039 565.218 56.2389C578.106 43.3773 591.744 27.2391 607.877 5.83432L607.387 5.62597C591.306 26.963 577.699 43.0491 564.854 55.8742C538.224 82.4569 510.344 99.5537 479.891 108.217C509.808 99.2307 537.396 81.436 563.978 53.728C579.195 37.8711 593.28 19.6128 604.48 4.39657L603.991 4.19341C592.817 19.3784 578.762 37.569 563.609 53.3738C537.135 80.9619 509.677 98.6993 479.907 107.675C509.177 98.3712 536.349 79.9357 562.739 51.2172C576.809 35.902 589.769 18.7064 601.094 2.96926L600.61 2.7661C589.311 18.4615 576.382 35.6051 562.358 50.863C536.265 79.2689 509.412 97.5898 480.521 106.94C509.047 97.2772 534.979 78.6959 561.504 48.7063C574.689 33.6621 586.659 17.4093 597.786 1.57318L597.302 1.37002C586.201 17.1644 574.261 33.3703 561.113 48.3677C535.359 77.4926 510.177 95.8551 482.626 105.701C529.405 88.1246 562.78 46.5028 594.541 0.20316L594.062 0C560.384 49.0866 524.914 92.9119 473.572 108.253C444.15 117.041 412.728 115.041 382.343 113.103C367.637 112.165 352.431 111.196 337.585 111.446C294.578 112.186 251.185 123.969 212.079 145.525C172.984 167.081 139.843 197.487 116.266 233.457C107.733 246.47 100.372 260.331 94.2513 274.839C87.995 289.659 83.0775 305.157 79.4935 321.076C78.9309 323.098 78.4413 325.134 77.9308 327.166C77.3161 328.849 76.691 330.526 76.118 332.208C75.9148 332.709 75.7325 333.209 75.5345 333.704C74.9094 335.053 74.2947 336.397 73.7113 337.741C73.1748 338.793 72.6694 339.85 72.159 340.903C71.961 341.262 71.7422 341.616 71.5442 341.976C70.8462 343.07 70.1742 344.231 69.4918 345.362C68.9605 346.128 68.4499 346.94 67.9239 347.727C67.1477 348.743 66.3715 349.753 65.611 350.805C65.1473 351.368 64.668 351.91 64.2097 352.483C63.5481 353.212 62.8969 353.941 62.2457 354.692C61.7197 355.223 61.2196 355.801 60.7039 356.348C59.912 357.077 59.1827 357.906 58.4118 358.661C57.646 359.323 56.9115 360.047 56.1562 360.734C55.281 361.437 54.4267 362.162 53.5724 362.896C52.7129 363.542 51.8377 364.167 50.9938 364.85C50.0561 365.522 49.0664 366.105 48.1496 366.819C47.561 367.22 46.9462 367.579 46.3576 368.001C45.7585 368.376 45.1543 368.746 44.5656 369.137C43.9613 369.491 43.3675 369.866 42.7736 370.236C41.6432 370.845 40.5806 371.59 39.4762 372.257C39.2678 372.361 39.0751 372.502 38.8667 372.611C37.33 373.32 35.8089 374.07 34.3139 374.883C33.6158 375.211 32.9282 375.549 32.2406 375.898C26.8126 378.305 21.6346 381.321 16.8316 385.124C9.91901 390.604 4.29823 397.532 0.000610457 405.497L0.386114 405.659ZM47.8943 370.731C47.6443 370.788 47.3994 370.861 47.1494 370.918C47.2692 370.778 47.3994 370.653 47.5141 370.512C47.7381 370.449 47.9568 370.371 48.1861 370.309C48.0819 370.444 47.9933 370.595 47.8943 370.731ZM49.4988 370.408C49.2122 370.47 48.9153 370.517 48.6288 370.58C48.7643 370.392 48.9206 370.236 49.0612 370.054C49.3113 369.986 49.5665 369.934 49.8217 369.871C49.7071 370.038 49.6134 370.236 49.4988 370.408ZM51.1449 370.074C50.8219 370.137 50.5042 370.199 50.1812 370.267C50.3114 370.074 50.4312 369.882 50.5615 369.694C50.8636 369.621 51.171 369.553 51.4731 369.481C51.3585 369.668 51.2595 369.882 51.1449 370.074ZM376.441 126.97C360.844 130.981 345.727 136.831 332.287 145.431C327.464 148.52 322.885 151.943 318.67 155.615C292.348 178.546 278.856 211.557 265.797 243.5C264.13 247.59 262.4 251.809 260.681 255.93C260.395 256.628 260.098 257.331 259.801 258.029C245.814 291.165 225.118 330.661 189.007 348.196C182.043 351.582 174.625 354.124 166.326 355.973C148.813 359.896 130.622 359.927 113.036 359.958C109.91 359.958 106.8 359.968 103.722 359.995C93.9961 360.078 83.838 360.557 73.8102 361.953C73.8468 361.469 73.8624 360.984 73.904 360.5C83.4734 358.77 93.3241 357.89 103.097 357.4C106.337 357.234 109.608 357.093 112.895 356.952C129.815 356.228 147.307 355.483 164.284 351.139C172.452 349.06 179.771 346.352 186.658 342.861C222.706 324.561 244.34 284.304 259.165 251.273C260.801 247.621 262.421 243.959 264.041 240.292C277.918 208.864 292.27 176.364 319.113 154.126C323.359 150.609 327.958 147.338 332.787 144.395C346.076 136.289 360.943 130.778 376.441 126.97ZM56.1666 367.246C56.5156 367.162 56.8646 367.095 57.2136 367.017C57.0939 367.282 56.9636 367.538 56.8438 367.808C56.5 367.871 56.1562 367.928 55.8176 367.996C55.9374 367.751 56.0468 367.491 56.1666 367.246ZM55.1925 368.111C54.8382 368.183 54.484 368.241 54.135 368.314C54.2652 368.084 54.4163 367.881 54.5465 367.652C54.8747 367.564 55.2029 367.47 55.5311 367.386C55.4113 367.621 55.307 367.876 55.1925 368.111ZM57.8231 366.881C58.1878 366.798 58.5472 366.714 58.9119 366.636C58.7973 366.912 58.7035 367.209 58.5941 367.485C58.2086 367.548 57.8284 367.626 57.4429 367.694C57.5679 367.418 57.6981 367.152 57.8231 366.881ZM72.0756 350.17C71.7943 350.321 71.5182 350.493 71.2369 350.649C71.3151 350.321 71.4036 349.993 71.487 349.665C71.763 349.493 72.0339 349.31 72.3048 349.133C72.2371 349.477 72.1485 349.821 72.0756 350.17ZM72.9195 348.737C73.1174 348.618 73.3154 348.477 73.5133 348.357C73.4561 348.722 73.3831 349.086 73.3258 349.456C73.107 349.571 72.8987 349.706 72.6799 349.821C72.7528 349.461 72.8413 349.102 72.9195 348.737ZM61.6832 364.672C62.0478 364.589 62.4281 364.542 62.798 364.459C62.699 364.771 62.6261 365.089 62.527 365.402C62.126 365.475 61.7248 365.537 61.329 365.61C61.4384 365.298 61.5686 364.99 61.6832 364.672ZM60.7142 365.719C60.36 365.787 60.0162 365.871 59.662 365.943C59.7766 365.673 59.8912 365.407 60.0058 365.136C60.36 365.047 60.6986 364.917 61.0529 364.834C60.9486 365.131 60.8184 365.417 60.7142 365.719ZM71.1588 354.322C71.0858 354.697 71.0338 355.072 70.966 355.442C70.6431 355.556 70.3305 355.697 70.0075 355.812C70.0909 355.452 70.1534 355.093 70.2315 354.733C70.5441 354.598 70.8462 354.452 71.1588 354.322ZM70.3618 354.108C70.4451 353.754 70.5441 353.4 70.6274 353.045C70.9348 352.894 71.2317 352.733 71.5442 352.587C71.4713 352.957 71.3671 353.322 71.2942 353.697C70.9816 353.827 70.6743 353.973 70.3618 354.108ZM70.8827 356.03C70.815 356.411 70.7837 356.796 70.716 357.176C70.3565 357.286 70.0075 357.416 69.6533 357.531C69.7314 357.161 69.8044 356.786 69.8825 356.416C70.2159 356.291 70.5493 356.15 70.8827 356.03ZM68.8198 361.542C69.2574 361.448 69.6898 361.323 70.1325 361.229C70.0648 361.672 70.0075 362.115 69.9398 362.557C69.4762 362.636 69.0178 362.745 68.5542 362.823C68.6323 362.396 68.7365 361.969 68.8198 361.542ZM68.0958 362.912C67.6738 362.99 67.2571 363.078 66.8351 363.157C66.9289 362.75 67.0435 362.349 67.1372 361.943C67.5332 361.849 67.9186 361.75 68.3145 361.661C68.2364 362.078 68.1739 362.495 68.0958 362.912ZM70.3878 359.479C70.3201 359.88 70.2732 360.281 70.2107 360.682C69.7836 360.771 69.3616 360.891 68.9344 360.984C69.0125 360.599 69.0959 360.208 69.1741 359.823C69.5804 359.713 69.9763 359.583 70.3878 359.479ZM69.2938 359.25C69.372 358.875 69.4501 358.494 69.5283 358.114C69.9033 357.994 70.2628 357.859 70.6326 357.744C70.5701 358.135 70.5284 358.531 70.4659 358.921C70.07 359.02 69.6898 359.151 69.2938 359.25ZM70.6691 361.104C71.0285 361.031 71.3723 360.922 71.7318 360.849C71.6797 361.312 71.6224 361.776 71.5703 362.24C71.2004 362.297 70.841 362.396 70.4712 362.453C70.5389 362.005 70.5962 361.552 70.6691 361.104ZM70.7472 360.552C70.8097 360.146 70.8566 359.734 70.9244 359.323C71.2786 359.234 71.6172 359.114 71.9714 359.026C71.9193 359.458 71.8516 359.885 71.8047 360.318C71.4453 360.39 71.1015 360.484 70.7472 360.552ZM71.0025 358.765C71.0702 358.364 71.1119 357.963 71.1796 357.567C71.5286 357.458 71.862 357.322 72.2162 357.218C72.159 357.64 72.1016 358.057 72.0496 358.473C71.6953 358.562 71.3567 358.677 71.0025 358.765ZM69.0542 357.729C68.7365 357.833 68.4239 357.942 68.1061 358.046C68.1947 357.697 68.2729 357.348 68.3666 357.004C68.6844 356.879 69.0022 356.754 69.3199 356.635C69.2418 356.999 69.1324 357.364 69.0542 357.729ZM68.9136 358.317C68.8355 358.687 68.7781 359.057 68.7052 359.422C68.3666 359.51 68.0332 359.614 67.6946 359.708C67.7832 359.349 67.8665 358.994 67.9603 358.635C68.278 358.531 68.5906 358.421 68.9136 358.317ZM68.6062 359.979C68.5333 360.354 68.4812 360.734 68.4083 361.109C68.0332 361.193 67.6582 361.292 67.2779 361.38C67.3664 361.016 67.4602 360.646 67.5488 360.281C67.903 360.182 68.252 360.078 68.6062 359.979ZM66.684 361.521C66.335 361.604 65.986 361.688 65.637 361.771C65.736 361.427 65.8401 361.083 65.9391 360.739C66.2829 360.635 66.6268 360.542 66.9706 360.448C66.882 360.807 66.7726 361.161 66.684 361.521ZM66.5382 362.083C66.4444 362.474 66.3767 362.87 66.2881 363.261C65.9079 363.339 65.5276 363.407 65.1421 363.485C65.2515 363.099 65.3713 362.719 65.4755 362.339C65.8297 362.25 66.1839 362.172 66.5382 362.083ZM64.5795 363.594C64.2253 363.667 63.8658 363.724 63.5116 363.797C63.6262 363.438 63.7513 363.078 63.871 362.719C64.2097 362.63 64.5586 362.557 64.9025 362.474C64.7983 362.849 64.6837 363.219 64.5795 363.594ZM62.9594 363.907C62.6052 363.985 62.2457 364.032 61.8968 364.11C62.0166 363.771 62.152 363.438 62.277 363.099C62.6 363.011 62.9334 362.953 63.2615 362.865C63.147 363.209 63.0688 363.563 62.9594 363.907ZM63.3241 364.36C63.6887 364.277 64.0586 364.224 64.4232 364.146C64.3347 364.474 64.2305 364.792 64.142 365.12C63.7616 365.183 63.3814 365.251 63.0011 365.318C63.1001 364.995 63.2199 364.678 63.3241 364.36ZM64.9858 364.037C65.3817 363.959 65.7776 363.886 66.1787 363.808C66.1058 364.136 66.0485 364.469 65.9756 364.803C65.5484 364.865 65.1265 364.954 64.6993 365.021C64.7879 364.693 64.8973 364.37 64.9858 364.037ZM66.6996 363.709C67.132 363.625 67.5644 363.537 68.002 363.453C67.9342 363.823 67.877 364.193 67.8092 364.558C67.3613 364.62 66.9132 364.667 66.4652 364.735C66.5382 364.391 66.6215 364.047 66.6996 363.709ZM68.4396 363.37C68.9136 363.287 69.3824 363.177 69.8617 363.099C69.8044 363.5 69.7419 363.907 69.6845 364.308C69.2105 364.37 68.7312 364.433 68.252 364.501C68.3197 364.125 68.3666 363.745 68.4396 363.37ZM70.393 362.995C70.7733 362.933 71.1432 362.839 71.5234 362.776C71.4765 363.214 71.4453 363.646 71.4036 364.084C71.0077 364.131 70.6118 364.193 70.2159 364.24C70.2732 363.823 70.3357 363.412 70.393 362.995ZM72.0496 362.683C72.5131 362.615 72.982 362.584 73.4456 362.516C73.4144 362.974 73.3883 363.433 73.357 363.896C72.883 363.943 72.4038 363.98 71.9245 364.032C71.9714 363.584 72.0027 363.13 72.0496 362.683ZM72.1016 362.162C72.1537 361.693 72.211 361.229 72.2631 360.766C72.6955 360.682 73.1383 360.63 73.5706 360.552C73.5342 361.031 73.5186 361.516 73.4821 361.995C73.0237 362.057 72.56 362.089 72.1016 362.162ZM72.3361 360.234C72.3881 359.786 72.4559 359.349 72.5131 358.901C72.9038 358.807 73.305 358.75 73.6957 358.656C73.654 359.114 73.6436 359.573 73.6071 360.026C73.1851 360.104 72.7528 360.151 72.3361 360.234ZM74.0238 358.588C83.338 356.468 92.9386 355.181 102.471 354.275C105.873 353.952 109.369 353.65 112.76 353.363C128.976 351.972 145.75 350.529 162.117 345.81C170.113 343.518 177.297 340.663 184.09 337.063C218.934 318.571 240.584 280.861 257.165 246.412C258.67 243.287 260.165 240.146 261.66 237.01C276.429 205.984 291.702 173.9 319.222 152.245C323.499 148.88 328.13 145.744 333.006 142.915C343.32 136.94 354.614 132.575 366.413 129.173C354.453 132.783 342.997 137.565 332.522 143.952C327.667 146.911 323.046 150.198 318.79 153.73C291.848 176.041 277.47 208.599 263.567 240.078C261.952 243.75 260.327 247.418 258.691 251.064C243.902 284.018 222.331 324.176 186.429 342.408C179.568 345.872 172.291 348.571 164.154 350.639C147.234 354.968 129.763 355.713 112.869 356.437C109.582 356.577 106.311 356.718 103.071 356.879C93.3189 357.374 83.4942 358.255 73.9353 359.974C73.9718 359.515 73.9874 359.052 74.0238 358.588ZM72.5861 358.364C72.6382 357.926 72.7007 357.489 72.758 357.057C73.107 356.952 73.4664 356.885 73.8155 356.786C73.7738 357.234 73.7686 357.682 73.7269 358.13C73.3467 358.213 72.9612 358.275 72.5861 358.364ZM71.2629 356.994C71.3307 356.603 71.3619 356.207 71.4296 355.817C71.7735 355.697 72.1068 355.546 72.4506 355.426C72.3986 355.832 72.3412 356.244 72.2892 356.65C71.9402 356.749 71.6067 356.89 71.2629 356.994ZM71.513 355.233C71.5859 354.843 71.6641 354.452 71.737 354.066C72.0599 353.931 72.3673 353.775 72.6903 353.644C72.633 354.04 72.5861 354.442 72.5288 354.837C72.185 354.957 71.8568 355.108 71.513 355.233ZM71.8777 353.436C71.9506 353.051 72.0599 352.67 72.1329 352.285C72.3986 352.16 72.6538 352.014 72.9247 351.884C72.8622 352.269 72.8257 352.655 72.7684 353.04C72.4663 353.165 72.1798 353.311 71.8777 353.436ZM72.2787 351.634C72.3517 351.259 72.4506 350.884 72.5288 350.509C72.758 350.384 72.9768 350.243 73.2112 350.118C73.1487 350.498 73.0706 350.878 73.0132 351.264C72.7632 351.378 72.5236 351.514 72.2787 351.634ZM71.9245 350.852C71.8568 351.212 71.7578 351.571 71.6849 351.931C71.388 352.077 71.0963 352.238 70.7941 352.384C70.8775 352.04 70.9713 351.696 71.0598 351.347C71.3463 351.186 71.6328 351.014 71.9245 350.852ZM70.294 352.639C70.0127 352.775 69.7314 352.92 69.4501 353.061C69.5439 352.743 69.6429 352.426 69.7367 352.103C70.0023 351.951 70.268 351.8 70.5337 351.649C70.4503 351.978 70.3722 352.306 70.294 352.639ZM70.1325 353.295C70.0492 353.639 69.9606 353.978 69.8825 354.322C69.57 354.457 69.2626 354.598 68.95 354.733C69.0438 354.405 69.1532 354.077 69.247 353.743C69.5439 353.592 69.8356 353.447 70.1325 353.295ZM69.7314 354.957C69.6481 355.311 69.5491 355.666 69.471 356.02C69.148 356.14 68.8355 356.27 68.5177 356.39C68.6062 356.056 68.674 355.718 68.7678 355.379C69.0855 355.239 69.4085 355.093 69.7314 354.957ZM67.9916 356.593C67.6738 356.718 67.3508 356.838 67.0278 356.963C67.1268 356.65 67.2206 356.338 67.3196 356.02C67.6321 355.879 67.9447 355.749 68.252 355.608C68.1635 355.937 68.0801 356.265 67.9916 356.593ZM67.8301 357.208C67.7415 357.546 67.6477 357.89 67.5592 358.229C67.231 358.338 66.8976 358.447 66.5694 358.557C66.6684 358.234 66.7518 357.911 66.8507 357.588C67.1737 357.458 67.5019 357.338 67.8301 357.208ZM65.9651 358.76C65.6787 358.859 65.3817 358.947 65.0952 359.046C65.2046 358.75 65.288 358.447 65.3974 358.15C65.6735 358.031 65.9548 357.937 66.2308 357.827C66.137 358.135 66.0589 358.447 65.9651 358.76ZM66.3975 359.156C66.7309 359.041 67.0643 358.937 67.4029 358.822C67.3144 359.171 67.2102 359.52 67.1216 359.87C66.783 359.963 66.4444 360.057 66.1058 360.156C66.2048 359.823 66.2986 359.489 66.3975 359.156ZM65.5172 360.323C65.2046 360.416 64.8921 360.495 64.5795 360.588C64.6889 360.281 64.7827 359.968 64.8921 359.656C65.189 359.552 65.4963 359.463 65.7932 359.359C65.6995 359.682 65.611 360.005 65.5172 360.323ZM63.9596 360.766C63.6627 360.859 63.3553 360.927 63.0636 361.021C63.173 360.734 63.2772 360.448 63.3866 360.161C63.6887 360.047 64.0013 359.963 64.3034 359.854C64.194 360.161 64.0638 360.463 63.9596 360.766ZM64.3867 361.177C64.7045 361.083 65.0327 361 65.3505 360.906C65.2567 361.24 65.1578 361.573 65.064 361.906C64.7306 361.99 64.392 362.057 64.0638 362.146C64.168 361.823 64.2774 361.5 64.3867 361.177ZM63.4231 362.297C63.1157 362.38 62.8032 362.432 62.4958 362.521C62.6104 362.219 62.7198 361.917 62.8344 361.62C63.1313 361.521 63.4387 361.458 63.7304 361.365C63.6262 361.677 63.5272 361.99 63.4231 362.297ZM61.8916 362.662C61.5998 362.745 61.3029 362.828 61.0112 362.917C61.1258 362.651 61.2456 362.401 61.3602 362.141C61.6519 362.042 61.928 361.906 62.2197 361.813C62.1103 362.094 62.001 362.375 61.8916 362.662ZM60.2923 363.157C59.9954 363.245 59.7141 363.365 59.4171 363.453C59.5265 363.229 59.6255 362.99 59.7401 362.766C60.0371 362.656 60.3288 362.526 60.6309 362.422C60.5215 362.672 60.4017 362.907 60.2923 363.157ZM60.7195 363.558C61.0372 363.464 61.3446 363.334 61.6675 363.245C61.5425 363.573 61.4071 363.896 61.2873 364.23C60.9486 364.308 60.6205 364.433 60.2819 364.516C60.4226 364.188 60.5788 363.886 60.7195 363.558ZM59.8339 364.157C59.7609 364.334 59.7037 364.532 59.6307 364.709C59.3182 364.787 59.0213 364.891 58.7139 364.975C58.8493 364.683 58.9796 364.386 59.115 364.099C59.4119 364.006 59.6984 363.891 59.9954 363.802C59.9433 363.922 59.886 364.037 59.8339 364.157ZM58.0836 365.157C57.7502 365.245 57.422 365.35 57.0886 365.443C57.2345 365.162 57.4064 364.907 57.5574 364.626C57.8648 364.527 58.1617 364.417 58.4743 364.318C58.3388 364.594 58.2138 364.876 58.0836 365.157ZM58.4222 365.594C58.7504 365.506 59.0733 365.397 59.4068 365.308C59.3026 365.553 59.2244 365.818 59.1255 366.063C58.7816 366.136 58.443 366.214 58.0992 366.293C58.2034 366.058 58.3128 365.824 58.4222 365.594ZM57.4897 366.428C57.1407 366.506 56.7917 366.579 56.4479 366.657C56.5416 366.475 56.6198 366.272 56.7188 366.089C57.0782 365.985 57.4324 365.876 57.7919 365.777C57.6929 365.99 57.5887 366.209 57.4897 366.428ZM59.4536 366.517C59.8078 366.444 60.1621 366.355 60.5163 366.282C60.4121 366.584 60.3288 366.897 60.2246 367.204C59.86 367.256 59.5005 367.324 59.1358 367.386C59.2505 367.1 59.339 366.798 59.4536 366.517ZM61.1154 366.167C61.5321 366.089 61.9541 366.027 62.3708 365.954C62.2666 366.282 62.178 366.615 62.0791 366.949C61.6467 367.011 61.2091 367.063 60.7716 367.126C60.8861 366.808 61.006 366.49 61.1154 366.167ZM62.8188 365.876C63.2147 365.803 63.6106 365.735 64.0065 365.667C63.9127 366.016 63.845 366.371 63.7564 366.72C63.3449 366.772 62.9386 366.834 62.527 366.886C62.6313 366.553 62.7146 366.209 62.8188 365.876ZM64.5639 365.568C64.9962 365.501 65.4286 365.412 65.8662 365.344C65.7829 365.719 65.7151 366.095 65.6318 366.47C65.189 366.522 64.7514 366.589 64.3086 366.642C64.4024 366.287 64.4701 365.928 64.5639 365.568ZM66.3558 365.266C66.809 365.199 67.2675 365.152 67.7207 365.089C67.6477 365.49 67.58 365.891 67.5123 366.293C67.0487 366.339 66.5903 366.371 66.1267 366.423C66.21 366.037 66.2725 365.652 66.3558 365.266ZM68.1686 365.032C68.6479 364.964 69.1272 364.902 69.6116 364.839C69.5543 365.261 69.4814 365.688 69.4293 366.11C68.9397 366.152 68.4552 366.204 67.9707 366.251C68.0384 365.845 68.0958 365.433 68.1686 365.032ZM70.1377 364.771C70.5441 364.719 70.9452 364.657 71.3515 364.61C71.3098 365.053 71.2734 365.501 71.2317 365.943C70.8045 365.975 70.3774 366.027 69.9502 366.063C70.0075 365.631 70.0805 365.199 70.1377 364.771ZM71.8777 364.553C72.3621 364.495 72.8413 364.464 73.3258 364.412C73.2945 364.886 73.2633 365.355 73.2373 365.829C72.7424 365.86 72.2475 365.881 71.7526 365.912C71.7943 365.459 71.8308 365.006 71.8777 364.553ZM73.654 364.381C83.9579 363.36 94.3763 363.318 104.347 363.625C107.295 363.719 110.264 363.823 113.249 363.938C131.549 364.62 150.464 365.324 168.603 361.807C177.078 360.177 184.663 357.775 191.805 354.462C208.526 346.701 222.904 333.875 235.771 315.247C245.647 300.958 254.326 283.7 263.156 260.993C264.921 256.435 266.687 251.752 268.391 247.225C280.586 214.865 293.223 181.359 318.9 157.881C323.03 154.105 327.552 150.557 332.35 147.338C342.45 140.561 353.583 135.45 365.1 131.533C352.624 135.951 341.596 141.53 331.829 148.39C327.068 151.735 322.562 155.438 318.436 159.387C293.202 183.594 281.367 217.694 269.928 250.668C268.219 255.601 266.448 260.701 264.666 265.666C253.164 297.786 233.327 342.424 194.175 359.781C186.976 362.974 179.292 365.214 170.686 366.626C152.095 369.694 132.56 368.251 113.661 366.855C110.759 366.636 107.873 366.423 105.003 366.225C94.7983 365.532 84.1298 365.173 73.5602 365.808C73.5915 365.334 73.6227 364.86 73.654 364.381ZM332.063 146.911C327.25 150.146 322.702 153.709 318.551 157.501C292.786 181.057 280.132 214.605 267.906 247.048C266.203 251.57 264.442 256.242 262.676 260.8C261.14 264.759 259.519 268.812 257.79 272.907C244.559 304.251 225.019 338.48 191.596 353.988C184.491 357.286 176.932 359.677 168.504 361.302C150.428 364.808 131.534 364.105 113.265 363.422C110.28 363.313 107.311 363.209 104.357 363.11C94.3972 362.802 83.9839 362.849 73.6852 363.86C73.7165 363.401 73.7425 362.938 73.7738 362.479C83.812 361.068 93.9856 360.594 103.722 360.51C106.806 360.484 109.91 360.479 113.036 360.474C130.653 360.437 148.87 360.411 166.446 356.473C174.776 354.613 182.23 352.061 189.236 348.659C225.503 331.052 246.252 291.451 260.28 258.227C260.572 257.529 260.863 256.826 261.155 256.133C262.879 252.002 264.604 247.782 266.276 243.693C279.299 211.844 292.775 178.849 319.009 156.001C323.202 152.349 327.766 148.937 332.569 145.864C346.076 137.216 361.292 131.366 376.988 127.366C361.188 131.564 345.706 137.758 332.063 146.911ZM332.746 142.473C327.859 145.312 323.202 148.458 318.905 151.839C291.291 173.566 275.991 205.707 261.197 236.786C259.702 239.922 258.207 243.063 256.701 246.194C240.157 280.564 218.564 318.185 183.845 336.605C177.089 340.184 169.936 343.033 161.971 345.31C145.656 350.019 128.908 351.462 112.713 352.853C109.327 353.139 105.826 353.441 102.43 353.77C92.9229 354.671 83.3536 355.952 74.0603 358.062C74.0968 357.609 74.102 357.15 74.1437 356.702C83.2025 354.181 92.5583 352.483 101.852 351.16C105.436 350.644 109.139 350.165 112.713 349.691C128.205 347.649 144.229 345.549 159.961 340.47C167.811 337.949 174.864 334.943 181.511 331.266C215.215 312.585 236.833 277.11 255.17 241.557C256.493 238.989 257.816 236.411 259.134 233.832C274.845 203.16 291.082 171.446 319.332 150.365C323.687 147.119 328.36 144.119 333.225 141.446C345.217 134.862 358.49 130.288 372.294 126.954C358.229 130.523 344.857 135.456 332.746 142.473ZM72.831 356.504C72.8882 356.077 72.9403 355.645 73.0029 355.212C73.331 355.098 73.6748 355.015 74.0082 354.905C73.9613 355.353 73.8988 355.796 73.8571 356.244C73.5186 356.338 73.1695 356.411 72.831 356.504ZM73.0757 354.65C73.1383 354.233 73.1851 353.816 73.2425 353.394C73.5655 353.269 73.8936 353.155 74.2166 353.03C74.1697 353.467 74.1124 353.905 74.0707 354.348C73.7425 354.457 73.4039 354.54 73.0757 354.65ZM74.6021 352.889C83.0827 349.592 91.8759 347.081 100.617 344.924C104.701 343.914 108.764 342.976 113.062 341.981C126.965 338.777 141.343 335.459 155.632 329.802C163.175 326.838 169.962 323.525 176.364 319.67C209.349 299.755 232.275 263.895 251.179 231.847L253.539 227.841C271.272 197.722 289.608 166.581 319.545 146.609C323.979 143.645 328.729 140.92 333.662 138.503C345.998 132.45 359.5 128.361 373.477 125.438C359.172 128.595 345.639 133.059 333.209 139.519C328.292 142.071 323.562 144.947 319.139 148.067C289.999 168.644 272.72 200.081 256.008 230.483C254.909 232.472 253.815 234.468 252.716 236.458C233.468 271.344 211.183 306.214 178.677 325.015C172.187 328.765 165.3 331.922 157.622 334.657C142.64 340.022 127.465 342.752 112.781 345.393C108.941 346.086 104.967 346.794 101.138 347.534C92.178 349.264 83.1556 351.358 74.4354 354.233C74.4822 353.785 74.5552 353.337 74.6021 352.889ZM73.3206 352.806C73.3831 352.405 73.4196 352.004 73.4821 351.602C73.7999 351.457 74.1124 351.316 74.4302 351.17C74.3781 351.602 74.3312 352.03 74.2843 352.457C73.9665 352.582 73.6383 352.681 73.3206 352.806ZM73.5863 350.972C73.6488 350.576 73.7269 350.18 73.7894 349.784C74.0759 349.633 74.352 349.472 74.6385 349.326C74.5864 349.743 74.5448 350.165 74.4927 350.587C74.1958 350.722 73.8832 350.831 73.5863 350.972ZM75.0657 349.118C82.9681 345.018 91.1935 341.679 99.372 338.684C104.138 336.933 108.926 335.303 114 333.568C126.137 329.422 138.686 325.124 151.313 319.139C158.533 315.726 165.045 312.111 171.213 308.074C203.895 286.607 227.894 250.861 247.179 222.132C267.094 192.476 287.686 161.814 319.759 142.853C324.296 140.165 329.125 137.711 334.105 135.555C349.066 129.074 365.423 125.24 382.348 122.735C365.23 125.464 348.728 129.611 333.673 136.565C328.677 138.863 323.869 141.467 319.379 144.291C288.332 163.815 269.657 193.476 249.893 224.883L248.742 226.716C227.993 259.691 205.088 293.546 173.515 313.434C167.259 317.367 160.638 320.821 153.261 323.999C139.796 329.849 126.314 333.688 113.27 337.402C108.629 338.72 104.243 339.97 99.846 341.309C91.4592 343.862 83.0306 346.768 74.9094 350.41C74.9563 349.977 75.0136 349.545 75.0657 349.118ZM73.9093 349.118C73.9718 348.737 74.0395 348.357 74.1072 347.977C74.3572 347.821 74.5916 347.654 74.8417 347.503C74.7948 347.904 74.7532 348.315 74.7063 348.717C74.4406 348.857 74.1697 348.982 73.9093 349.118ZM73.0757 348.024C73.1539 347.675 73.2373 347.326 73.3102 346.971C73.4821 346.852 73.6488 346.727 73.8207 346.607C73.7582 346.961 73.6957 347.31 73.6332 347.664C73.4456 347.779 73.2633 347.909 73.0757 348.024ZM74.227 347.284C74.2895 346.914 74.352 346.539 74.4197 346.169C74.6333 346.023 74.8365 345.857 75.0501 345.711C74.998 346.096 74.9667 346.487 74.9146 346.872C74.6854 347.013 74.4562 347.143 74.227 347.284ZM75.5293 345.388C82.8535 340.46 90.5163 336.277 98.1322 332.443C103.842 329.562 109.655 326.853 115.812 323.994C125.929 319.29 136.378 314.429 146.984 308.46C153.949 304.573 160.185 300.656 166.071 296.473C194.977 275.839 218.361 245.074 238.99 217.928C240.402 216.084 241.798 214.245 243.183 212.422C266.307 182.099 288.045 155.652 319.967 139.092C324.604 136.69 329.506 134.508 334.538 132.606C349.53 126.954 365.803 123.714 382.541 121.651C365.611 123.938 349.207 127.501 334.131 133.606C329.094 135.643 324.208 137.967 319.613 140.519C286.238 159.033 264.208 189.824 244.762 216.985L243.616 218.585C222.763 247.736 199.129 280.778 168.353 301.849C162.326 305.954 155.965 309.715 148.907 313.341C137.285 319.357 125.772 323.988 114.635 328.463C109.051 330.708 103.774 332.834 98.5489 335.094C90.7455 338.465 82.9056 342.184 75.3783 346.617C75.4303 346.206 75.472 345.794 75.5293 345.388ZM74.5448 345.445C74.6073 345.091 74.6646 344.737 74.7271 344.388C74.9303 344.231 75.123 344.054 75.3261 343.903C75.2741 344.273 75.2064 344.643 75.1542 345.018C74.9511 345.153 74.7479 345.304 74.5448 345.445ZM334.355 132.127C329.308 134.034 324.385 136.221 319.728 138.633C287.717 155.24 265.937 181.74 242.772 212.115C241.386 213.938 239.985 215.772 238.584 217.621C217.976 244.735 194.618 275.464 165.769 296.051C159.903 300.224 153.678 304.136 146.734 308.012C136.144 313.966 125.699 318.826 115.604 323.525C109.436 326.395 103.618 329.099 97.9082 331.979C90.3965 335.761 82.8431 339.892 75.6127 344.726C75.6648 344.336 75.7012 343.94 75.7585 343.549C82.791 338.194 90.1777 333.584 97.5175 329.317C103.795 325.671 110.259 322.228 117.109 318.586C126.09 313.82 135.373 308.882 144.823 303.131C151.688 298.974 157.794 294.895 163.492 290.675C190.393 270.672 213.261 242.25 233.437 217.168C236.047 213.922 238.625 210.719 241.188 207.567C263.869 179.62 286.972 153.209 320.077 137.211C324.76 134.945 329.703 132.903 334.756 131.132C349.358 126.032 365.121 123.136 381.28 121.281C364.928 123.36 349.04 126.595 334.355 132.127ZM74.8626 343.611C74.9251 343.278 74.9719 342.945 75.0345 342.617C75.2272 342.45 75.4043 342.268 75.5971 342.106C75.5449 342.45 75.4877 342.799 75.4408 343.143C75.2428 343.294 75.0553 343.46 74.8626 343.611ZM74.2531 344.112C74.1281 344.205 74.003 344.315 73.878 344.414C73.9509 344.101 74.0134 343.789 74.0864 343.481C74.1958 343.382 74.3 343.278 74.4094 343.184C74.352 343.492 74.3051 343.804 74.2531 344.112ZM73.2373 344.935C73.008 345.117 72.7788 345.31 72.5444 345.497C72.6174 345.232 72.6747 344.966 72.7528 344.7C72.9768 344.492 73.2008 344.283 73.43 344.08C73.3623 344.367 73.305 344.648 73.2373 344.935ZM73.7009 345.221C73.8415 345.112 73.977 344.992 74.1176 344.883C74.0603 345.216 74.003 345.549 73.9457 345.878C73.7894 345.987 73.6383 346.107 73.4769 346.216C73.555 345.883 73.6227 345.555 73.7009 345.221ZM72.8518 346.669C72.6069 346.846 72.3621 347.034 72.1121 347.211C72.1902 346.919 72.2579 346.628 72.3361 346.336C72.5757 346.138 72.8153 345.94 73.0601 345.742C72.9924 346.055 72.9195 346.362 72.8518 346.669ZM71.5026 347.654C71.3151 347.784 71.1327 347.92 70.9452 348.055C71.0285 347.795 71.0963 347.534 71.1796 347.274C71.3515 347.133 71.5234 346.998 71.6953 346.852C71.6276 347.117 71.5703 347.388 71.5026 347.654ZM71.9141 347.987C72.1693 347.805 72.4246 347.612 72.6851 347.425C72.6174 347.758 72.534 348.091 72.4663 348.42C72.2006 348.586 71.9402 348.763 71.6745 348.935C71.7526 348.618 71.8308 348.305 71.9141 347.987ZM71.1015 349.3C70.8827 349.441 70.6639 349.581 70.4503 349.722C70.5337 349.441 70.617 349.154 70.7056 348.868C70.9087 348.717 71.1119 348.571 71.3151 348.425C71.2369 348.717 71.1744 349.008 71.1015 349.3ZM69.747 350.175C69.57 350.295 69.3929 350.404 69.2157 350.519C69.3043 350.264 69.3876 350.008 69.4814 349.753C69.6533 349.623 69.8356 349.503 70.0127 349.368C69.9294 349.639 69.8304 349.909 69.747 350.175ZM70.2211 350.482C70.4555 350.326 70.69 350.18 70.9244 350.029C70.8462 350.337 70.7785 350.649 70.7003 350.957C70.4503 351.097 70.2002 351.243 69.9502 351.384C70.0388 351.087 70.1325 350.785 70.2211 350.482ZM69.273 351.774C69.0699 351.894 68.8667 352.004 68.6635 352.123C68.7573 351.853 68.8511 351.576 68.9448 351.306C69.1272 351.186 69.3095 351.071 69.4918 350.951C69.4137 351.227 69.3512 351.503 69.273 351.774ZM67.9811 352.514C67.8145 352.613 67.6373 352.707 67.4707 352.806C67.5644 352.561 67.6582 352.316 67.7571 352.071C67.9134 351.967 68.0801 351.873 68.2364 351.764C68.153 352.014 68.0645 352.264 67.9811 352.514ZM68.4083 352.863C68.6323 352.733 68.8615 352.608 69.0855 352.478C68.9969 352.775 68.9344 353.071 68.8459 353.368C68.601 353.493 68.351 353.613 68.1061 353.743C68.2052 353.447 68.3093 353.155 68.4083 352.863ZM67.4498 354.072C67.2519 354.176 67.0487 354.27 66.8507 354.379C66.9549 354.108 67.0591 353.842 67.1633 353.577C67.3508 353.462 67.5435 353.363 67.7311 353.254C67.6373 353.525 67.5435 353.801 67.4498 354.072ZM67.8665 354.441C68.1322 354.301 68.4031 354.176 68.6687 354.035C68.5854 354.348 68.5073 354.66 68.4239 354.968C68.1322 355.098 67.8405 355.223 67.5488 355.358C67.6477 355.051 67.7676 354.749 67.8665 354.441ZM66.9237 355.634C66.6945 355.744 66.46 355.832 66.2308 355.942C66.3402 355.66 66.4549 355.379 66.5642 355.098C66.7778 354.983 67.0018 354.884 67.2154 354.77C67.1216 355.061 67.0122 355.348 66.9237 355.634ZM65.6838 356.187C65.4286 356.306 65.1578 356.405 64.9025 356.53C65.0067 356.291 65.1212 356.051 65.2255 355.812C65.4755 355.671 65.7307 355.535 65.9808 355.395C65.8818 355.66 65.7829 355.921 65.6838 356.187ZM65.9651 356.624C66.2048 356.51 66.4549 356.411 66.6945 356.301C66.6007 356.598 66.5017 356.9 66.408 357.202C66.1475 357.312 65.8766 357.4 65.6161 357.51C65.7203 357.213 65.8506 356.921 65.9651 356.624ZM65.1109 357.708C64.8191 357.827 64.517 357.921 64.2305 358.046C64.3399 357.781 64.4701 357.515 64.5847 357.249C64.8608 357.114 65.1473 356.994 65.4286 356.859C65.3244 357.145 65.215 357.421 65.1109 357.708ZM63.5689 358.312C63.3658 358.406 63.173 358.52 62.9646 358.614C63.0636 358.406 63.1522 358.187 63.2512 357.984C63.4439 357.885 63.6262 357.77 63.819 357.671C63.7304 357.885 63.6575 358.104 63.5689 358.312ZM63.9388 358.713C64.2409 358.583 64.5586 358.484 64.866 358.354C64.7618 358.651 64.6368 358.942 64.5326 359.234C64.2357 359.343 63.9232 359.427 63.621 359.541C63.7356 359.265 63.8241 358.984 63.9388 358.713ZM63.0219 359.739C62.7823 359.833 62.5531 359.948 62.3187 360.036C62.4229 359.812 62.5219 359.578 62.6261 359.354C62.8552 359.255 63.0688 359.125 63.2928 359.026C63.199 359.265 63.1157 359.505 63.0219 359.739ZM61.579 360.359C61.3029 360.469 61.0372 360.604 60.7664 360.719C60.8705 360.505 60.9955 360.312 61.1049 360.104C61.3602 359.979 61.6103 359.843 61.8655 359.729C61.7717 359.937 61.6728 360.151 61.579 360.359ZM61.9957 360.739C62.2562 360.64 62.501 360.51 62.7615 360.406C62.6573 360.672 62.5583 360.932 62.4593 361.193C62.1937 361.281 61.9332 361.38 61.6675 361.469C61.7769 361.229 61.8863 360.984 61.9957 360.739ZM60.9383 361.75C60.6361 361.854 60.3496 361.99 60.0527 362.094C60.1569 361.885 60.2507 361.661 60.3548 361.458C60.657 361.333 60.9486 361.187 61.2508 361.068C61.1518 361.297 61.0424 361.521 60.9383 361.75ZM59.3911 362.349C59.1671 362.427 58.9431 362.521 58.7191 362.61C58.8285 362.412 58.9431 362.219 59.0525 362.026C59.2557 361.938 59.4588 361.844 59.6672 361.755C59.5682 361.948 59.4849 362.156 59.3911 362.349ZM57.9534 362.901C57.7502 362.979 57.5471 363.058 57.3439 363.136C57.448 362.969 57.5471 362.797 57.6512 362.636C57.8544 362.542 58.0575 362.459 58.2607 362.37C58.1565 362.547 58.0523 362.724 57.9534 362.901ZM58.3076 363.318C58.568 363.219 58.8181 363.115 59.0786 363.021C58.9744 363.235 58.8754 363.459 58.7712 363.672C58.4951 363.761 58.2242 363.865 57.9429 363.954C58.0628 363.735 58.1878 363.532 58.3076 363.318ZM57.2084 364.204C56.9845 364.277 56.7657 364.355 56.5416 364.428C56.6563 364.24 56.7761 364.047 56.8907 363.86C57.1095 363.776 57.3283 363.693 57.5471 363.61C57.4377 363.813 57.3178 364 57.2084 364.204ZM55.7759 364.688C55.5519 364.761 55.3331 364.834 55.1091 364.912C55.2185 364.751 55.3279 364.584 55.4425 364.422C55.6561 364.329 55.8801 364.256 56.0989 364.167C55.9895 364.339 55.8853 364.511 55.7759 364.688ZM56.1145 365.115C56.3489 365.032 56.5833 364.954 56.8177 364.876C56.6771 365.141 56.5156 365.381 56.375 365.652C56.1353 365.719 55.8957 365.787 55.6561 365.86C55.8071 365.605 55.9634 365.365 56.1145 365.115ZM54.9164 366.074C54.6716 366.147 54.4215 366.209 54.1767 366.287C54.3278 366.058 54.484 365.839 54.6351 365.615C54.8695 365.532 55.1143 365.454 55.3539 365.37C55.2081 365.61 55.057 365.834 54.9164 366.074ZM55.2498 366.511C55.5206 366.433 55.7863 366.355 56.0572 366.277C55.9687 366.444 55.8957 366.631 55.8124 366.798C55.5206 366.871 55.2342 366.933 54.9424 367.006C55.0414 366.834 55.1508 366.678 55.2498 366.511ZM54.2131 367.204C53.9422 367.277 53.6766 367.36 53.4005 367.433C53.5099 367.267 53.6193 367.116 53.7287 366.954C53.9891 366.871 54.2548 366.803 54.5153 366.725C54.4163 366.892 54.3121 367.037 54.2131 367.204ZM52.6347 367.642C52.4055 367.704 52.1763 367.767 51.9419 367.834C52.0565 367.673 52.1763 367.527 52.2909 367.366C52.5097 367.293 52.7337 367.246 52.9525 367.178C52.8483 367.334 52.7389 367.48 52.6347 367.642ZM52.9577 368.09C53.2442 368.012 53.5307 367.928 53.8172 367.85C53.7026 368.053 53.5933 368.267 53.4839 368.47C53.1713 368.538 52.8587 368.621 52.5514 368.694C52.6764 368.48 52.8275 368.298 52.9577 368.09ZM51.8064 368.871C51.5512 368.928 51.296 368.991 51.0407 369.053C51.171 368.861 51.3116 368.694 51.447 368.506C51.6919 368.433 51.9419 368.371 52.1919 368.298C52.0669 368.496 51.9315 368.668 51.8064 368.871ZM50.2593 369.236C50.0405 369.293 49.8113 369.34 49.5926 369.397C49.7176 369.231 49.8582 369.079 49.9833 368.918C50.202 368.85 50.4208 368.793 50.6396 368.73C50.5146 368.908 50.3791 369.059 50.2593 369.236ZM52.8483 369.731C52.4993 369.793 52.1555 369.876 51.8064 369.939C51.9263 369.741 52.0252 369.517 52.1503 369.319C52.4941 369.236 52.8327 369.147 53.1817 369.074C53.0619 369.283 52.9629 369.517 52.8483 369.731ZM54.5622 369.444C54.2079 369.501 53.8433 369.538 53.489 369.6C53.6089 369.382 53.713 369.137 53.8329 368.918C54.1975 368.84 54.5569 368.756 54.9216 368.684C54.7966 368.934 54.6819 369.194 54.5622 369.444ZM55.1768 369.35C55.3019 369.095 55.4164 368.824 55.5467 368.569C55.8853 368.501 56.2343 368.444 56.5781 368.381C56.4531 368.657 56.3177 368.918 56.1926 369.199C55.854 369.251 55.5155 369.298 55.1768 369.35ZM56.7865 369.116C56.9115 368.824 57.0522 368.553 57.1772 368.267C57.5835 368.194 57.9846 368.116 58.3857 368.048C58.2711 368.335 58.1722 368.637 58.0575 368.923C57.6356 368.98 57.2084 369.053 56.7865 369.116ZM58.5993 368.845C58.7139 368.548 58.8129 368.241 58.9275 367.949C59.3077 367.881 59.6776 367.803 60.0527 367.746C59.9485 368.058 59.8547 368.381 59.7506 368.699C59.3651 368.746 58.9848 368.793 58.5993 368.845ZM60.2975 368.647C60.4017 368.324 60.4954 367.991 60.6048 367.668C61.0424 367.6 61.4852 367.553 61.9228 367.491C61.8238 367.829 61.73 368.168 61.6311 368.512C61.1831 368.559 60.7403 368.595 60.2975 368.647ZM62.0947 368.465C62.1937 368.121 62.277 367.772 62.3812 367.428C62.798 367.371 63.2147 367.308 63.6314 367.256C63.5428 367.616 63.4647 367.975 63.3762 368.335C62.949 368.376 62.5219 368.423 62.0947 368.465ZM63.9232 368.277C64.0117 367.913 64.0898 367.548 64.1836 367.183C64.6316 367.126 65.0744 367.053 65.5276 367.001C65.4442 367.386 65.3661 367.772 65.288 368.157C64.8348 368.189 64.3816 368.241 63.9232 368.277ZM65.788 368.126C65.8714 367.735 65.9443 367.34 66.0225 366.949C66.4861 366.897 66.9549 366.866 67.4185 366.819C67.3508 367.225 67.2727 367.631 67.205 368.043C66.7361 368.074 66.2621 368.09 65.788 368.126ZM67.6842 368.017C67.7519 367.6 67.8145 367.188 67.8822 366.772C68.3718 366.725 68.8615 366.678 69.3512 366.636C69.2938 367.069 69.221 367.496 69.1636 367.928C68.6687 367.949 68.1739 367.986 67.6842 368.017ZM69.6845 367.897C69.7419 367.459 69.82 367.022 69.8773 366.584C70.3096 366.548 70.7472 366.496 71.1796 366.464C71.1379 366.918 71.0963 367.371 71.0546 367.824C70.6014 367.84 70.143 367.876 69.6845 367.897ZM71.5755 367.814C71.6172 367.35 71.6589 366.892 71.7058 366.433C72.2006 366.397 72.7059 366.376 73.2008 366.345C73.1748 366.824 73.1383 367.298 73.1123 367.777C72.6017 367.793 72.086 367.793 71.5755 367.814ZM318.321 161.278C293.577 186.136 282.549 220.799 271.881 254.33C270.188 259.67 268.432 265.181 266.661 270.536C255.842 303.23 236.807 348.633 196.759 365.579C171.056 376.451 142.109 373.299 114.109 370.252C111.275 369.944 108.452 369.637 105.644 369.345C95.1994 368.262 84.2756 367.511 73.4352 367.772C73.4613 367.287 73.5029 366.808 73.5289 366.324C84.0933 365.688 94.7618 366.042 104.962 366.74C107.837 366.938 110.723 367.147 113.624 367.366C132.55 368.767 152.121 370.215 170.77 367.142C179.417 365.719 187.142 363.464 194.383 360.255C233.718 342.825 253.602 298.015 265.151 265.843C266.932 260.873 268.698 255.768 270.412 250.835C281.82 217.934 293.635 183.891 318.801 159.762C322.9 155.824 327.38 152.141 332.131 148.807C343.086 141.113 355.729 135.096 370.158 130.481C349.04 137.472 331.85 147.697 318.321 161.278ZM332.98 140.998C328.089 143.676 323.395 146.692 319.025 149.958C290.671 171.108 274.413 202.874 258.681 233.598C257.363 236.171 256.045 238.75 254.711 241.323C236.406 276.803 214.845 312.2 181.261 330.818C174.645 334.475 167.618 337.475 159.799 339.981C144.114 345.044 128.117 347.149 112.645 349.185C109.066 349.649 105.363 350.139 101.779 350.649C92.5322 351.967 83.2181 353.66 74.1958 356.155C74.2426 355.702 74.3208 355.249 74.3677 354.796C83.1348 351.889 92.2145 349.784 101.237 348.045C105.071 347.3 109.035 346.591 112.874 345.898C127.575 343.252 142.775 340.522 157.799 335.141C165.503 332.396 172.421 329.229 178.938 325.468C211.548 306.6 233.89 271.656 253.169 236.702C254.269 234.712 255.363 232.723 256.456 230.727C273.142 200.373 290.389 168.993 319.441 148.489C323.838 145.379 328.552 142.519 333.449 139.977C348.155 132.33 364.475 127.579 381.744 124.391C364.454 127.788 347.764 132.872 332.98 140.998ZM333.439 138.039C328.479 140.467 323.708 143.207 319.259 146.182C289.228 166.216 270.855 197.409 253.096 227.576L250.726 231.592C231.864 263.582 208.985 299.375 176.099 319.227C169.717 323.066 162.966 326.374 155.439 329.328C141.192 334.964 126.83 338.277 112.947 341.481C108.837 342.434 104.581 343.414 100.492 344.419C91.8186 346.56 83.0931 349.06 74.6698 352.316C74.7219 351.879 74.7844 351.441 74.8365 350.998C83.0254 347.305 91.5321 344.377 99.9919 341.799C104.388 340.46 108.769 339.215 113.411 337.897C126.465 334.178 139.968 330.328 153.475 324.468C160.867 321.28 167.514 317.815 173.791 313.867C205.453 293.926 228.394 260.014 249.169 226.992L250.325 225.159C270.063 193.804 288.702 164.19 319.655 144.728C324.124 141.91 328.912 139.326 333.881 137.029C349.431 129.851 366.522 125.652 384.265 122.943C366.376 125.881 348.998 130.403 333.439 138.039ZM333.897 135.081C328.896 137.242 324.057 139.712 319.499 142.405C287.332 161.434 266.703 192.143 246.752 221.846C227.493 250.533 203.525 286.237 170.931 307.642C164.784 311.663 158.294 315.273 151.084 318.675C138.493 324.65 125.96 328.937 113.833 333.084C108.759 334.813 103.967 336.454 99.1949 338.199C91.1049 341.158 82.9681 344.471 75.1439 348.503C75.1959 348.086 75.248 347.664 75.3001 347.248C82.9108 342.742 90.8601 338.98 98.7625 335.563C103.977 333.302 109.243 331.187 114.828 328.942C125.97 324.462 137.498 319.831 149.141 313.794C156.226 310.163 162.596 306.392 168.639 302.266C199.493 281.148 223.159 248.069 244.038 218.887L245.184 217.282C264.593 190.168 286.587 159.429 319.858 140.972C324.442 138.43 329.308 136.112 334.324 134.08C349.738 127.84 366.548 124.24 383.9 121.969C366.35 124.464 349.394 128.366 333.897 135.081ZM334.59 130.648C329.516 132.424 324.557 134.476 319.848 136.748C286.654 152.797 263.51 179.25 240.787 207.244C238.229 210.401 235.651 213.605 233.041 216.85C212.876 241.901 190.034 270.297 163.19 290.259C157.502 294.478 151.412 298.541 144.557 302.693C135.118 308.434 125.84 313.367 116.87 318.138C110.014 321.774 103.545 325.212 97.2571 328.869C90.0371 333.068 82.7805 337.61 75.8418 342.856C75.894 342.492 75.9252 342.122 75.9773 341.757C82.7285 335.949 89.8286 330.885 96.8924 326.192C103.842 321.571 111.093 317.216 118.771 312.606C126.512 307.96 134.508 303.151 142.661 297.791C149.37 293.405 155.34 289.18 160.919 284.877C185.663 265.702 206.76 240.839 227.165 216.787C231.311 211.906 235.224 207.296 239.183 202.712C261.348 177.062 285.857 150.74 320.181 135.331C324.901 133.211 329.875 131.304 334.975 129.658C350.197 124.761 366.627 122.167 383.385 120.547C366.439 122.391 349.884 125.308 334.59 130.648ZM75.1803 341.788C75.2324 341.507 75.2845 341.231 75.3366 340.955C75.5085 340.783 75.6752 340.601 75.8523 340.434C75.8054 340.72 75.7637 341.007 75.7221 341.293C75.5345 341.45 75.3626 341.627 75.1803 341.788ZM334.814 129.168C329.698 130.819 324.708 132.736 319.967 134.862C285.55 150.307 260.999 176.682 238.797 202.368C234.833 206.963 230.916 211.573 226.774 216.454C206.385 240.484 185.304 265.332 160.601 284.471C155.038 288.763 149.079 292.983 142.379 297.359C134.237 302.719 126.236 307.522 118.511 312.163C110.822 316.779 103.565 321.139 96.6111 325.759C89.6828 330.37 82.7128 335.324 76.0711 340.991C76.118 340.689 76.144 340.387 76.1909 340.085C82.8066 333.641 89.6828 328.046 96.2777 323.061C104.055 317.18 112.317 311.632 121.063 305.761C127.361 301.526 133.873 297.156 140.499 292.457C147.094 287.805 152.928 283.429 158.346 279.069C180.766 260.977 200.754 238.552 220.08 216.86C225.977 210.239 231.546 203.994 237.187 197.862C263.89 168.816 288.248 146.749 320.285 133.45C325.057 131.471 330.079 129.699 335.194 128.189C351.186 123.469 368.434 121.162 385.927 119.781C368.241 121.386 350.869 124.001 334.814 129.168ZM75.5397 340.017C75.5971 339.725 75.6699 339.434 75.7273 339.142C75.8575 338.996 75.9825 338.85 76.1128 338.71C76.0659 338.996 76.0242 339.283 75.9825 339.569C75.8315 339.715 75.6856 339.871 75.5397 340.017ZM335.048 127.694C329.907 129.21 324.88 130.986 320.092 132.976C287.962 146.307 263.562 168.415 236.807 197.508C231.166 203.65 225.597 209.901 219.7 216.522C200.384 238.197 180.412 260.602 158.023 278.673C152.616 283.028 146.781 287.388 140.202 292.03C133.581 296.734 127.069 301.104 120.777 305.334C112.025 311.21 103.758 316.768 95.9703 322.66C89.537 327.52 82.8274 332.943 76.3576 339.184C76.4097 338.866 76.4826 338.553 76.5347 338.23C82.8222 331.344 89.3754 325.317 95.6578 319.941C104.425 312.434 113.958 305.344 124.048 297.843C128.684 294.395 133.482 290.826 138.342 287.117C145.031 282.033 150.574 277.637 155.767 273.276C175.63 256.591 194.05 236.791 211.871 217.647C219.903 209.015 227.488 200.868 235.187 192.997C258.644 169.034 285.201 145.004 320.389 131.57C325.224 129.726 330.277 128.095 335.413 126.715C351.186 122.479 368.111 120.5 385.208 119.328C367.918 120.719 350.879 123.026 335.048 127.694ZM335.283 126.215C330.131 127.6 325.057 129.241 320.212 131.096C284.92 144.561 258.316 168.633 234.817 192.637C227.118 200.514 219.533 208.666 211.496 217.298C193.685 236.432 175.271 256.216 155.444 272.881C150.245 277.235 144.713 281.627 138.024 286.711C133.17 290.42 128.382 293.978 123.741 297.426C113.645 304.938 104.102 312.033 95.3192 319.555C89.2088 324.78 82.8483 330.609 76.7118 337.251C76.7639 336.959 76.8264 336.662 76.8785 336.371C82.8379 329.036 89.0629 322.577 95.0379 316.815C104.977 307.22 116.099 298.151 127.882 288.555C130.607 286.331 133.373 284.08 136.17 281.778C140.78 278.012 146.885 272.985 153.199 267.473C170.145 252.643 186.455 235.76 202.223 219.429C212.876 208.406 222.93 197.998 233.192 188.142C255.816 166.409 283.878 142.473 320.494 129.694C325.349 128.001 330.438 126.501 335.626 125.24C351.311 121.443 368.059 119.781 384.911 118.828C367.877 120.005 351.014 121.995 335.283 126.215ZM116.698 233.733C164.951 160.132 249.596 113.473 337.595 111.967C352.416 111.712 367.616 112.681 382.306 113.619C384.838 113.78 387.385 113.931 389.927 114.087C388.255 114.009 386.562 113.942 384.901 113.858C369.252 113.087 353.062 112.285 337.361 112.931C332.042 113.145 326.635 113.551 321.28 114.129C285.352 118.031 250.242 129.705 216.929 148.828C185.35 166.966 156.048 191.835 132.201 220.746C127.33 226.654 122.704 232.717 118.443 238.781C107.42 254.497 98.127 271.24 90.808 288.592C90.3809 289.592 89.9641 290.602 89.5526 291.608C86.6093 298.833 84.0256 306.152 81.7387 313.539C88.9796 285.367 100.601 258.284 116.698 233.733ZM90.0318 291.795C90.4381 290.795 90.8601 289.795 91.282 288.79C98.5906 271.479 107.858 254.768 118.865 239.083C123.116 233.03 127.736 226.966 132.591 221.075C156.408 192.21 185.668 167.383 217.189 149.281C250.44 130.194 285.482 118.536 321.337 114.645C326.677 114.061 332.079 113.655 337.377 113.441C353.062 112.796 369.231 113.598 384.874 114.369C386.864 114.468 388.886 114.551 390.886 114.645C389.792 114.608 388.688 114.577 387.599 114.541C370.945 113.936 353.723 113.316 337.127 114.405C331.798 114.754 326.427 115.296 321.16 116.015C286.274 120.787 251.867 133.466 218.924 153.704C189.091 172.03 159.997 197.216 134.779 226.539C129.716 232.431 124.955 238.338 120.615 244.105C108.379 260.399 98.1426 277.428 90.1933 294.712C89.0056 297.296 87.8596 299.88 86.7604 302.485C84.7601 307.225 82.9993 312.012 81.3064 316.81C83.8016 308.376 86.6771 300.021 90.0318 291.795ZM87.2344 302.683C88.3284 300.088 89.4692 297.505 90.6622 294.926C98.5958 277.678 108.811 260.675 121.032 244.412C125.356 238.656 130.112 232.754 135.17 226.878C160.351 197.591 189.403 172.436 219.19 154.141C252.075 133.94 286.41 121.281 321.233 116.52C326.484 115.806 331.844 115.265 337.158 114.916C353.734 113.832 370.94 114.452 387.578 115.051C388.391 115.082 389.214 115.103 390.021 115.129C372.44 114.723 354.286 114.317 336.892 115.879C331.579 116.353 326.25 117.036 321.041 117.895C287.191 123.495 253.508 137.18 220.909 158.564C192.768 177.031 164.659 201.853 137.358 232.332C132.018 238.302 127.257 243.891 122.793 249.434C109.733 265.687 99.273 281.517 90.8236 297.817C87.6095 304.027 84.6976 310.215 82.0826 316.414C81.4991 317.789 81.0407 319.165 80.4885 320.54C82.5097 314.549 84.7445 308.59 87.2344 302.683ZM91.282 298.052C99.7106 281.783 110.15 265.989 123.189 249.752C127.648 244.219 132.409 238.635 137.748 232.676C165.014 202.222 193.086 177.437 221.19 158.996C253.727 137.649 287.352 123.995 321.129 118.406C326.317 117.546 331.636 116.864 336.939 116.39C354.083 114.853 371.987 115.228 389.339 115.635C371.799 115.447 353.822 115.39 336.663 117.359C331.391 117.958 326.099 118.776 320.921 119.781C287.649 126.261 255.581 140.545 222.893 163.435C197.108 181.495 169.973 205.926 139.952 238.13C134.362 244.094 129.46 249.543 124.97 254.752C111.145 270.838 100.185 285.935 91.4644 300.922C86.8021 308.934 82.8222 316.904 79.2696 324.879C82.6608 315.93 86.6458 307.011 91.282 298.052ZM91.9124 301.182C100.617 286.221 111.551 271.146 125.356 255.096C129.851 249.882 134.743 244.449 140.322 238.479C170.327 206.301 197.436 181.896 223.195 163.856C255.816 141.009 287.816 126.751 321.025 120.286C326.177 119.281 331.464 118.468 336.72 117.864C353.63 115.931 371.341 115.963 388.651 116.14C371.159 116.182 353.359 116.473 336.429 118.833C331.136 119.573 325.88 120.526 320.801 121.667C288.613 128.892 257.238 144.145 224.883 168.3C194.977 190.637 166.696 219.043 142.531 243.917C136.43 250.184 131.544 255.32 127.142 260.076C112.254 276.251 101.122 290.212 92.1103 304.027C87.0261 311.809 82.6452 319.43 78.7903 327.025C82.5253 318.42 86.875 309.824 91.9124 301.182ZM78.1756 329.323C82.2545 321.066 87 312.778 92.5375 304.303C101.534 290.524 112.656 276.579 127.523 260.43C131.919 255.669 136.806 250.538 142.9 244.277C167.05 219.413 195.316 191.023 225.191 168.711C257.483 144.603 288.795 129.377 320.916 122.172C325.979 121.031 331.219 120.078 336.502 119.338C353.098 117.025 370.549 116.708 387.724 116.661C370.372 116.926 352.822 117.572 336.205 120.307C330.922 121.177 325.698 122.271 320.686 123.553C289.113 131.59 259.306 147.359 226.873 173.171C202.864 192.283 179.532 215.49 156.976 237.937C153.001 241.886 149.052 245.824 145.114 249.71C139.676 255.06 134.383 260.29 129.315 265.405C118.417 276.459 104.409 291.196 92.751 307.131C87.1876 314.726 82.3586 322.165 78.1287 329.573C78.1444 329.489 78.16 329.406 78.1756 329.323ZM77.8422 331.125C82.2336 323.306 87.2918 315.456 93.1678 307.428C104.805 291.53 118.797 276.808 129.685 265.765C134.743 260.654 140.04 255.43 145.474 250.08C149.407 246.188 153.366 242.25 157.335 238.302C179.886 215.865 203.208 192.664 227.191 173.572C259.566 147.807 289.316 132.07 320.817 124.053C325.817 122.771 331.021 121.682 336.288 120.818C352.379 118.166 369.361 117.479 386.192 117.197C369.184 117.697 352.093 118.718 335.97 121.787C330.751 122.776 325.567 124.006 320.566 125.433C290.072 134.143 260.926 150.854 228.853 178.031C210.964 193.2 193.097 210.911 175.812 228.034C166.602 237.156 157.075 246.595 147.693 255.503C144.51 258.513 141.374 261.462 138.269 264.363C135.988 266.51 133.727 268.63 131.492 270.734C119.188 282.377 105.081 295.989 93.3918 310.231C87.396 317.529 82.2857 324.577 77.7589 331.573C77.7901 331.422 77.8162 331.276 77.8422 331.125ZM77.2171 332.203C77.2171 332.198 77.2171 332.198 77.2223 332.193C77.2067 332.276 77.1911 332.354 77.1755 332.438C77.1702 332.448 77.165 332.453 77.1598 332.459C77.1806 332.375 77.1963 332.287 77.2171 332.203ZM77.5296 332.828C82.1867 325.53 87.5314 318.18 93.7825 310.559C105.462 296.338 119.558 282.742 131.846 271.109C134.076 269.005 136.342 266.885 138.624 264.738C141.728 261.837 144.864 258.883 148.052 255.872C157.439 246.965 166.962 237.525 176.177 228.399C193.456 211.281 211.318 193.58 229.191 178.427C261.202 151.297 290.285 134.617 320.712 125.933C325.698 124.511 330.865 123.282 336.069 122.292C352.551 119.156 370.054 118.171 387.458 117.682C369.872 118.39 352.259 119.698 335.741 123.261C330.558 124.381 325.411 125.746 320.447 127.319C282.195 139.446 252.471 163.393 230.843 182.901C217.319 195.112 203.577 208.942 190.284 222.314C177.276 235.41 163.826 248.944 150.277 261.3C144.515 266.53 138.921 271.458 133.67 276.053L132.628 276.975C118.636 289.321 105.42 300.984 94.0273 313.335C88.7712 319.045 83.0202 325.707 77.4255 333.391C77.4568 333.203 77.4932 333.016 77.5296 332.828ZM76.8629 333.844C76.8837 333.813 76.9045 333.782 76.9254 333.75C76.8993 333.896 76.8681 334.037 76.842 334.178C76.816 334.209 76.7951 334.24 76.7691 334.271C76.8056 334.131 76.8316 333.985 76.8629 333.844ZM77.1963 334.631C82.9837 326.577 88.9587 319.607 94.4128 313.69C105.785 301.354 118.985 289.701 132.972 277.36L134.013 276.444C139.259 271.839 144.859 266.916 150.62 261.675C164.18 249.319 177.641 235.775 190.648 222.679C203.932 209.307 217.668 195.482 231.186 183.282C252.774 163.804 282.445 139.904 320.608 127.809C325.552 126.241 330.678 124.881 335.856 123.766C350.285 120.646 365.574 119.323 380.947 118.547C365.402 119.536 350.004 121.229 335.512 124.74C330.303 126.001 325.192 127.506 320.332 129.21C283.617 142.019 255.498 166.003 232.833 187.772C222.565 197.633 212.506 208.041 201.858 219.074C186.09 235.395 169.79 252.273 152.86 267.088C146.552 272.594 140.457 277.616 135.847 281.382C133.05 283.679 130.284 285.935 127.554 288.154C115.771 297.76 104.639 306.829 94.6732 316.445C89.0994 321.826 83.0046 328.135 77.0556 335.407C77.0973 335.146 77.1494 334.891 77.1963 334.631ZM76.4722 335.657C76.5191 335.594 76.5607 335.537 76.6024 335.475C76.566 335.673 76.5451 335.876 76.5087 336.074C76.4513 336.147 76.3941 336.22 76.3367 336.287C76.3836 336.079 76.4305 335.865 76.4722 335.657ZM75.5502 336.965C75.6074 336.886 75.6596 336.813 75.7168 336.735C75.6856 336.881 75.6491 337.027 75.6231 337.173C75.5606 337.251 75.498 337.324 75.4355 337.397C75.472 337.256 75.5137 337.11 75.5502 336.965ZM76.1231 337.303C76.2065 337.199 76.2899 337.095 76.3732 336.991C76.3316 337.251 76.2951 337.511 76.2534 337.772C76.1492 337.881 76.0503 338.001 75.9461 338.116C76.0034 337.845 76.0659 337.574 76.1231 337.303ZM74.7219 338.147C74.7323 338.126 74.7427 338.111 74.7583 338.095C74.7427 338.157 74.7323 338.225 74.7115 338.288C74.6958 338.314 74.675 338.335 74.6541 338.361C74.6802 338.288 74.701 338.215 74.7219 338.147ZM75.2064 338.428C75.2741 338.345 75.3366 338.267 75.4043 338.189C75.3522 338.423 75.3001 338.663 75.248 338.902C75.1855 338.975 75.1178 339.048 75.0553 339.121C75.1126 338.892 75.149 338.658 75.2064 338.428ZM74.2947 339.548C74.3572 339.47 74.425 339.397 74.4875 339.319C74.4354 339.517 74.4041 339.715 74.352 339.913C74.2687 340.007 74.1853 340.1 74.102 340.194C74.1697 339.981 74.2322 339.767 74.2947 339.548ZM74.826 340.158C74.8938 340.08 74.9615 340.007 75.0292 339.929C74.9771 340.189 74.9146 340.444 74.8626 340.705C74.7948 340.772 74.7271 340.845 74.6541 340.918C74.7167 340.663 74.7635 340.413 74.826 340.158ZM73.3883 340.793C73.4092 340.767 73.43 340.741 73.4508 340.715C73.4144 340.825 73.3779 340.934 73.3414 341.049C73.3206 341.075 73.2998 341.101 73.2737 341.127C73.3154 341.017 73.3519 340.908 73.3883 340.793ZM73.7477 341.372C73.8728 341.226 73.9978 341.09 74.1228 340.95C74.0707 341.168 74.029 341.387 73.977 341.606C73.8311 341.752 73.6905 341.898 73.5446 342.049C73.6071 341.82 73.68 341.596 73.7477 341.372ZM74.4458 341.861C74.5239 341.783 74.6021 341.7 74.6854 341.622C74.6385 341.866 74.6021 342.111 74.5552 342.356C74.4614 342.434 74.3728 342.523 74.2791 342.606C74.3416 342.356 74.3885 342.111 74.4458 341.861ZM72.8257 342.413C72.8726 342.356 72.9195 342.304 72.9664 342.252C72.9143 342.439 72.8466 342.627 72.7893 342.809C72.7372 342.867 72.6799 342.924 72.6278 342.981C72.6903 342.788 72.758 342.601 72.8257 342.413ZM73.2268 343.101C73.4039 342.913 73.5863 342.736 73.7686 342.549C73.7165 342.768 73.6748 342.986 73.6227 343.205C73.4248 343.382 73.2268 343.565 73.0289 343.747C73.0914 343.528 73.1643 343.315 73.2268 343.101ZM71.8412 343.58C71.8777 343.528 71.9193 343.476 71.9558 343.429C71.9193 343.544 71.8829 343.658 71.8464 343.773C71.7995 343.825 71.7474 343.867 71.7058 343.919C71.7474 343.804 71.7943 343.69 71.8412 343.58ZM72.2267 344.117C72.3048 344.039 72.3777 343.966 72.4559 343.888C72.4038 344.065 72.3361 344.242 72.284 344.424C72.2058 344.497 72.1225 344.57 72.0443 344.643C72.1016 344.471 72.1693 344.294 72.2267 344.117ZM71.2057 345.153C71.2994 345.054 71.3932 344.966 71.487 344.872C71.4401 345.008 71.3984 345.138 71.3515 345.273C71.2526 345.367 71.1484 345.461 71.0494 345.555C71.0963 345.419 71.1535 345.284 71.2057 345.153ZM71.6849 345.669C71.8099 345.549 71.9402 345.44 72.0704 345.32C72.0027 345.555 71.961 345.794 71.8985 346.029C71.7474 346.148 71.5911 346.273 71.4401 346.398C71.5182 346.154 71.6067 345.914 71.6849 345.669ZM70.6066 346.654C70.742 346.518 70.8879 346.398 71.0285 346.268C70.9556 346.482 70.8879 346.695 70.8202 346.904C70.6639 347.034 70.5076 347.154 70.3513 347.284C70.4347 347.076 70.5284 346.862 70.6066 346.654ZM69.6533 347.524C69.6898 347.492 69.7262 347.456 69.7627 347.419C69.7002 347.591 69.6273 347.758 69.5648 347.93C69.5179 347.966 69.4657 348.008 69.4189 348.045C69.4918 347.873 69.5804 347.701 69.6533 347.524ZM70.0075 348.232C70.1742 348.086 70.3513 347.951 70.5232 347.81C70.4451 348.055 70.3565 348.295 70.2836 348.539C70.1117 348.664 69.9398 348.784 69.7731 348.909C69.8564 348.685 69.9242 348.456 70.0075 348.232ZM68.5125 348.722C68.5385 348.696 68.5646 348.67 68.5854 348.644C68.5698 348.685 68.549 348.727 68.5281 348.769C68.5073 348.789 68.4812 348.816 68.4552 348.836C68.476 348.795 68.4968 348.758 68.5125 348.722ZM68.9344 349.102C69.0282 349.019 69.1272 348.951 69.221 348.868C69.148 349.066 69.0907 349.258 69.023 349.451C68.9136 349.534 68.8042 349.607 68.7 349.685C68.7834 349.493 68.8511 349.295 68.9344 349.102ZM67.7467 350.212C67.8457 350.123 67.9395 350.024 68.0332 349.936C67.9916 350.045 67.9603 350.149 67.9134 350.258C67.8145 350.337 67.7051 350.41 67.6009 350.493C67.6477 350.399 67.7051 350.305 67.7467 350.212ZM68.3458 350.576C68.476 350.477 68.6062 350.394 68.7365 350.295C68.6531 350.524 68.5802 350.753 68.5021 350.983C68.3666 351.076 68.2208 351.16 68.0801 351.253C68.1739 351.029 68.2572 350.8 68.3458 350.576ZM66.8351 351.071C66.8664 351.04 66.9028 351.009 66.9341 350.977C66.9132 351.019 66.8924 351.066 66.8715 351.113C66.8351 351.144 66.7987 351.175 66.7622 351.207C66.7882 351.16 66.809 351.113 66.8351 351.071ZM67.1008 351.592C67.2571 351.467 67.4029 351.326 67.5592 351.207C67.4915 351.373 67.4341 351.545 67.3664 351.717C67.2206 351.816 67.0643 351.905 66.9184 352.004C66.9809 351.868 67.0383 351.727 67.1008 351.592ZM66.085 352.452C66.1736 352.384 66.2517 352.311 66.335 352.243C66.2881 352.347 66.2361 352.446 66.1892 352.551C66.1006 352.618 66.012 352.691 65.9235 352.754C65.9808 352.655 66.0329 352.556 66.085 352.452ZM66.4861 352.972C66.6788 352.837 66.8612 352.676 67.0539 352.54C66.9706 352.754 66.8976 352.972 66.8143 353.186C66.6268 353.295 66.434 353.389 66.2517 353.504C66.3298 353.327 66.408 353.15 66.4861 352.972ZM64.6629 353.66C64.7671 353.577 64.8712 353.483 64.9754 353.4C64.9493 353.447 64.9233 353.488 64.9025 353.535C64.8035 353.608 64.7045 353.686 64.6108 353.759C64.6264 353.728 64.642 353.691 64.6629 353.66ZM65.3297 353.858C65.4599 353.764 65.5849 353.66 65.7099 353.566C65.6474 353.707 65.5744 353.848 65.5119 353.988C65.3765 354.077 65.2463 354.176 65.1109 354.264C65.1838 354.129 65.2567 353.994 65.3297 353.858ZM65.861 354.374C66.085 354.233 66.3038 354.082 66.5277 353.941C66.434 354.186 66.3455 354.436 66.2517 354.681C66.0277 354.801 65.7985 354.9 65.5744 355.02C65.6682 354.806 65.7672 354.593 65.861 354.374ZM63.9909 354.879C64.1003 354.796 64.2097 354.712 64.319 354.629C64.267 354.723 64.2148 354.817 64.168 354.91C64.0638 354.978 63.9596 355.056 63.8554 355.129C63.9023 355.046 63.944 354.957 63.9909 354.879ZM64.5691 355.259C64.741 355.15 64.9025 355.025 65.0744 354.916C64.9962 355.098 64.9025 355.27 64.8243 355.447C64.642 355.551 64.4753 355.671 64.293 355.775C64.3816 355.598 64.4805 355.436 64.5691 355.259ZM62.9021 355.707C62.9542 355.666 63.0115 355.629 63.0636 355.588C63.0376 355.629 63.0115 355.676 62.9907 355.718C62.9282 355.759 62.8709 355.801 62.8136 355.843C62.8396 355.796 62.8709 355.754 62.9021 355.707ZM63.2928 356.134C63.4126 356.056 63.5272 355.978 63.6419 355.9C63.5741 356.03 63.5064 356.166 63.4439 356.296C63.3189 356.369 63.2043 356.447 63.0845 356.515C63.1574 356.39 63.2251 356.26 63.2928 356.134ZM63.8554 356.65C64.0429 356.541 64.2253 356.416 64.418 356.306C64.3295 356.51 64.2201 356.702 64.1315 356.905C63.9544 356.994 63.7877 357.109 63.6054 357.197C63.6939 357.02 63.7669 356.827 63.8554 356.65ZM62.0166 357.015C62.152 356.921 62.2874 356.827 62.4281 356.734C62.3708 356.827 62.3187 356.926 62.2666 357.02C62.1155 357.109 61.9749 357.202 61.8238 357.291C61.8863 357.197 61.9541 357.109 62.0166 357.015ZM62.5739 357.437C62.7355 357.343 62.8917 357.239 63.0532 357.145C62.9751 357.301 62.9074 357.468 62.8344 357.624C62.6573 357.713 62.4906 357.817 62.3187 357.906C62.402 357.749 62.4906 357.593 62.5739 357.437ZM61.2039 358.281C61.3862 358.166 61.5686 358.057 61.7509 357.942C61.678 358.078 61.605 358.208 61.5321 358.338C61.355 358.432 61.1831 358.536 61.006 358.63C61.0737 358.515 61.1362 358.39 61.2039 358.281ZM61.8499 358.755C62.0582 358.645 62.2614 358.52 62.4698 358.411C62.3812 358.598 62.2979 358.796 62.2093 358.984C61.9853 359.083 61.7665 359.208 61.5425 359.312C61.6415 359.125 61.7457 358.942 61.8499 358.755ZM60.0162 359.01C60.1048 358.953 60.1985 358.901 60.2871 358.849C60.235 358.932 60.1881 359.026 60.136 359.109C60.0266 359.166 59.9225 359.224 59.8131 359.286C59.8808 359.187 59.9537 359.104 60.0162 359.01ZM60.5111 359.494C60.6934 359.39 60.8758 359.291 61.058 359.187C60.9695 359.354 60.8758 359.515 60.7872 359.682C60.6048 359.765 60.4277 359.859 60.2507 359.942C60.3392 359.797 60.4173 359.64 60.5111 359.494ZM58.7868 359.765C58.8077 359.755 58.8285 359.744 58.8493 359.729C58.8181 359.771 58.7973 359.817 58.766 359.859C58.7348 359.88 58.6983 359.896 58.667 359.916C58.7035 359.864 58.7504 359.817 58.7868 359.765ZM59.1306 360.25C59.2974 360.156 59.4693 360.067 59.6412 359.968C59.563 360.094 59.4953 360.229 59.4171 360.354C59.2505 360.432 59.0838 360.515 58.9119 360.599C58.99 360.489 59.0525 360.364 59.1306 360.25ZM59.787 360.75C59.9745 360.656 60.1569 360.562 60.3496 360.474C60.2454 360.667 60.136 360.838 60.0371 361.031C59.8495 361.109 59.6672 361.198 59.4849 361.276C59.5839 361.099 59.6828 360.922 59.787 360.75ZM57.7971 360.984C57.9325 360.901 58.0784 360.833 58.2138 360.755C58.1565 360.844 58.1044 360.937 58.0419 361.026C57.8909 361.104 57.7398 361.172 57.5887 361.25C57.6565 361.161 57.7293 361.078 57.7971 360.984ZM58.4013 361.427C58.5837 361.333 58.7712 361.245 58.9587 361.156C58.8702 361.307 58.7816 361.464 58.6931 361.62C58.5055 361.703 58.318 361.781 58.1305 361.865C58.2242 361.724 58.3076 361.568 58.4013 361.427ZM56.6823 361.594C56.7084 361.583 56.7344 361.573 56.7552 361.557C56.7188 361.604 56.6875 361.661 56.651 361.708C56.6094 361.734 56.5677 361.75 56.526 361.771C56.5781 361.714 56.6354 361.656 56.6823 361.594ZM57.0053 362.115C57.1772 362.021 57.3595 361.943 57.5314 361.854C57.4533 361.974 57.3803 362.104 57.3022 362.224C57.1251 362.307 56.948 362.375 56.7709 362.459C56.849 362.349 56.922 362.224 57.0053 362.115ZM55.7342 362.735C55.8436 362.677 55.9582 362.63 56.0676 362.573C56.0051 362.662 55.9478 362.755 55.8853 362.844C55.7707 362.896 55.6561 362.938 55.5415 362.995C55.604 362.912 55.6665 362.818 55.7342 362.735ZM56.2291 363.256C56.4271 363.162 56.6302 363.084 56.8229 362.995C56.7292 363.141 56.6407 363.297 56.5469 363.443C56.3489 363.521 56.1458 363.594 55.9478 363.677C56.0416 363.537 56.1353 363.391 56.2291 363.256ZM54.6247 363.365C54.6142 363.381 54.6038 363.396 54.5934 363.407C54.5517 363.427 54.51 363.438 54.4736 363.459C54.5257 363.433 54.5725 363.396 54.6247 363.365ZM54.9268 363.823C55.0623 363.756 55.2081 363.704 55.3487 363.641C55.2654 363.756 55.1873 363.881 55.1039 364C54.9581 364.058 54.8122 364.11 54.6663 364.167C54.7549 364.053 54.8382 363.933 54.9268 363.823ZM53.6036 364.464C53.7235 364.407 53.8329 364.323 53.9527 364.266C53.8902 364.349 53.8329 364.433 53.7703 364.511C53.6714 364.558 53.5672 364.584 53.4734 364.631C53.5151 364.579 53.5567 364.516 53.6036 364.464ZM54.0985 364.938C54.26 364.865 54.4319 364.813 54.5986 364.745C54.4997 364.891 54.4006 365.037 54.3017 365.183C54.1298 365.245 53.9527 365.298 53.7808 365.36C53.8902 365.219 53.9891 365.074 54.0985 364.938ZM52.791 365.469C52.9264 365.407 53.0619 365.344 53.1973 365.282C53.1088 365.407 53.015 365.527 52.9264 365.652C52.7962 365.699 52.6608 365.735 52.5306 365.782C52.6191 365.678 52.7025 365.568 52.791 365.469ZM53.8224 365.886C53.687 366.1 53.5411 366.298 53.4005 366.511C53.2026 366.574 52.9941 366.621 52.7962 366.688C52.9473 366.485 53.0932 366.282 53.2442 366.084C53.437 366.011 53.6349 365.959 53.8224 365.886ZM51.322 366.225C51.4262 366.173 51.5304 366.11 51.6398 366.063C51.6294 366.074 51.6189 366.089 51.6085 366.1C51.5043 366.141 51.4106 366.199 51.3064 366.24C51.3116 366.235 51.3168 366.23 51.322 366.225ZM51.9263 366.532C52.0774 366.47 52.2388 366.433 52.3899 366.371C52.2545 366.558 52.1138 366.741 51.9783 366.923C51.8169 366.98 51.6502 367.011 51.4887 367.069C51.6345 366.886 51.7804 366.709 51.9263 366.532ZM50.4416 367.22C50.5823 367.157 50.7178 367.079 50.8584 367.022C50.7594 367.142 50.6604 367.261 50.5615 367.386C50.4156 367.439 50.2802 367.511 50.1343 367.564C50.2333 367.449 50.3374 367.334 50.4416 367.22ZM50.8844 367.814C51.0772 367.741 51.2751 367.673 51.4731 367.605C51.3637 367.762 51.2438 367.902 51.1345 368.058C50.9417 368.116 50.7438 368.163 50.551 368.22C50.6604 368.079 50.775 367.949 50.8844 367.814ZM48.9778 367.902C49.0768 367.855 49.1706 367.808 49.2696 367.767C49.1966 367.85 49.1185 367.928 49.0456 368.017C48.9466 368.053 48.8528 368.1 48.7487 368.137C48.8268 368.058 48.8997 367.98 48.9778 367.902ZM49.3477 368.449C49.5248 368.381 49.6967 368.293 49.879 368.23C49.8113 368.314 49.7436 368.392 49.6759 368.475C49.5092 368.527 49.3425 368.59 49.1706 368.647C49.2279 368.579 49.2904 368.517 49.3477 368.449ZM47.5766 368.553C47.6078 368.543 47.6391 368.527 47.6755 368.512C47.6338 368.553 47.5922 368.595 47.5557 368.637C47.5193 368.647 47.4828 368.663 47.4463 368.678C47.4932 368.637 47.5349 368.595 47.5766 368.553ZM47.8474 369.069C47.9881 369.017 48.1236 368.954 48.2642 368.897C48.2433 368.923 48.2173 368.949 48.1913 368.975C48.0662 369.017 47.9412 369.064 47.8162 369.105C47.8266 369.095 47.837 369.079 47.8474 369.069ZM48.483 369.423C48.6757 369.361 48.8684 369.288 49.0664 369.225C48.9675 369.356 48.8581 369.47 48.7643 369.6C48.5611 369.652 48.3683 369.72 48.1652 369.777C48.2694 369.658 48.3788 369.543 48.483 369.423ZM47.0348 369.913C47.1911 369.861 47.3474 369.809 47.5036 369.751C47.4151 369.861 47.3213 369.949 47.2328 370.059C47.0765 370.106 46.915 370.153 46.7535 370.199C46.8473 370.1 46.941 370.012 47.0348 369.913ZM45.6648 370.377C45.7638 370.34 45.8679 370.309 45.9721 370.272C45.8992 370.35 45.821 370.423 45.7481 370.502C45.6439 370.533 45.5345 370.564 45.4303 370.595C45.5085 370.522 45.5866 370.449 45.6648 370.377ZM46.0242 370.96C46.2117 370.903 46.3993 370.845 46.5868 370.788C46.4826 370.918 46.368 371.022 46.2639 371.153C46.0711 371.2 45.8784 371.257 45.6856 371.304C45.795 371.184 45.9148 371.08 46.0242 370.96ZM44.3 370.882C44.352 370.861 44.3989 370.84 44.4458 370.819C44.4094 370.856 44.3729 370.887 44.3364 370.924C44.2948 370.939 44.2479 370.95 44.2062 370.965C44.2374 370.934 44.2687 370.908 44.3 370.882ZM44.6073 371.382C44.7427 371.335 44.8834 371.299 45.0188 371.257C44.9251 371.361 44.8209 371.45 44.7271 371.559C44.5864 371.596 44.4458 371.632 44.3 371.668C44.3989 371.569 44.5083 371.481 44.6073 371.382ZM43.2165 371.83C43.3102 371.799 43.3987 371.757 43.4925 371.726C43.4196 371.804 43.3415 371.866 43.2685 371.939C43.1852 371.965 43.0966 371.981 43.0133 372.007C43.081 371.945 43.1539 371.892 43.2165 371.83ZM41.7891 372.356C41.81 372.346 41.836 372.34 41.8568 372.33C41.8516 372.335 41.8464 372.34 41.8412 372.346C41.8203 372.351 41.7943 372.361 41.7735 372.366C41.7787 372.366 41.7839 372.361 41.7891 372.356Z" fill="#4F6C8C"/>
</g>
</svg>
